<svg width="164" height="40" viewBox="0 0 164 40" xmlns="http://www.w3.org/2000/svg"><title>Group 7</title><g fill="none" fill-rule="evenodd"><rect fill="#000" width="164" height="40" rx="2"/><g fill="#FFF"><path d="M42.129 18.825c-.027-2.882 2.411-4.284 2.523-4.35-1.38-1.97-3.521-2.24-4.273-2.26-1.798-.186-3.541 1.052-4.457 1.052-.934 0-2.345-1.035-3.864-1.004-1.954.03-3.785 1.137-4.788 2.858-2.071 3.508-.527 8.664 1.457 11.5.993 1.389 2.152 2.94 3.67 2.885 1.484-.061 2.04-.928 3.832-.928 1.776 0 2.296.928 3.845.893 1.593-.026 2.597-1.395 3.554-2.797 1.147-1.592 1.608-3.16 1.626-3.24-.037-.012-3.095-1.154-3.125-4.609M39.204 10.349c.798-.978 1.345-2.307 1.193-3.657-1.156.05-2.602.782-3.433 1.739-.737.842-1.395 2.223-1.225 3.521 1.299.095 2.632-.64 3.465-1.603M62.544 24.677l-1.007-3.107c-.106-.318-.306-1.066-.601-2.243H60.9a86.34 86.34 0 0 1-.566 2.243l-.989 3.107h3.198zm3.48 4.963h-2.031l-1.114-3.496h-3.868l-1.06 3.496h-1.98l3.834-11.902h2.368l3.852 11.902zM73.94 25.313c0-.835-.188-1.524-.565-2.066-.413-.564-.966-.848-1.661-.848-.471 0-.899.158-1.28.469-.384.312-.634.72-.752 1.228-.059.235-.088.43-.088.581v1.431c0 .624.191 1.151.574 1.58.383.43.88.645 1.493.645.719 0 1.279-.277 1.679-.83.4-.553.6-1.283.6-2.19zm1.944-.07c0 1.46-.395 2.613-1.184 3.46-.707.754-1.584 1.13-2.633 1.13-1.13 0-1.943-.405-2.437-1.218h-.036v4.52h-1.908v-9.252c0-.918-.024-1.86-.07-2.825h1.677l.107 1.36h.035c.636-1.025 1.602-1.536 2.897-1.536 1.014 0 1.859.4 2.536 1.2.678.801 1.016 1.855 1.016 3.161zM83.817 25.313c0-.835-.189-1.524-.565-2.066-.413-.564-.966-.848-1.661-.848-.472 0-.899.158-1.282.469-.382.312-.632.72-.75 1.228-.058.235-.088.43-.088.581v1.431c0 .624.191 1.151.572 1.58.383.43.882.645 1.495.645.718 0 1.278-.277 1.678-.83.4-.553.601-1.283.601-2.19zm1.944-.07c0 1.46-.395 2.613-1.185 3.46-.706.754-1.584 1.13-2.632 1.13-1.131 0-1.944-.405-2.438-1.218h-.035v4.52h-1.908v-9.252c0-.918-.024-1.86-.07-2.825h1.678l.105 1.36h.036c.636-1.025 1.6-1.536 2.897-1.536 1.012 0 1.859.4 2.536 1.2.677.801 1.016 1.855 1.016 3.161zM96.804 26.303c0 1.011-.352 1.835-1.058 2.47-.776.697-1.856 1.043-3.244 1.043-1.28 0-2.309-.247-3.086-.742l.442-1.589c.837.506 1.756.76 2.758.76.718 0 1.278-.162 1.68-.487.4-.324.6-.757.6-1.3 0-.483-.165-.89-.496-1.22-.328-.33-.877-.637-1.642-.92-2.085-.777-3.128-1.916-3.128-3.414 0-.977.366-1.78 1.097-2.405.728-.625 1.7-.937 2.915-.937 1.084 0 1.984.188 2.702.564l-.477 1.555c-.671-.365-1.43-.548-2.28-.548-.67 0-1.195.165-1.57.495a1.413 1.413 0 0 0-.478 1.078c0 .47.182.859.548 1.164.318.283.895.59 1.732.92 1.024.412 1.777.894 2.26 1.446.484.554.725 1.243.725 2.067M103.112 22.489h-2.103v4.166c0 1.06.37 1.59 1.113 1.59.341 0 .625-.03.849-.088l.051 1.448c-.375.14-.87.21-1.483.21-.754 0-1.343-.229-1.768-.687-.422-.46-.636-1.23-.636-2.313v-4.326h-1.253v-1.431h1.253v-1.571l1.874-.566v2.137h2.103v1.43M110.621 25.34c0-.79-.17-1.47-.513-2.036-.4-.686-.972-1.027-1.713-1.027-.766 0-1.35.341-1.75 1.027-.342.567-.511 1.256-.511 2.072 0 .791.17 1.47.512 2.036.412.684.99 1.027 1.732 1.027.729 0 1.3-.348 1.713-1.045.353-.578.53-1.264.53-2.054zm1.98-.062c0 1.32-.377 2.402-1.13 3.25-.79.87-1.84 1.306-3.147 1.306-1.26 0-2.263-.418-3.011-1.254-.749-.835-1.123-1.89-1.123-3.16 0-1.33.385-2.42 1.157-3.267.77-.847 1.81-1.271 3.118-1.271 1.261 0 2.274.417 3.04 1.254.73.812 1.096 1.859 1.096 3.142zM118.802 22.735a3.31 3.31 0 0 0-.601-.052c-.671 0-1.19.253-1.556.76-.318.446-.477 1.011-.477 1.694v4.503h-1.907l.017-5.88c0-.99-.024-1.89-.071-2.702h1.663l.07 1.642h.051a2.93 2.93 0 0 1 .955-1.359c.424-.306.884-.46 1.38-.46.175 0 .335.013.476.036v1.818M125.516 24.448c.012-.565-.112-1.052-.37-1.466-.331-.529-.838-.794-1.521-.794-.624 0-1.131.259-1.519.777-.318.413-.507.907-.565 1.483h3.975zm1.819.495c0 .341-.022.63-.07.865h-5.724c.023.847.3 1.496.83 1.943.482.4 1.107.6 1.872.6.848 0 1.62-.136 2.316-.407l.299 1.324c-.813.354-1.772.53-2.879.53-1.331 0-2.377-.39-3.137-1.174-.758-.783-1.14-1.834-1.14-3.152 0-1.295.353-2.372 1.062-3.23.74-.92 1.742-1.378 3.002-1.378 1.238 0 2.175.459 2.811 1.377.505.73.758 1.631.758 2.702zM60.64 10.601c0-.767-.203-1.356-.61-1.766-.406-.41-1-.615-1.78-.615-.33 0-.614.023-.848.068v4.92c.13.02.367.028.712.028.806 0 1.428-.224 1.868-.673.438-.449.658-1.102.658-1.962zm1.111-.029c0 1.184-.354 2.076-1.063 2.674-.657.553-1.589.83-2.798.83-.598 0-1.112-.027-1.541-.078V7.527c.56-.09 1.163-.136 1.814-.136 1.15 0 2.019.25 2.604.751.655.566.984 1.376.984 2.43zM66.548 11.64c0-.436-.095-.811-.284-1.124-.22-.38-.535-.569-.944-.569-.424 0-.745.19-.967.569-.187.313-.282.694-.282 1.144 0 .437.095.813.282 1.127.229.377.546.566.956.566.404 0 .718-.192.946-.577.195-.32.293-.698.293-1.135zm1.093-.034c0 .73-.209 1.327-.625 1.796-.436.482-1.014.723-1.736.723-.695 0-1.25-.23-1.662-.694-.412-.461-.62-1.044-.62-1.746 0-.736.213-1.337.639-1.806.426-.469.999-.702 1.72-.702.697 0 1.255.231 1.678.693.403.449.606 1.028.606 1.736zM75.538 9.274l-1.483 4.743h-.964l-.615-2.06a15.356 15.356 0 0 1-.381-1.532h-.018a11.19 11.19 0 0 1-.381 1.533l-.654 2.059h-.975l-1.394-4.743h1.083l.535 2.254c.13.534.238 1.041.323 1.523h.018c.079-.396.208-.901.391-1.513l.673-2.264h.857l.644 2.216c.156.54.283 1.06.38 1.561h.03c.07-.488.179-1.008.322-1.561l.575-2.216h1.034M80.999 14.017h-1.053v-2.716c0-.838-.318-1.256-.955-1.256a.95.95 0 0 0-.761.346c-.195.23-.293.501-.293.813v2.813h-1.053v-3.386c0-.417-.013-.869-.039-1.357h.926l.05.742h.029c.122-.23.305-.422.545-.573a1.77 1.77 0 0 1 .955-.266c.443 0 .81.143 1.103.43.364.35.546.874.546 1.57v2.84M82.852 7.098h1.052v6.919h-1.052zM89.013 11.64c0-.436-.095-.811-.283-1.124-.22-.38-.537-.569-.945-.569-.424 0-.746.19-.966.569-.188.313-.282.694-.282 1.144 0 .437.094.813.282 1.127.228.377.546.566.956.566.403 0 .717-.192.945-.577.196-.32.293-.698.293-1.135zm1.093-.034c0 .73-.208 1.327-.624 1.796-.436.482-1.015.723-1.736.723-.697 0-1.25-.23-1.663-.694-.412-.461-.618-1.044-.618-1.746 0-.736.212-1.337.637-1.806.427-.469 1-.702 1.72-.702.698 0 1.255.231 1.68.693.402.449.604 1.028.604 1.736zM94.111 12.387v-.731c-1.162-.02-1.743.299-1.743.955 0 .248.066.433.202.557a.737.737 0 0 0 .515.185c.231 0 .447-.072.643-.22a.894.894 0 0 0 .383-.746zm1.094 1.63h-.946l-.08-.546h-.029c-.323.435-.785.654-1.384.654-.447 0-.808-.143-1.081-.43a1.35 1.35 0 0 1-.371-.966c0-.58.24-1.021.726-1.328.485-.305 1.166-.455 2.044-.449v-.087c0-.625-.328-.937-.984-.937-.468 0-.88.117-1.235.351l-.214-.693c.44-.272.983-.41 1.626-.41 1.238 0 1.86.655 1.86 1.963v1.746c0 .475.023.852.068 1.132zM100.1 12.017v-.79a1.201 1.201 0 0 0-.41-.97 1.03 1.03 0 0 0-.706-.26c-.393 0-.7.156-.926.467-.225.313-.338.713-.338 1.2 0 .47.107.85.324 1.143.228.312.535.468.92.468.346 0 .623-.13.833-.39a1.3 1.3 0 0 0 .302-.868zm1.09 2h-.934l-.048-.762h-.03c-.299.58-.807.87-1.521.87-.572 0-1.047-.225-1.424-.673-.377-.45-.566-1.032-.566-1.748 0-.768.204-1.39.615-1.863.397-.443.883-.664 1.463-.664.635 0 1.082.214 1.335.644h.02V7.098h1.054v5.641c0 .462.012.888.037 1.278zM109.109 11.64c0-.436-.094-.811-.282-1.124-.223-.38-.536-.569-.947-.569-.422 0-.744.19-.966.569-.188.313-.283.694-.283 1.144 0 .437.095.813.283 1.127.228.377.545.566.957.566.402 0 .718-.192.946-.577.194-.32.292-.698.292-1.135zm1.092-.034c0 .73-.208 1.327-.625 1.796-.436.482-1.013.723-1.736.723-.694 0-1.248-.23-1.662-.694-.412-.461-.618-1.044-.618-1.746 0-.736.212-1.337.638-1.806.425-.469 1-.702 1.722-.702.694 0 1.254.231 1.676.693.403.449.605 1.028.605 1.736zM115.865 14.017h-1.052v-2.716c0-.838-.318-1.256-.956-1.256a.946.946 0 0 0-.76.346c-.194.23-.293.501-.293.813v2.813h-1.054v-3.386c0-.417-.012-.869-.037-1.357h.924l.05.742h.029c.123-.23.306-.422.546-.573.286-.178.605-.266.956-.266.442 0 .809.143 1.101.43.365.35.546.874.546 1.57v2.84M122.955 10.064h-1.161v2.304c0 .586.206.878.615.878.188 0 .345-.016.469-.049l.028.8c-.208.078-.482.118-.82.118-.416 0-.74-.127-.973-.38-.236-.255-.351-.68-.351-1.28v-2.39h-.694v-.79h.694v-.87l1.032-.312v1.181h1.161v.79M128.532 14.017h-1.054v-2.696c0-.85-.318-1.276-.954-1.276-.489 0-.823.246-1.006.74-.03.104-.048.23-.048.38v2.852h-1.052V7.098h1.052v2.858h.02c.33-.52.806-.78 1.423-.78.436 0 .797.144 1.083.43.358.357.536.889.536 1.59v2.821M133.28 11.148a1.423 1.423 0 0 0-.204-.81c-.183-.293-.462-.439-.839-.439a1 1 0 0 0-.838.43 1.593 1.593 0 0 0-.313.819h2.194zm1.005.273c0 .19-.014.348-.04.478h-3.159c.014.469.165.826.458 1.074.267.221.613.332 1.035.332.467 0 .893-.075 1.278-.225l.164.732c-.449.195-.977.294-1.59.294-.734 0-1.31-.217-1.729-.65-.42-.433-.628-1.014-.628-1.742 0-.715.194-1.31.585-1.786.408-.508.96-.761 1.657-.761.681 0 1.199.253 1.549.761.28.404.42.902.42 1.493z"/></g></g></svg>