<svg width="164" height="40" viewBox="0 0 164 40" xmlns="http://www.w3.org/2000/svg"><title>Group 8</title><defs><linearGradient x1="60.288%" y1="92.196%" x2="33.702%" y2="-58.929%" id="a"><stop stop-color="#D7E69D" offset="0%"/><stop stop-color="#94C4AA" offset="44.56%"/><stop stop-color="#01A4B6" offset="100%"/></linearGradient><linearGradient x1="-32.527%" y1="-131.136%" x2="79.832%" y2="114.944%" id="b"><stop stop-color="#ED277B" offset="0%"/><stop stop-color="#EE2F7C" offset="1.92%"/><stop stop-color="#F7BD81" offset="70.39%"/><stop stop-color="#FEEB74" offset="100%"/></linearGradient><linearGradient x1="51.044%" y1="74.885%" x2="-.008%" y2="-29.356%" id="c"><stop stop-color="#89CFBD" offset="0%"/><stop stop-color="#7DBEBB" offset="9.07%"/><stop stop-color="#457CAC" offset="53.96%"/><stop stop-color="#1C5AA2" offset="85.23%"/><stop stop-color="#084D9F" offset="100%"/></linearGradient><linearGradient x1="119.623%" y1="35.223%" x2="-22.942%" y2="60.77%" id="d"><stop stop-color="#F04A2B" offset="0%"/><stop stop-color="#B54F6B" offset="47.04%"/><stop stop-color="#8B5191" offset="83.53%"/><stop stop-color="#7851A1" offset="100%"/></linearGradient></defs><g fill="none" fill-rule="evenodd"><rect fill="#000" width="164" height="40" rx="2"/><g fill="#FFF"><path d="M102.686 28.408l-.871.805c-.201.134-.402.201-.603.336-.604.268-1.207.335-1.743.335s-1.474-.067-2.345-.67c-1.273-.873-1.81-2.415-1.81-3.757 0-2.75 2.212-4.09 4.088-4.09.67 0 1.273.133 1.81.469.87.603 1.139 1.341 1.273 1.744l-4.155 1.676-1.34.134c.469 2.28 1.943 3.555 3.618 3.555.872 0 1.475-.268 2.078-.537 0 0 .134-.067 0 0zm-2.48-4.493c.335-.134.536-.201.536-.47 0-.737-.804-1.542-1.742-1.542-.737 0-2.01.536-2.01 2.481 0 .269.067.604.067.94l3.15-1.41z"/><path d="M93.974 28.274c0 .67.135.805.738.872.335.067.603.067.938.067l-.67.403h-3.15c.402-.537.47-.604.47-.94V17.745h-1.408l1.34-.67h2.547c-.536.335-.738.537-.805 1.14v10.06z"/><path d="M89.15 22.238c.402.335 1.273 1.073 1.273 2.415 0 1.34-.737 1.945-1.474 2.548-.201.201-.47.47-.47.872s.269.604.47.738l.67.47c.804.67 1.474 1.274 1.474 2.48 0 1.677-1.608 3.354-4.69 3.354-2.547 0-3.82-1.207-3.82-2.548 0-.671.335-1.543 1.34-2.147 1.072-.67 2.613-.737 3.417-.804-.268-.336-.536-.671-.536-1.208 0-.268.067-.47.201-.67-.2 0-.402.067-.536.067-1.876 0-2.948-1.409-2.948-2.817 0-.805.402-1.744 1.14-2.347 1.004-.805 2.21-1.006 3.149-1.006h3.685l-1.14.67-1.205-.067zm-1.273 7.847h-.402c-.135 0-1.14.067-1.877.268-.402.134-1.541.537-1.541 1.811s1.206 2.146 3.15 2.146c1.675 0 2.613-.805 2.613-1.945 0-.804-.603-1.274-1.943-2.28zm.536-3.353c.402-.403.469-1.006.469-1.275 0-1.274-.737-3.286-2.212-3.286-.469 0-.938.201-1.273.604a2.42 2.42 0 0 0-.402 1.341c0 1.207.67 3.152 2.211 3.152.47-.067.939-.268 1.207-.536zM78.16 29.817c-2.814 0-4.356-2.213-4.356-4.158 0-2.348 1.877-4.293 4.624-4.293 2.614 0 4.222 2.012 4.222 4.158 0 2.08-1.608 4.293-4.49 4.293zm2.211-1.409c.403-.536.537-1.274.537-1.945 0-1.542-.738-4.56-2.949-4.56-.603 0-1.206.201-1.608.603-.67.604-.804 1.409-.804 2.147 0 1.743.87 4.627 3.015 4.627a1.934 1.934 0 0 0 1.81-.872zM68.712 29.817c-2.815 0-4.356-2.213-4.356-4.158 0-2.348 1.876-4.293 4.624-4.293 2.613 0 4.221 2.012 4.221 4.158 0 2.08-1.608 4.293-4.49 4.293zm2.211-1.409c.402-.536.536-1.274.536-1.945 0-1.542-.737-4.56-2.948-4.56a2.4 2.4 0 0 0-1.609.603c-.67.604-.804 1.409-.804 2.147 0 1.743.871 4.627 3.016 4.627a1.934 1.934 0 0 0 1.81-.872zM63.284 29.213l-2.345.537c-.939.134-1.81.268-2.748.268-4.557 0-6.299-3.353-6.299-6.036 0-3.22 2.48-6.237 6.701-6.237.871 0 1.742.134 2.547.335 1.273.335 1.809.805 2.21 1.006l-1.406 1.341-.603.134.402-.67c-.536-.537-1.609-1.543-3.552-1.543-2.613 0-4.624 2.012-4.624 4.896 0 3.152 2.279 6.036 5.897 6.036 1.073 0 1.609-.201 2.078-.402v-2.683l-2.48.134 1.34-.737h3.552l-.402.402c-.134.067-.134.134-.134.268v.805l-.134 2.146z"/><g><path d="M107.846 28.475v4.494h-.939V21.5h.872v1.342c.603-.872 1.675-1.543 2.881-1.543 2.211 0 3.753 1.677 3.753 4.36 0 2.682-1.475 4.359-3.753 4.359-1.14.067-2.144-.537-2.814-1.543zm5.628-2.816c0-2.012-1.072-3.555-2.881-3.555-1.14 0-2.278.939-2.747 1.677v3.688c.469.805 1.608 1.744 2.747 1.744 1.81 0 2.881-1.542 2.881-3.554zM115.686 29.817V18.348h.87v11.469zM126.608 32.298c.201.067.536.134.737.134.537 0 .939-.2 1.274-1.006l.67-1.475-3.552-8.384h1.005l3.016 7.244 3.015-7.244h1.005l-4.288 10.128c-.47 1.073-1.14 1.542-2.145 1.542-.268 0-.67-.067-.87-.134l.133-.805zM123.995 29.817c-.067-.268-.134-.537-.134-.738 0-.201-.067-.402-.067-.67-.335.469-.737.804-1.273 1.14-.536.268-1.072.469-1.81.469-.87 0-1.54-.201-2.01-.67-.469-.403-.737-1.007-.737-1.744 0-.738.335-1.342 1.072-1.811.67-.47 1.608-.67 2.748-.67h2.077v-1.007c0-.604-.201-1.073-.603-1.408-.402-.336-1.005-.537-1.742-.537-.67 0-1.207.134-1.676.47-.402.335-.603.67-.603 1.14h-.938v-.067c0-.604.268-1.208.871-1.677.603-.47 1.407-.738 2.413-.738 1.005 0 1.742.268 2.345.738.603.47.871 1.14.871 2.012v4.091c0 .268 0 .604.067.872s.067.537.201.805h-1.072zm-3.15-.67c.738 0 1.34-.202 1.877-.537.536-.336.938-.738 1.139-1.275v-1.61h-2.077c-.804 0-1.475.202-2.01.537-.537.336-.805.805-.805 1.274 0 .47.201.872.536 1.14.268.336.737.47 1.34.47z"/></g></g><g fill="#FFF"><path d="M51.892 8.892c0-1.744 1.34-2.884 2.949-2.884 1.072 0 1.809.536 2.278 1.14l-.804.47c-.335-.403-.804-.738-1.474-.738-1.14 0-1.944.872-1.944 2.012 0 1.14.804 2.012 1.944 2.012.603 0 1.072-.269 1.34-.537v-.805h-1.675v-.871h2.68v2.079a3.024 3.024 0 0 1-2.278 1.006c-1.743.067-3.016-1.073-3.016-2.884zM58.325 11.709V6.075h3.82v.872h-2.882v1.475h2.815v.872h-2.815v1.543h2.882v.872zM64.892 11.709V6.947h-1.675v-.872h4.356v.872h-1.676v4.762zM70.99 11.709V6.075h1.005v5.634zM74.743 11.709V6.947h-1.676v-.872h4.356v.872h-1.675v4.762zM80.572 8.892c0-1.677 1.207-2.884 2.882-2.884s2.881 1.207 2.881 2.884c0 1.676-1.206 2.884-2.881 2.884-1.675.067-2.882-1.208-2.882-2.884zm4.758 0c0-1.14-.737-2.012-1.876-2.012-1.14 0-1.876.872-1.876 2.012 0 1.14.737 2.012 1.876 2.012 1.14.067 1.876-.805 1.876-2.012zM91.361 11.709l-2.948-4.024v4.024h-1.005V6.075h1.005l2.881 3.89v-3.89H92.3v5.634z"/></g><path d="M40.408 19.764l2.881-2.884-2.881 2.884-9.18-9.189 9.18 9.189-9.18 9.255 9.18-9.255 2.948 2.884z"/><path d="M13.134 6.707L1.944.537a1.056 1.056 0 0 0-.872-.135l9.18 9.189 2.882-2.884z" fill="url(#a)" transform="translate(30.155 10.173)"/><path d="M13.201 12.475l3.82-2.08c.804-.402.804-1.14 0-1.542l-3.82-2.08-2.881 2.885 2.881 2.817z" fill="url(#b)" transform="translate(30.155 10.173)"/><path d="M1.072.402C.737.537.536.872.536 1.408V17.84c0 .536.201.872.536.939l9.18-9.188L1.073.402z" fill="url(#c)" transform="translate(30.155 10.173)"/><path d="M1.072 18.846c.268.067.536.067.871-.134l11.191-6.17-2.881-2.884-9.18 9.188z" fill="url(#d)" transform="translate(30.155 10.173)"/></g></svg>