<svg id="Layer_1" data-name="Layer 1" xmlns="http://www.w3.org/2000/svg" viewBox="0 0 134 134">
  <title>Cancer</title>
  <g>
    <circle cx="66.94" cy="66.94" r="67" fill="#edf1ff"/>
    <g>
      <path d="M66,9.72C90.92,9.72,92.51,26.35,93,32.18c-4.35-3.31-16.71-10-25.71-10S44.72,26.35,43.8,35.48C45.09,30.58,41.16,9.72,66,9.72Z" fill="#fff" stroke="#66687a" stroke-miterlimit="10" stroke-width="2"/>
      <path d="M39.19,36.93s0,.08,0,.11a92.44,92.44,0,0,0,10.86,31.4,79.8,79.8,0,0,0,9.68,13.73c2.49,2.8,5.18,5.43,7.54,8.34s4.14,6.49,7,9c2.26,1.94,4.65,3.82,6.94,5.67a91.37,91.37,0,0,1,7.46,6.52,34,34,0,0,0,6.55,5.15c4.08,2.44,5.39.81,9-1.84,2-1.52,8.7-6.35,5.42-9.39-3.75-3.48-16.82-14.76-23-20C71.75,72.89,65.61,63.86,58.08,49.79c-4.79-9-11-18.63-11.49-29.08a10.29,10.29,0,0,1,0-1.57c0,.58-.83,1.48-1.12,2-.43.73-.85,1.46-1.25,2.2C42.2,27.05,38.59,32.49,39.19,36.93Z" fill="#fff" stroke="#66687a" stroke-miterlimit="10" stroke-width="2"/>
      <path d="M96.09,37a36.57,36.57,0,0,1-1.51,10C90,63,81.87,76.44,71.39,89.28c-6.66,8.16-14.91,14.44-23.25,20.79-3.71,2.83-9.75,8.52-11.56,7.69-1.3-.6-12.92-9.28-12.31-10.23C27.89,102,41.94,94.45,48,89.14A141.87,141.87,0,0,0,83.41,41.93a65.71,65.71,0,0,0,6-24,32.53,32.53,0,0,1,3.29,5.23c.73,1.59,1.75,3.6,2.32,5.26A24.07,24.07,0,0,1,96.09,37Z" fill="#ff8586"/>
    </g>
  </g>
</svg>
