<?xml version="1.0" encoding="UTF-8" standalone="no"?>
<svg width="123px" height="94px" viewBox="0 0 123 94" version="1.1" xmlns="http://www.w3.org/2000/svg" xmlns:xlink="http://www.w3.org/1999/xlink">
    <!-- Generator: sketchtool 41.1 (35376) - http://www.bohemiancoding.com/sketch -->
    <title>A2CBA758-4FB9-46AD-814D-989578D280AB</title>
    <desc>Created with sketchtool.</desc>
    <defs></defs>
    <g id="Page-1" stroke="none" stroke-width="1" fill="none" fill-rule="evenodd">
        <g id="Concent-forms---empty-state" transform="translate(-710.000000, -288.000000)">
            <g id="Page-1" transform="translate(710.000000, 288.000000)">
                <path d="M77.1268128,44.549838 L57.0910398,44.549838 C55.8261197,44.549838 54.8739195,43.4042707 54.8739195,42.0512285 C54.8739195,40.45889 56.1886195,39.4584279 57.7841292,39.4584279 L36.1885859,39.4584279 C37.7840956,39.4584279 39.0987956,40.45889 39.0987956,42.0512285 C39.0987956,43.4042707 38.1465954,44.549838 36.8816753,44.549838 L34.5917997,44.549838 C32.2444858,44.549838 29.3572514,47.0446289 29.3572514,49.2912136 L29.3572514,50.0396509 C29.3572514,52.2875084 32.33894,53.4598056 34.5917997,53.4598056 L77.1268128,53.4598056 C79.3809489,53.4598056 80.4135628,52.2875084 80.4135628,50.0396509 L80.4135628,49.2912136 C80.4135628,47.0446289 79.3809489,44.549838 77.1268128,44.549838 L77.1268128,44.549838 Z" id="Fill-1" fill="#35BFCC" opacity="0.29635028"></path>
                <path d="M90.1783377,30.5484603 L44.8262927,30.5484603 C43.2307829,30.5484603 41.9160829,28.911572 41.9160829,27.3192335 C41.9160829,25.9674641 42.8695595,24.1841978 44.1344796,24.1841978 L58.4417345,24.1841978 C60.7890484,24.1841978 62.5441091,22.79297 62.5441091,20.5451124 L62.5441091,19.7966752 C62.5441091,17.5488176 60.6945942,15.2742302 58.4417345,15.2742302 L3.98251993,15.2742302 C1.72838378,15.2742302 0.000127640778,17.5488176 0.000127640778,19.7966752 L0.000127640778,20.5451124 C0.000127640778,22.79297 1.72838378,24.1841978 3.98251993,24.1841978 L24.0170165,24.1841978 C25.2819366,24.1841978 26.2354133,25.9674641 26.2354133,27.3192335 C26.2354133,28.911572 24.9207132,30.5484603 23.3252035,30.5484603 L11.2120936,30.5484603 C8.86477971,30.5484603 6.38216657,32.2489913 6.38216657,34.4968488 L6.38216657,35.246559 C6.38216657,37.4931437 8.95923389,39.4584279 11.2120936,39.4584279 L90.1783377,39.4584279 C92.4324738,39.4584279 93.177896,37.4931437 93.177896,35.246559 L93.177896,34.4968488 C93.177896,32.2489913 92.4324738,30.5484603 90.1783377,30.5484603" id="Fill-3" fill="#E5E8EC" opacity="0.29635028"></path>
                <path d="M17.5970683,10.1828201 L37.6328413,10.1828201 C38.8977614,10.1828201 39.8499616,11.3283874 39.8499616,12.6814296 C39.8499616,14.2737681 38.5352616,15.2742302 36.9397519,15.2742302 L58.4421174,15.2742302 C56.8453313,15.2742302 55.5306313,14.2737681 55.5306313,12.6814296 C55.5306313,11.3283874 56.4841079,10.1828201 57.749028,10.1828201 L72.150737,10.1828201 C74.4035968,10.1828201 75.3085699,7.9986052 75.3085699,5.75074766 L75.3085699,5.00231038 C75.3085699,2.75445284 74.4035968,0 72.150737,0 L17.5970683,0 C15.3429321,0 12.7645884,2.75445284 12.7645884,5.00231038 L12.7645884,5.75074766 C12.7645884,7.9986052 15.3429321,10.1828201 17.5970683,10.1828201" id="Fill-5" fill="#E5E8EC" opacity="0.29635028"></path>
                <path d="M45.4083346,40.7312805 L65.4441076,40.7312805 C66.7090277,40.7312805 67.6612279,41.8768477 67.6612279,43.2298899 C67.6612279,44.8222284 66.3465279,45.8226905 64.7510182,45.8226905 L86.3465615,45.8226905 C84.7510518,45.8226905 83.4363518,44.8222284 83.4363518,43.2298899 C83.4363518,41.8768477 84.388552,40.7312805 85.6534721,40.7312805 L87.9433476,40.7312805 C90.2906616,40.7312805 93.177896,38.2364895 93.177896,35.9899048 L93.177896,35.2414676 C93.177896,32.99361 90.1962074,31.8213129 87.9433476,31.8213129 L45.4083346,31.8213129 C43.1541985,31.8213129 42.1215846,32.99361 42.1215846,35.2414676 L42.1215846,35.9899048 C42.1215846,38.2364895 43.1541985,40.7312805 45.4083346,40.7312805" id="Fill-7" fill="#35BFCC" opacity="0.29635028"></path>
                <path d="M32.3568097,54.7326581 L77.7088547,54.7326581 C79.3043645,54.7326581 80.6190645,56.3695465 80.6190645,57.9618849 C80.6190645,59.3136543 79.6655879,61.0969207 78.4006678,61.0969207 L64.0934129,61.0969207 C61.746099,61.0969207 59.9910383,62.4881485 59.9910383,64.736006 L59.9910383,65.4844433 C59.9910383,67.7323008 61.8405532,70.0068883 64.0934129,70.0068883 L118.552627,70.0068883 C120.806764,70.0068883 122.53502,67.7323008 122.53502,65.4844433 L122.53502,64.736006 C122.53502,62.4881485 120.806764,61.0969207 118.552627,61.0969207 L98.5181309,61.0969207 C97.2532107,61.0969207 96.2997341,59.3136543 96.2997341,57.9618849 C96.2997341,56.3695465 97.6144342,54.7326581 99.2099439,54.7326581 L111.323054,54.7326581 C113.670368,54.7326581 116.152981,53.0321272 116.152981,50.7842696 L116.152981,50.0345595 C116.152981,47.7879748 113.575914,45.8226905 111.323054,45.8226905 L32.3568097,45.8226905 C30.1026736,45.8226905 29.3572514,47.7879748 29.3572514,50.0345595 L29.3572514,50.7842696 C29.3572514,53.0321272 30.1026736,54.7326581 32.3568097,54.7326581" id="Fill-9" fill="#E5E8EC" opacity="0.29635028"></path>
                <path d="M104.938079,75.0982983 L84.9023061,75.0982983 C83.637386,75.0982983 82.6851858,73.9527311 82.6851858,72.5996889 C82.6851858,71.0073504 83.9998858,70.0068883 85.5953955,70.0068883 L64.09303,70.0068883 C65.6898161,70.0068883 67.0045161,71.0073504 67.0045161,72.5996889 C67.0045161,73.9527311 66.0510395,75.0982983 64.7861194,75.0982983 L50.3844104,75.0982983 C48.1315506,75.0982983 47.2265775,77.2825133 47.2265775,79.5303708 L47.2265775,80.2788081 C47.2265775,82.5266656 48.1315506,85.2811185 50.3844104,85.2811185 L104.938079,85.2811185 C107.192215,85.2811185 109.770559,82.5266656 109.770559,80.2788081 L109.770559,79.5303708 C109.770559,77.2825133 107.192215,75.0982983 104.938079,75.0982983" id="Fill-11" fill="#E5E8EC" opacity="0.29635028"></path>
                <path d="M88.3274187,87.3155186 L34.0800879,87.3155186 C31.5272723,87.3155186 29.3573791,85.1516694 29.3573791,82.6059643 L29.3573791,17.6904861 C29.3573791,15.1447811 31.5272723,12.9809318 34.0800879,12.9809318 L88.4550595,12.9809318 C91.0078751,12.9809318 93.1777683,15.1447811 93.1777683,17.6904861 L93.1777683,82.6059643 C93.1777683,85.2789546 91.0078751,87.3155186 88.3274187,87.3155186" id="Fill-13" fill="#FEFEFE"></path>
                <path d="M88.3274187,87.3155186 L34.0800879,87.3155186 C31.5272723,87.3155186 29.3573791,85.1516694 29.3573791,82.6059643 L29.3573791,17.6904861 C29.3573791,15.1447811 31.5272723,12.9809318 34.0800879,12.9809318 L88.4550595,12.9809318 C91.0078751,12.9809318 93.1777683,15.1447811 93.1777683,17.6904861 L93.1777683,82.6059643 C93.1777683,85.2789546 91.0078751,87.3155186 88.3274187,87.3155186 L88.3274187,87.3155186 Z" id="Stroke-15" stroke="#8290A4" stroke-width="1.5"></path>
                <path d="M71.9893991,8.27137749 L67.0114087,8.27137749 C67.0114087,5.08924621 64.4585932,2.54354118 61.2675737,2.54354118 C58.0765542,2.54354118 55.5237387,5.08924621 55.5237387,8.27137749 L50.5457483,8.27137749 C49.1416997,8.27137749 47.9929327,9.41694476 47.9929327,10.8170825 L47.9929327,14.5083548 C47.9929327,15.9084926 49.1416997,17.0540598 50.5457483,17.0540598 L71.9893991,17.0540598 C73.3934477,17.0540598 74.5422147,15.9084926 74.5422147,14.5083548 L74.5422147,10.8170825 C74.5422147,9.41694476 73.3934477,8.27137749 71.9893991,8.27137749" id="Fill-17" fill="#E5E8EC"></path>
                <path d="M71.9893991,8.27137749 L67.0114087,8.27137749 C67.0114087,5.08924621 64.4585932,2.54354118 61.2675737,2.54354118 C58.0765542,2.54354118 55.5237387,5.08924621 55.5237387,8.27137749 L50.5457483,8.27137749 C49.1416997,8.27137749 47.9929327,9.41694476 47.9929327,10.8170825 L47.9929327,14.5083548 C47.9929327,15.9084926 49.1416997,17.0540598 50.5457483,17.0540598 L71.9893991,17.0540598 C73.3934477,17.0540598 74.5422147,15.9084926 74.5422147,14.5083548 L74.5422147,10.8170825 C74.5422147,9.41694476 73.3934477,8.27137749 71.9893991,8.27137749 L71.9893991,8.27137749 Z" id="Stroke-19" stroke="#8290A4" stroke-width="1.5"></path>
                <path d="M64.7138747,7.76223649 L64.7138747,7.76223649 C64.7138747,6.10752822 63.3098262,4.83467571 61.7781368,4.83467571" id="Stroke-21" stroke="#FEFEFE" stroke-width="1.5" stroke-linecap="round" stroke-linejoin="round"></path>
                <path d="M63.4374669,14.7629253 L71.8617583,14.7629253" id="Stroke-23" stroke="#8290A4" stroke-width="1.5" stroke-linecap="round" stroke-linejoin="round"></path>
                <path d="M37.4464858,33.5484464 L51.7409765,33.5484464" id="Stroke-25" stroke="#8290A4" stroke-width="1.5" stroke-linecap="round" stroke-linejoin="round"></path>
                <path d="M56.2903492,33.5484464 L65.4792088,33.5484464" id="Stroke-27" stroke="#8290A4" stroke-width="1.5" stroke-linecap="round" stroke-linejoin="round"></path>
                <path d="M69.9479125,33.5484464 L84.2424033,33.5484464" id="Stroke-29" stroke="#8290A4" stroke-width="1.5" stroke-linecap="round" stroke-linejoin="round"></path>
                <path d="M37.4464858,40.930991 L46.3979336,40.930991" id="Stroke-31" stroke="#8290A4" stroke-width="1.5" stroke-linecap="round" stroke-linejoin="round"></path>
                <path d="M50.5382175,40.930991 L69.3090704,40.930991" id="Stroke-33" stroke="#8290A4" stroke-width="1.5" stroke-linecap="round" stroke-linejoin="round"></path>
                <path d="M72.303906,40.930991 L75.7578654,40.930991" id="Stroke-35" stroke="#8290A4" stroke-width="1.5" stroke-linecap="round" stroke-linejoin="round"></path>
                <path d="M37.4464858,48.3135356 L50.6253961,48.3135356" id="Stroke-37" stroke="#8290A4" stroke-width="1.5" stroke-linecap="round" stroke-linejoin="round"></path>
                <path d="M55.0601474,48.3135356 L66.96265,48.3135356" id="Stroke-39" stroke="#8290A4" stroke-width="1.5" stroke-linecap="round" stroke-linejoin="round"></path>
                <path d="M71.3972735,48.3135356 L82.0233683,48.3135356" id="Stroke-41" stroke="#8290A4" stroke-width="1.5" stroke-linecap="round" stroke-linejoin="round"></path>
                <path d="M37.4464858,63.3331953 L50.6253961,63.3331953" id="Stroke-43" stroke="#8290A4" stroke-width="1.5" stroke-linecap="round" stroke-linejoin="round"></path>
                <path d="M55.0601474,63.3331953 L66.96265,63.3331953" id="Stroke-45" stroke="#8290A4" stroke-width="1.5" stroke-linecap="round" stroke-linejoin="round"></path>
                <path d="M37.4464858,55.6960802 L53.1782117,55.6960802" id="Stroke-47" stroke="#8290A4" stroke-width="1.5" stroke-linecap="round" stroke-linejoin="round"></path>
                <path d="M57.2308064,55.6960802 L72.9625324,55.6960802" id="Stroke-49" stroke="#8290A4" stroke-width="1.5" stroke-linecap="round" stroke-linejoin="round"></path>
                <polygon id="Fill-51" fill="#FFFFFF" points="81.3875896 88.0265341 86.2379392 88.0265341 86.2379392 62.0603428 81.3875896 62.0603428"></polygon>
                <polygon id="Stroke-53" stroke="#8290A4" stroke-width="1.5" stroke-linecap="round" stroke-linejoin="round" points="81.3875896 88.0265341 86.2379392 88.0265341 86.2379392 62.0603428 81.3875896 62.0603428"></polygon>
                <path d="M84.4504577,92.3542326 L83.17405,92.3542326 C82.1529237,92.3542326 81.3870791,91.5905211 81.3870791,90.5722391 L81.3870791,88.0265341 L86.2374286,88.0265341 L86.2374286,90.5722391 C86.2374286,91.4632358 85.471584,92.3542326 84.4504577,92.3542326" id="Fill-54" fill="#F7F8F9"></path>
                <path d="M84.4504577,92.3542326 L83.17405,92.3542326 C82.1529237,92.3542326 81.3870791,91.5905211 81.3870791,90.5722391 L81.3870791,88.0265341 L86.2374286,88.0265341 L86.2374286,90.5722391 C86.2374286,91.4632358 85.471584,92.3542326 84.4504577,92.3542326 L84.4504577,92.3542326 Z" id="Stroke-55" stroke="#8290A4" stroke-width="1.5" stroke-linecap="round" stroke-linejoin="round"></path>
                <polygon id="Fill-56" fill="#FEFEFE" points="83.8122538 56.9689327 86.2374286 62.0603428 81.5147198 62.0603428"></polygon>
                <polygon id="Stroke-57" stroke="#8290A4" stroke-width="1.5" stroke-linecap="round" stroke-linejoin="round" points="83.8122538 56.9689327 86.2374286 62.0603428 81.5147198 62.0603428"></polygon>
                <path d="M83.8122538,62.0603428 L83.8122538,88.0265341" id="Stroke-58" stroke="#8290A4" stroke-width="1.5" stroke-linecap="round" stroke-linejoin="round"></path>
            </g>
        </g>
    </g>
</svg>