<svg xmlns="http://www.w3.org/2000/svg" xmlns:xlink="http://www.w3.org/1999/xlink" width="100" height="100"><defs><circle id="a" cx="50" cy="50" r="50"/><path id="c" d="M51.685.066H.075V57.29h51.61V.066z"/><path id="e" d="M0 .109v29.824h18.601V.109H0z"/></defs><g fill="none" fill-rule="evenodd"><mask id="b" fill="#fff"><use xlink:href="#a"/></mask><use fill="#699BFF" xlink:href="#a"/><g mask="url(#b)"><path fill="#2443DD" d="M77.894 93.867c.87 5.26 1.76 10.584 3.876 15.459.31.711.65 1.42 1.146 2.01.99 1.177 2.65 1.773 4.104 1.33.15-.046.299-.103.42-.205.214-.182.302-.473.376-.749.673-2.504 1.06-5.08 1.351-7.66.445-3.94.67-7.902.833-11.865-3.31 2.23-7.676 1.602-11.512.595-.277-.072-.591-.14-.83.021-.237.162-.206.648.08.655"/><g transform="translate(13.125 18.438)"><mask id="d" fill="#fff"><use xlink:href="#c"/></mask><path fill="#2443DD" d="M51.284 7.435a.838.838 0 0 0-.55-.398c-9.88-2.2-19.939-3.43-29.979-4.656l-8.274-1.01L2.061.096c-.289-.035-.597-.067-.86.064C.9.312.73.646.612.969.193 2.09.126 3.313.12 4.513c-.027 6.363 1.565 12.64 1.659 19.002.06 4.093-.5 8.164-.842 12.242C.304 43.293-.375 47.754.473 55.268c.042.37.088.75.256 1.082.613 1.21 2.293.959 3.62.818 15.017-1.59 29.005-.917 43.987-2.275.597-.054 1.315-.118 1.574-.67.098-.207.109-.445.117-.676l.372-9.923 1.222-32.562c.044-1.18.23-2.622-.337-3.627" mask="url(#d)"/></g><path fill="#2443DD" d="M70.187 71.747a1.293 1.293 0 0 0-.858-.17 288.886 288.886 0 0 1-34.916 3.072c-7.674.208-15.388.112-22.973 1.31a.972.972 0 0 0-.758.579c-.233.577.293 1.007.752 1.305l16.29 10.554c.494.32.99.64 1.533.864 1.507.62 3.209.436 4.826.24l11.728-1.42c13.57-1.64 27.175-3.289 40.475-6.445.227-.054.482-.128.589-.336-5.408-3.27-11.26-6.294-16.688-9.553"/><path fill="#1C3EB7" d="M28.825 89.755c5.964 1.132 11.99-1.015 17.99-1.933 2.785-.425 5.601-.586 8.407-.833 10.046-.886 19.958-2.886 29.875-4.735.495-.092 1.097-.147 1.412.248.19.238.207.567.215.873.111 4.051.16 8.104.15 12.157-.002.597-.015 1.23-.33 1.734-.406.65-1.197.918-1.929 1.13-18.478 5.367-38.25 4.305-56.957 8.791a91.677 91.677 0 0 1 .677-17.73"/><g transform="translate(10 77.188)"><mask id="f" fill="#fff"><use xlink:href="#e"/></mask><path fill="#507AEF" d="M.851.24C4.967 4.49 12.13 6.563 16.35 10.71c.617.606 1.913.774 2.202 1.59.239.675-.451 1.922-.416 2.637.245 4.983-.658 8.003-.413 12.986.019.373.029.776-.183 1.082-.46.667-.863 1.17-1.584.805C11.477 27.547 7 22.87 2.522 20.608c-.895-.452-1.854-.97-2.264-1.888-.256-.571-.26-1.22-.258-1.847C.014 11.14.093 7.82.041 2.087.024.197.664-.122.851.24" mask="url(#f)"/></g><path fill="#8CE6F4" d="M28.965 81.356c.218 1.214.519 2.413.9 3.582.04.12.086.247.187.317.118.082.273.06.413.034a246.58 246.58 0 0 0 10.32-2.108c.196-.045.43-.13.462-.336a.545.545 0 0 0-.047-.26l-1.259-3.522c-3.554 1.436-7.399 1.855-11.191 2.261"/><path fill="#507AEF" d="M28.15 81.831l-1.159 1.858c-.073.117-.15.263-.1.395.025.07.081.118.135.164a227.1 227.1 0 0 0 1.856 1.549c.137.113.35.216.453.064.055-.08.042-.193.027-.292l-.461-2.992c-.04-.26-.084-.53-.223-.742-.14-.213-.405-.346-.616-.23"/><path fill="#DD403C" d="M31.812 48.493c-1.716-.215-3.398.502-4.982 1.204-.464.205-.94.419-1.295.783-.39.4-.6.94-.791 1.468A62.675 62.675 0 0 0 21.38 66.32c-.114 1.015-.203 2.045-.044 3.054.16 1.008.592 2.005 1.367 2.66a8.147 8.147 0 0 1 3.393-3.11c.403-.196.831-.36 1.278-.376 1.084-.039 1.987.768 2.936 1.298.662.368 1.382.612 2.098.854 3.583 1.21 7.302 2.437 11.058 2.036.244-.026.495-.06.71-.181.254-.143.433-.391.58-.645.49-.85.704-1.827.931-2.783a76.286 76.286 0 0 1 1.76-6.226c.246-.747.506-1.498.921-2.165.223-.357.49-.69.65-1.08.182-.436.221-.917.255-1.39.133-1.863.213-3.767-.267-5.571-.111-.418-.258-.839-.537-1.167-.36-.421-.897-.642-1.43-.782-1.037-.273-2.163-.307-3.088-.855-.96-.57-1.606-1.642-2.655-2.019a3.125 3.125 0 0 0-.302 2.407c.056.196.132.404.065.597-.1.29-.455.378-.756.418-.932.124-1.89.188-2.807-.025-.916-.213-1.797-.738-2.265-1.563-.357-.63-.448-1.371-.565-2.087-.025-.157-.07-.338-.213-.404a.457.457 0 0 0-.267-.013c-.912.144-1.706.646-2.374 1.292"/><path fill="#C62026" d="M37.921 28.54c-1.06-.208-1.963-.913-3.003-1.207-2.026-.573-4.285.61-5.337 2.445-1.052 1.837-1.032 4.154-.348 6.159.55 1.612 1.498 3.077 1.926 4.727-.844.058-1.255 1.214-.873 1.974.383.76 1.242 1.146 2.066 1.335.466.107.986.16 1.393-.09.84-.521.573-1.797.23-2.729-.4-1.09-.76-2.316-.308-3.385.623-1.473 2.428-1.933 3.983-2.26 1.555-.328 3.36-.945 3.786-2.488a44.916 44.916 0 0 1 1.699 5.891c2.098-1.868 2.266-5.205 1.294-7.851-.497-1.353-1.303-2.668-2.564-3.35-1.26-.682-3.037-.524-3.883.639"/><path fill="#C62026" d="M37.679 28.558c-.952-.214-1.763-.761-2.67-1.098a4.375 4.375 0 0 0-2.336-.196c-1.527.284-2.903 1.303-3.68 2.648-.904 1.566-1.041 3.475-.69 5.224.423 2.103 1.7 3.884 2.263 5.938l.157-.279c-1.421.204-1.441 2.08-.579 2.909.85.816 3.077 1.594 3.832.275.33-.576.223-1.322.062-1.933-.26-.992-.747-1.912-.704-2.968.088-2.132 2.386-2.682 4.071-3.05 1.586-.345 3.446-.944 3.985-2.668h-.435a46.976 46.976 0 0 1 1.717 5.946c.039.175.259.21.377.1 2.322-2.136 2.356-5.757 1.223-8.513-.573-1.394-1.52-2.78-2.973-3.341-1.292-.499-2.893-.26-3.778.872-.177.227.14.55.32.32.862-1.102 2.46-1.245 3.651-.609 1.314.7 2.112 2.116 2.574 3.488.84 2.493.701 5.588-1.336 7.462l.377.1a46.993 46.993 0 0 0-1.717-5.946c-.075-.207-.365-.222-.435 0-.584 1.868-2.862 2.133-4.47 2.533-1.394.346-2.962.956-3.456 2.452-.297.899-.101 1.876.178 2.752.246.773.75 1.745.464 2.578-.396 1.15-2.113.57-2.853.102-.47-.298-.857-.762-.835-1.35.02-.528.32-.996.86-1.073.121-.017.187-.173.158-.28-.484-1.765-1.505-3.312-2.04-5.057-.533-1.744-.578-3.735.235-5.402.692-1.42 2.037-2.512 3.596-2.793 1.806-.325 3.103.92 4.767 1.295.283.064.404-.374.12-.438"/><path fill="#FFCF67" d="M33.49 40.27a27.33 27.33 0 0 0 1.617 1.763c.746.745 1.565 1.465 2.566 1.822 1 .357 2.227.279 3-.438.45-.415.7-.992.915-1.559.52-1.371.897-2.81.912-4.273.014-1.462-.354-2.955-1.218-4.148-.763 1.035-2.074 1.515-3.324 1.875-1.25.36-2.574.686-3.536 1.546-.963.86-1.804 2.465-.931 3.413"/><path fill="#FFCF67" d="M35.516 42.813a11.209 11.209 0 0 1-.908 4.247c-.113.263-.238.533-.233.817.005.263.121.51.235.75.288.602.583 1.216 1.048 1.709.955 1.014 2.518 1.364 3.937 1.18.684-.09 1.455-.387 1.622-1.022.097-.367-.04-.749-.165-1.108a23.025 23.025 0 0 1-1.165-5.154c-1.507.225-3.286-.403-4.371-1.42"/><path fill="#FF954D" d="M37.511 39.395c-.244 1.47 3.686 1.137 3.043-.74-.131-.383-.747-.218-.614.168.148.432-.256.677-.623.78-.067.02-1.219.121-1.192-.04.066-.397-.547-.569-.614-.168m-1.247 1.33c.391 1.488 2.752 1.936 3.65.898.264-.303-.142-.778-.405-.474-.576.664-2.433.38-2.692-.602-.108-.412-.662-.236-.553.178m-2.009 7.088a4.264 4.264 0 0 0 1.927 3.177c1.086.694 2.5.858 3.718.431.602-.211 1.226-.684 1.19-1.316.325 1.17.563 2.365.71 3.57.052.427.093.858.067 1.288-.048.795-.32 1.557-.534 2.325-.643 2.315-.753 4.738-1.153 7.106-.235 1.395-.578 2.788-1.236 4.043.146-1.1.135-2.219-.03-3.316a17.298 17.298 0 0 0-.478-2.12c-1.027-3.635-2.683-7.06-4.254-10.498-.17-.372-.34-.75-.403-1.153-.055-.357-.023-.722.021-1.08.1-.82.261-1.631.48-2.427"/><path fill="#FFB380" d="M34.604 47.188c-.808 2.325.104 5.2 1.157 7.424 1.039 2.193 2.194 4.345 2.92 6.662.725 2.316.999 4.856.246 7.163.164-1.086-.38-2.14-.906-3.102-1.031-1.89-2.094-3.819-3.7-5.247-.414-.37-.867-.707-1.195-1.157a2.814 2.814 0 0 1-.46-2.266c.105-.444.312-.931.088-1.328-.145-.257-.432-.39-.678-.553-1.222-.815-1.49-2.498-1.447-3.971.013-.443.045-.893.202-1.306.512-1.35 2.377-1.975 3.773-2.32"/><path fill="#FFB380" d="M38.75 69.063a31.483 31.483 0 0 0 5.145-7.862c.226-.495.442-1.056.254-1.566-.228-.621-1.009-1.023-.995-1.682.008-.412.333-.74.595-1.064 1.054-1.3 1.279-3.062 1.248-4.72-.017-.926-.13-1.923-.762-2.616-.844-.925-2.313-1-3.33-1.74-.179 1.387.47 2.736.689 4.118.343 2.167-.376 4.34-.727 6.507-.54 3.337-.64 7.568-2.117 10.624"/><path fill="#7691DD" d="M48.178 60.408c-2.298 4.714-3.212 10.3-4.285 15.375a6.076 6.076 0 0 0-.125 1.752c.02.247.073.505.245.68.29.298.772.237 1.179.156l14.505-2.923c.628-.126 1.288-.268 1.77-.692.646-.567.814-1.492.944-2.344l1.289-8.433c.074-.484.117-1.061-.253-1.382-.181-.158-.426-.215-.66-.267a301.27 301.27 0 0 0-13.25-2.624 1.272 1.272 0 0 0-1.36.702"/><path fill="#7691DD" d="M44.364 78.438a9.742 9.742 0 0 1-3.208-.847 21.292 21.292 0 0 1-1.623-.866l-.747-.427c-.597-.34-1.194-.682-1.79-1.023-.058-.033-.122-.078-.121-.143.002-.09.12-.122.21-.129 2.23-.173 4.465-.346 6.702-.311l-.046 1.987c-.011.507.009 1.087.404 1.412.115.093.273.21.22.347"/><path fill="#FFCF67" d="M22.5 71.55c2.809 1.424 5.857 2.425 8.981 2.56.843.036 1.687.01 2.53.057 2.414.137 4.754.877 7.072 1.59.54.165 1.17.316 1.627-.023.463-.342.521-1.074.26-1.598-.26-.523-.758-.874-1.262-1.147-2.671-1.449-5.92-1.31-8.653-2.631-.683-.33-1.323-.746-1.991-1.106a13.546 13.546 0 0 0-3.765-1.357c-.355-.07-.725-.127-1.074-.033-.317.086-.592.287-.858.485-1.076.798-2.361 1.937-2.867 3.203m50.779-26.894c-.607 2.24-1.927 4.293-2.024 6.62-.087 2.105.936 4.225 2.603 5.39.576.402 1.225.702 1.719 1.21.494.509.801 1.325.485 1.972a27.65 27.65 0 0 0 3.715.14c.177-.005.374-.022.49-.162.13-.157.1-.393.072-.599-.316-2.296.584-4.555 1.146-6.798.562-2.245.694-4.918-.825-6.599-.705-.78-1.673-1.23-2.634-1.597-1.45-.556-3.327-.86-4.318.386"/><path fill="#FF954D" d="M78.584 40.736c-2.973-.733-4.379-1.613-5.986 1.168-1.27 2.198-2.695 5.548-1.557 7.829 1.095 2.196 2.37 4.385 4.28 5.803 1.91 1.417 4.6 1.886 6.55.534 1.577-1.093 2.381-3.16 2.489-5.169.108-2.009-.384-3.994-.909-5.926-.33-1.218-.696-2.47-1.474-3.425-.778-.954-2.084-1.533-3.174-1.041M71.38 60.905c-3.525 2.776-5.007 7.386-6.304 11.713-.428 1.428-.86 2.914-.643 4.39.218 1.477.217 2.155 1.684 2.295.53.05 2.15.714 2.657.874 1.256.398 1.438 2.096 1.383 3.427L69.58 97.47c-.064 1.552-.059 3.299 1.022 4.402.834.852 2.091 1.078 3.266 1.234 3.173.42 6.372.635 9.572.645 2.368.006 5.035-.24 6.552-2.082 1.37-1.662 1.322-4.054 1.203-6.217l-.826-15.089c-.367-6.713-.845-13.78-4.496-19.395-.464-.714-1.004-1.42-1.76-1.8-.611-.307-1.31-.372-1.993-.393-3.654-.11-7.69.09-10.74 2.131"/><path fill="#FFCF67" d="M66.58 79.375c-.87 2.91.166 6.742.966 8.363.57 1.153 2.076 1.402 2.72.323.284-.476.296-1.097.297-1.678.004-1.604.058-3.367.062-4.971-1.39-1.905-2.26-1.212-4.045-2.037"/></g></g></svg>