<?xml version="1.0" encoding="UTF-8"?>
<svg width="68px" height="82px" viewBox="0 0 68 82" version="1.1" xmlns="http://www.w3.org/2000/svg" xmlns:xlink="http://www.w3.org/1999/xlink">
    <!-- Generator: Sketch 52.5 (67469) - http://www.bohemiancoding.com/sketch -->
    <title>Delhi</title>
    <desc>Created with Sketch.</desc>
    <defs>
        <path d="M5,28.5408377 L5,0.41015625 L61,0.41015625 L61,28.6769128 C63.870064,33.5276379 65.5172991,39.1875017 65.5172991,45.2320979 C65.5172991,63.2132628 50.9406849,77.7898771 32.9595199,77.7898771 C14.978355,77.7898771 0.401740729,63.2132628 0.401740729,45.2320979 C0.401740729,39.130891 2.0799747,33.4216568 5,28.5408377 Z" id="path-1"></path>
    </defs>
    <g id="Page-1" stroke="none" stroke-width="1" fill="none" fill-rule="evenodd">
        <g id="City-picker" transform="translate(-154.000000, -200.000000)">
            <g id="Delhi" transform="translate(154.000000, 200.000000)">
                <rect id="Rectangle" fill="#FFFFFF" x="0" y="0" width="68" height="82"></rect>
                <circle id="Oval-Copy-6" stroke="#3D6EB4" stroke-width="1.5" fill="#ECFAFE" cx="33.9951667" cy="47.8802215" r="33.2252475"></circle>
                <g id="group" transform="translate(1.000000, 2.589844)">
                    <g id="delhi-Clipped">
                        <mask id="mask-2" fill="white">
                            <use xlink:href="#path-1"></use>
                        </mask>
                        <g id="path-1"></g>
                        <g id="delhi" mask="url(#mask-2)">
                            <g transform="translate(8.000000, 3.000000)" id="Group">
                                <g transform="translate(0.000000, 0.644531)">
                                    <path d="M33.4359358,38.7100011 C33.4359358,34.3584404 29.7809072,30.8287451 25.2765197,30.8287451 C20.7761104,30.8287451 17.1250602,34.3584404 17.1250602,38.7100011 L1.58000004,38.7100011 L1.58000004,22.9100006 L48.9800013,22.9100006 L48.9800013,38.7100011 L33.4359358,38.7100011 Z" id="Stroke-3" stroke="#3D6EB4" stroke-width="1.5" fill="#FFFFFF"></path>
                                    <path d="M39.7117534,6.71449685 L45.0300012,6.71449685 L45.0300012,13.4300004 L25.6729881,13.4300004 L6.32000017,13.4300004 L6.32000017,6.71449685 L11.6402605,6.71449685 L11.6402605,2.65761195 L11.6402605,2.64553189 C14.4256739,2.58815163 19.5668145,2.29420365 21.7273212,1.2231055 C22.0211582,1.07713817 22.2878253,0.89593736 22.5575113,0.727823271 L22.5796497,0.715743217 C23.237764,0.283881276 24.3758791,0 25.6780196,0 C26.9711035,0 28.11425,0.283881276 28.7733706,0.715743217 L28.7945027,0.727823271 C29.0641887,0.89593736 29.3308558,1.07713817 29.6246928,1.2231055 C31.7831869,2.29420365 36.9253337,2.58815163 39.7117534,2.64553189 L39.7117534,2.65761195 L39.7117534,6.71449685 Z" id="Fill-5" stroke="#3D6EB4" stroke-width="1.5" fill="#FFFFFF" stroke-linejoin="round"></path>
                                    <path d="M13.4300004,30.021094 C13.4300004,31.3285294 12.3659856,32.3900009 11.0627313,32.3900009 C9.74964534,32.3900009 8.69000024,31.3285294 8.69000024,30.021094 C8.69000024,28.710379 9.74964534,27.6500008 11.0627313,27.6500008 C12.3659856,27.6500008 13.4300004,28.710379 13.4300004,30.021094 Z" id="Stroke-11" stroke="#3D6EB4" stroke-width="1.5" fill="#7EDCF7"></path>
                                    <path d="M41.0800011,30.021094 C41.0800011,31.3285294 40.0165886,32.3900009 38.7094546,32.3900009 C37.3979489,32.3900009 36.340001,31.3285294 36.340001,30.021094 C36.340001,28.710379 37.3979489,27.6500008 38.7094546,27.6500008 C40.0165886,27.6500008 41.0800011,28.710379 41.0800011,30.021094" id="Fill-13" stroke="#3D6EB4" stroke-width="1.5" fill="#FFFFFF"></path>
                                    <path d="M41.0800011,30.021094 C41.0800011,31.3285294 40.0165886,32.3900009 38.7094546,32.3900009 C37.3979489,32.3900009 36.340001,31.3285294 36.340001,30.021094 C36.340001,28.710379 37.3979489,27.6500008 38.7094546,27.6500008 C40.0165886,27.6500008 41.0800011,28.710379 41.0800011,30.021094 Z" id="Stroke-15" stroke="#3D6EB4" stroke-width="1.5" fill="#7EDCF7"></path>
                                    <path d="M48.9800013,16.9871472 C48.9800013,17.6408293 48.4886859,18.1700005 47.8820009,18.1700005 L2.67700588,18.1700005 C2.06932631,18.1700005 1.58000004,17.6408293 1.58000004,16.9871472 L1.58000004,14.6150004 C1.58000004,13.9613183 2.06932631,13.4300004 2.67700588,13.4300004 L47.8820009,13.4300004 C48.4886859,13.4300004 48.9800013,13.9613183 48.9800013,14.6150004 L48.9800013,16.9871472 Z" id="Fill-17" stroke="#3D6EB4" stroke-width="1.5" fill="#FFFFFF"></path>
                                    <path d="M48.9800013,16.9871472 C48.9800013,17.6408293 48.4886859,18.1700005 47.8820009,18.1700005 L2.67700588,18.1700005 C2.06932631,18.1700005 1.58000004,17.6408293 1.58000004,16.9871472 L1.58000004,14.6150004 C1.58000004,13.9613183 2.06932631,13.4300004 2.67700588,13.4300004 L47.8820009,13.4300004 C48.4886859,13.4300004 48.9800013,13.9613183 48.9800013,14.6150004 L48.9800013,16.9871472 Z" id="Stroke-19" stroke="#3D6EB4" stroke-width="1.5" fill="#FFFFFF"></path>
                                    <path d="M50.5600014,21.7043097 C50.5600014,22.3711016 50.0764422,22.9100006 49.4737167,22.9100006 L1.08923919,22.9100006 C0.487498552,22.9100006 0,22.3711016 0,21.7043097 L0,18.5856914 C0,17.9221788 0.487498552,17.3800005 1.08923919,17.3800005 L49.4737167,17.3800005 C50.0764422,17.3800005 50.5600014,17.9221788 50.5600014,18.5856914 L50.5600014,21.7043097 Z" id="Fill-21" stroke="#3D6EB4" stroke-width="1.5" fill="#FFFFFF"></path>
                                    <path d="M50.5600014,21.7043097 C50.5600014,22.3711016 50.0764422,22.9100006 49.4737167,22.9100006 L1.08923919,22.9100006 C0.487498552,22.9100006 0,22.3711016 0,21.7043097 L0,18.5856914 C0,17.9221788 0.487498552,17.3800005 1.08923919,17.3800005 L49.4737167,17.3800005 C50.0764422,17.3800005 50.5600014,17.9221788 50.5600014,18.5856914 L50.5600014,21.7043097 Z" id="Stroke-23" stroke="#3D6EB4" stroke-width="1.5" fill="#FFFFFF"></path>
                                    <polygon id="Stroke-35" stroke="#3D6EB4" stroke-width="1.5" fill="#FFFFFF" points="33.1800009 66.3600018 48.9800013 66.3600018 48.9800013 41.8700011 33.1800009 41.8700011"></polygon>
                                    <polygon id="Stroke-37" stroke="#3D6EB4" stroke-width="1.5" fill="#FFFFFF" points="1.58000004 66.3600018 17.3800005 66.3600018 17.3800005 41.8700011 1.58000004 41.8700011"></polygon>
                                    <path d="M33.8870239,42.0890982 L33.9700009,38.2181677 C33.9700009,33.5847889 30.0438283,30.0200008 25.2554286,30.0200008 C20.4723152,30.0200008 16.5900005,33.5847889 16.5900005,38.2181677 L16.5900005,42.0890982 L16.5900005,67.4677734 L33.8870239,67.4677734 L33.8870239,42.0890982 Z" id="Stroke-39" stroke="#3D6EB4" stroke-width="1.5"></path>
                                    <path d="M18.9600005,41.4820578 C18.9600005,42.1611561 18.4759029,42.7100011 17.8803162,42.7100011 L1.0816403,42.7100011 C0.484097604,42.7100011 0,42.1611561 0,41.4820578 L0,39.9334912 C0,39.2610726 0.484097604,38.7100011 1.0816403,38.7100011 L17.8803162,38.7100011 C18.4759029,38.7100011 18.9600005,39.2610726 18.9600005,39.9334912 L18.9600005,41.4820578 Z" id="Stroke-27" stroke="#3D6EB4" stroke-width="1.5" fill="#7EDCF7"></path>
                                    <path d="M18.9600005,66.2023982 C18.9600005,66.9021977 18.4759029,67.4677734 17.8803162,67.4677734 L1.0816403,67.4677734 C0.484097604,67.4677734 0,66.9021977 0,66.2023982 L0,64.6066257 C0,63.9137094 0.484097604,63.3458393 1.0816403,63.3458393 L17.8803162,63.3458393 C18.4759029,63.3458393 18.9600005,63.9137094 18.9600005,64.6066257 L18.9600005,66.2023982 Z" id="Stroke-27-Copy" stroke="#3D6EB4" stroke-width="1.5" fill="#7EDCF7"></path>
                                    <path d="M50.5600014,41.4820578 C50.5600014,42.1611561 50.0796918,42.7100011 49.4810167,42.7100011 L32.6760508,42.7100011 C32.0812887,42.7100011 31.6000009,42.1611561 31.6000009,41.4820578 L31.6000009,39.9334912 C31.6000009,39.2610726 32.0812887,38.7100011 32.6760508,38.7100011 L49.4810167,38.7100011 C50.0796918,38.7100011 50.5600014,39.2610726 50.5600014,39.9334912 L50.5600014,41.4820578 Z" id="Stroke-31" stroke="#3D6EB4" stroke-width="1.5" fill="#7EDCF7"></path>
                                    <path d="M50.5600014,66.2023982 C50.5600014,66.9021977 50.0796918,67.4677734 49.4810167,67.4677734 L32.6760508,67.4677734 C32.0812887,67.4677734 31.6000009,66.9021977 31.6000009,66.2023982 L31.6000009,64.6066257 C31.6000009,63.9137094 32.0812887,63.3458393 32.6760508,63.3458393 L49.4810167,63.3458393 C50.0796918,63.3458393 50.5600014,63.9137094 50.5600014,64.6066257 L50.5600014,66.2023982 Z" id="Stroke-31-Copy" stroke="#3D6EB4" stroke-width="1.5" fill="#7EDCF7"></path>
                                </g>
                            </g>
                        </g>
                    </g>
                </g>
            </g>
        </g>
    </g>
</svg>