<svg id="Layer_1" data-name="Layer 1" xmlns="http://www.w3.org/2000/svg" xmlns:xlink="http://www.w3.org/1999/xlink" viewBox="0 0 134 134">
  <defs>
    <clipPath id="clip-path">
      <circle cx="67" cy="67" r="67" fill="none"/>
    </clipPath>
  </defs>
  <title>Diabetes</title>
  <g>
    <circle cx="67" cy="67" r="67" fill="#edf1ff"/>
    <g clip-path="url(#clip-path)">
      <path d="M44.77,136.44c-.75-11-17.75-13.22-21.15-23.1C21.78,108,21.83,101,21.23,95.47c-.69-6.42-2.51-15.81,1.66-21.49,3.07-4.18,6.63.69,10.2-.15s5.28-4.72,8.12-6.8c4.48-3.29,7.75,2.55,11.73,3.58,6.69,1.74,6.92-5.67,11.79-7.66,4-1.62,4.89,2.64,7.85,4.12,6.48,3.25,6.06-6.92,6.06-10.43,0-3.1-.25-6.3,0-9.39.45-5.08.44-10.13.77-15.23.21-3.32.16-8,2.24-10.8.76-1,2.91-1.5,4.15-1.44C95,20.21,96.16,27,95.9,33.09c-.14,3.31,0,6.63-.08,9.94C95.6,53.29,95,63.34,95,73.57c0,7.17.64,14.34.56,21.49,0,1.82,1.88.2,2.46-.21a5.07,5.07,0,0,0,1.11-2.35c1.73-5.8,1.26-12.09,3.34-17.79,1.58-4.31,9-9.23,10.59-2.75,1.1,4.42.33,9.11.5,13.59.23,6.16,1.73,12.45.83,18.6-1.36,9.12-11,11.65-17.22,16.54-3.33,2.6-11.4,7.52-8.58,11.75" fill="#fff" stroke="#66687a" stroke-miterlimit="10" stroke-width="2"/>
    </g>
    <path d="M105,44.62c0,8.54-4.68,12-10.45,12s-10.44-3.5-10.44-12,10.44-18.9,10.44-18.9S105,36.07,105,44.62Z" fill="#ff8586"/>
  </g>
</svg>
