<svg id="Layer_1" data-name="Layer 1" xmlns="http://www.w3.org/2000/svg" viewBox="0 0 134 134">
  <title>Fever</title>
  <g>
    <circle cx="67" cy="67" r="67" fill="#edf1ff"/>
    <g>
      <path d="M76.09,87.23a.47.47,0,0,0,0,.1c1.13,2.16,4.46,2.15,5.91,4.08,6.46,8.57,3.4,20.12-6.14,24.83A18,18,0,0,1,57,113.89c-7.4-6.24-4.91-14.43.8-20.86,3.23-3.65,3.24-7.9,2.38-12.47-2.48-13.17-1.69-26.71-1.55-40,.06-5.39-1.2-10.73-.71-16.14.65-7.21,3.29-8.07,9.84-8.46,7.37-.43,7.79,3.29,8.4,9.38a229.79,229.79,0,0,1,.61,33.29c-.29,6.79-1,13.57-.91,20.37C75.94,81,75.24,85.4,76.09,87.23Z" fill="#fff"/>
      <path d="M76.09,87.23a.47.47,0,0,0,0,.1c1.13,2.16,4.46,2.15,5.91,4.08,6.46,8.57,3.4,20.12-6.14,24.83A18,18,0,0,1,57,113.89c-7.4-6.24-5.58-15.7,0-22.25,3.11-3.68,3.7-8.38,2.41-14-1.16-5-.64-7.26-.85-12.41-.18-4.55-.33-9.22-.33-13.73v-9c0-2.13-1-9.68,1.66-10.68,1.83-.7,4.59.43,6.5.4,2.07,0,4.21-.44,6.25-.64,5.6-.54,3.46,6.7,4,10.16,1.08,7.46.33,15.39-.15,22.8-.31,4.82-.66,9.66-.58,14.5C75.94,81,75.24,85.4,76.09,87.23Z" fill="#ff8586"/>
      <path d="M76.09,87.23a.47.47,0,0,0,0,.1c1.13,2.16,4.46,2.15,5.91,4.08,6.46,8.57,3.4,20.12-6.14,24.83A18,18,0,0,1,57,113.89c-7.4-6.24-6.82-15.52-.84-21.7A12.9,12.9,0,0,0,59.64,81.3c-1.34-12.33-1.11-27.45-1-40.77.06-5.39-1.2-10.73-.71-16.14.65-7.21,3.29-8.07,9.84-8.46,7.37-.43,7.79,3.29,8.4,9.38a229.79,229.79,0,0,1,.61,33.29c-.29,6.79-1,13.57-.91,20.37C75.94,81,75.24,85.4,76.09,87.23Z" fill="none" stroke="#66687a" stroke-linecap="round" stroke-miterlimit="10" stroke-width="2.05"/>
      <path d="M67.83,28.13l1.54-.07,3.48-.15" fill="none" stroke="#66687a" stroke-linecap="round" stroke-miterlimit="10" stroke-width="2.05"/>
      <path d="M67.63,57.77l1.54-.07,3.48-.14" fill="none" stroke="#66687a" stroke-linecap="round" stroke-miterlimit="10" stroke-width="2.05"/>
      <path d="M67.28,49.6l1.54-.07,3.48-.15" fill="none" stroke="#66687a" stroke-linecap="round" stroke-miterlimit="10" stroke-width="2.05"/>
      <path d="M67.13,65.16l1.54-.07,3.48-.15" fill="none" stroke="#66687a" stroke-linecap="round" stroke-miterlimit="10" stroke-width="2.05"/>
      <path d="M67.39,71.14l1.54-.06,3.47-.15" fill="none" stroke="#66687a" stroke-linecap="round" stroke-miterlimit="10" stroke-width="2.05"/>
      <path d="M67.27,41.9l1.55-.06,3.47-.15" fill="none" stroke="#66687a" stroke-linecap="round" stroke-miterlimit="10" stroke-width="2.05"/>
      <path d="M67.63,34.85l1.54-.07,3.47-.15" fill="none" stroke="#66687a" stroke-linecap="round" stroke-miterlimit="10" stroke-width="2.05"/>
    </g>
  </g>
</svg>
