<svg width="107" height="85" xmlns="http://www.w3.org/2000/svg"><g fill="none" fill-rule="evenodd"><path d="M34.553 75.114c-10.827-.67-22.01.302-31.835 2.766-1.618.406-3.463 1.342-2.408 2.1.432.309 1.203.422 1.917.512a220.022 220.022 0 0 0 29.413 1.682c1.55-.014 3.309-.001 4.356.594.814.463.973 1.172 1.838 1.608.95.479 2.43.483 3.75.457l8.805-.174c2.333-.045 4.84-.124 6.667-.881 1.826-.758 2.326-2.462.356-3.114-1.47-.487-4.193-.594-3.854-1.484 3.118-.337 6.215-.73 9.282-1.179.802-.117 1.646-.252 2.199-.577 1.005-.59.558-1.582-.557-2.116-1.115-.534-2.674-.72-4.166-.857-7.615-.697-15.494-.6-23.037.283" fill="#9673FF" style="mix-blend-mode:multiply"/><path d="M51.089 74.05c.633 2.762-7.786 3.26-16.926 3.864-10.451.69-21.916 1.224-23.09.32-1.056-.815-.89-17.215-1.036-31.19-.106-10.042-2.164-19.387.54-19.82 1.81-.29 33.43-3.142 35.78-1.084.928.814-.36 4.182.788 16.245 1.298 13.65 2.5 25.365 3.944 31.664" fill="#445AA8"/><path d="M10.742 46.9s-13.94 20.766-6.797 25.198c4.964 3.081 7.483-2.195 5.217-1.819-1.56.26-3.107-.196-3.669-.647-.46-.37 1.402-.19 1.99-.164.307.014 2.055.285 1.616-.754-.222-.526-3.296-.052-3.506-.755-.554-1.856 5.764-11.513 5.764-11.513l-.615-9.547z" fill="#FFC333"/><path d="M63.484 33.807c-.034.306-1.205.429-2.617.274-1.412-.155-2.529-.529-2.495-.835.033-.306 1.205-.428 2.616-.273 1.412.155 2.53.528 2.496.834" fill="#FCC234"/><path d="M63.548 34.737c-.034.306-1.205.43-2.617.274-1.412-.155-2.53-.529-2.496-.834.034-.306 1.205-.429 2.617-.274 1.412.155 2.53.529 2.496.834" fill="#FCC234"/><path d="M63.429 35.823c-.041.373-1.218.55-2.63.395-1.412-.155-2.523-.583-2.482-.956.04-.372 1.218-.549 2.63-.394 1.411.155 2.522.583 2.482.955m-.084 1.358c-.041.373-1.219.55-2.63.395-1.412-.155-2.523-.583-2.483-.956.041-.372 1.219-.549 2.63-.394 1.412.155 2.523.583 2.483.955" fill="#FCC234"/><path d="M83.157 7.37L61.232 22.984s-4.948-1.717-5.413.997c-.465 2.715.469 5.687 2.618 6.218 2 .494 5.686-2.539 5.686-2.539l23.912 5.484c.978-.028-9.536-10.177-4.878-25.774" fill="#FF6E00"/><path d="M93.814 19.057c1.643 9.226-2.393 14.26-5.787 14.26-1.292 0-4.58-5.722-5.865-12.087-1.334-6.601-1.9-12.714.57-13.688 3.158-1.245 9.125.528 11.082 11.515" fill="#FFC333"/><path d="M87.626 15.652c-.16 0-.315.027-.455.082-.027.01-.66.308.108 4.113.38 1.878 1.256 3.434 1.599 3.723.268-.03.557-.21.802-.504.317-.378 1.01-1.504.606-3.776-.305-1.71-.955-2.92-1.832-3.411a1.715 1.715 0 0 0-.828-.227m1.171 8.912c-.96 0-2.113-2.678-2.485-4.521-.66-3.267-.512-4.83.497-5.229.659-.26 1.433-.186 2.127.202.806.451 1.863 1.529 2.321 4.1.337 1.889.038 3.56-.82 4.585-.465.556-1.048.863-1.64.863" fill="#FF6E00"/><path d="M62.24 28.653s1.405 6.954 1.113 9.9c-.291 2.946-4.215.185-4.215.185l-.954-8.982 4.056-1.103z" fill="#FF6E00" style="mix-blend-mode:multiply"/><path fill="#FFC333" d="M22.454 39.245l-4.71-.063-.254-4.396 4.581-.318zm9.346.045l-4.708-.064-.255-4.395 4.581-.32z"/><path fill="#E66364" d="M29.716 31.342l-1.69-.102-.091-7.057 1.644-.51z"/><path fill="#E66364" d="M25.301 28.783l.005-1.695 7.03-.498.605 1.613z"/><path fill="#FFC333" d="M40.407 38.339l-4.71-.064-.254-4.395 4.582-.319z"/><path fill="#8173B5" d="M21.683 49.738l-4.709-.064-.254-4.395 4.581-.319z"/><path fill="#FFC333" d="M32.17 49.738l-4.708-.064-.255-4.395 4.582-.319zm9.396-.45l-4.71-.064-.254-4.395 4.581-.318zM22.454 60.173l-4.71-.064-.254-4.395 4.581-.319zm10.553-.951l-4.709-.064-.254-4.395 4.581-.319z"/><path fill="#8173B5" d="M42.889 59.222l-4.71-.064-.254-4.395 4.582-.319z"/><path fill="#FFC333" d="M22.714 70.978l-4.709-.064-.254-4.395 4.581-.319zm12.64 7.998l-7.496-.199a.494.494 0 0 1-.48-.479l-.432-14.603a.494.494 0 0 1 .427-.504l7.282-.332a.494.494 0 0 1 .56.47l.645 15.133a.494.494 0 0 1-.506.514"/><path fill="#FCC234" d="M43.136 70.566l-4.71-.064-.254-4.395 4.581-.319zM90.9 5.578a.329.329 0 0 1-.222-.572L95.862.25a.329.329 0 1 1 .445.486l-5.184 4.755a.328.328 0 0 1-.222.086m10.691 31.34c-.05 0-.1-.011-.147-.035l-5.507-2.751a.33.33 0 0 1 .294-.59l5.507 2.751a.33.33 0 0 1-.147.625m4.701-7.934a.327.327 0 0 1-.094-.014l-7.768-2.318a.33.33 0 0 1 .188-.632l7.768 2.318a.33.33 0 0 1-.094.646m-7.396-10.491a.33.33 0 0 1-.012-.659l6.711-.247a.33.33 0 1 1 .024.659l-6.711.247h-.012m-1.827-6.794a.329.329 0 0 1-.15-.623l6.084-3.108a.329.329 0 1 1 .299.587l-6.084 3.108a.326.326 0 0 1-.15.036"/><path d="M46.524 46.012s6.712-4.331 7.747-7.279c1.034-2.948.568-6.35 1.045-6.509.478-.159 2.866-2.071 7.242-.956 4.377 1.116-4.138 1.275-4.138 1.275l.716 7.01s.192 1.848-2.748 2.996c-1.222.477-9.075 10.413-9.075 10.413l-.79-6.95z" fill="#FFC333"/></g></svg>