<svg id="Layer_1" data-name="Layer 1" xmlns="http://www.w3.org/2000/svg" xmlns:xlink="http://www.w3.org/1999/xlink" viewBox="0 0 134 134">
  <defs>
    <clipPath id="clip-path">
      <circle cx="67" cy="67.06" r="67.06" fill="#edf1ff"/>
    </clipPath>
  </defs>
  <title>Kidney</title>
  <g>
    <circle cx="67" cy="67.06" r="67.06" fill="#edf1ff"/>
    <g clip-path="url(#clip-path)">
      <g>
        <g>
          <path d="M43.31,74.7a12.19,12.19,0,0,0-5,4.56c-.65,1.08-1.09,3-1.66,4.23a41,41,0,0,0-2.26,5.56c-1.12,4-1.35,9-1.51,13.06a58.81,58.81,0,0,0,.89,14.39c1.23,6,3,16.17,7.74,20.29-3.9-.5-7.84-2.43-11.35-4.14-3.94-1.92-9.23-4.68-9.4-9.6-.21-5.66-1.32-11.43-1.5-17.21-.12-4,1.67-7.16,2.2-11,.3-2.16,0-4.32.38-6.49a45.93,45.93,0,0,1,4.45-13c6.65-13.09,25-18.21,38.55-17.94a26.23,26.23,0,0,1,11.55,3c4.87,2.56,11.18,11.39,5.13,16-2.83,2.16-6.14.91-9.06-.29C65.43,73.17,51.66,70.4,43.31,74.7Z" fill="#ff8586"/>
          <g>
            <path d="M65.3,109.19a24.74,24.74,0,0,1-7-1A15.56,15.56,0,0,1,47.72,97a18.55,18.55,0,0,1,3.52-16.84A22.88,22.88,0,0,1,56.5,76.1c2.76-1.77,5.62-3.59,7.21-6.77a7.36,7.36,0,0,0-.41-6.95,10.76,10.76,0,0,0-7.75-5.54c-.44,0-.9-.07-1.36-.07a24.31,24.31,0,0,0-3.65.35,18.41,18.41,0,0,1-2.73.29c-1.54,0-3.2-.4-4.88-3.31-4.18-7.19-4.72-16.83-1.34-24,4.49-9.53,13.13-11.53,19.58-11.53a45.58,45.58,0,0,1,19.29,4.81c10.74,5.19,18.86,12.94,22.88,21.81,9.49,21-1.71,50.35-23,60.51A35.75,35.75,0,0,1,65.3,109.19Z" fill="#fff"/>
            <path d="M61.17,19.57A44.46,44.46,0,0,1,80,24.28C90.55,29.37,98.51,37,102.43,45.6c4.45,9.83,4.42,22.13-.09,33.74s-12.66,20.78-22.48,25.45a34.57,34.57,0,0,1-14.56,3.4,23.73,23.73,0,0,1-6.69-.9,14.62,14.62,0,0,1-9.93-10.52A17.55,17.55,0,0,1,52,80.84a22,22,0,0,1,5-3.9c2.88-1.84,5.85-3.74,7.56-7.16a8.32,8.32,0,0,0-.42-7.88,11.77,11.77,0,0,0-8.53-6,13.83,13.83,0,0,0-1.46-.08,25.23,25.23,0,0,0-3.8.37,18.28,18.28,0,0,1-2.58.27c-1.21,0-2.51-.22-4-2.81-4-6.92-4.54-16.19-1.3-23.07,3.43-7.27,9.72-11,18.68-11m0-2c-8.44,0-16.3,3.23-20.49,12.11-3.61,7.67-2.85,17.64,1.38,24.92,1.78,3.07,3.67,3.81,5.75,3.81,1.93,0,4-.64,6.38-.64a10.59,10.59,0,0,1,1.25.07c4.75.51,9.67,6.44,7.37,11C60.28,74,54,75.4,50.48,79.54A19.55,19.55,0,0,0,46.75,97.3,16.61,16.61,0,0,0,58,109.2a25.76,25.76,0,0,0,7.26,1,36.9,36.9,0,0,0,15.42-3.59c21.35-10.16,33.42-40,23.53-61.82-4.54-10-13.62-17.59-23.35-22.3a46.79,46.79,0,0,0-19.73-4.91Z" fill="#66687a"/>
          </g>
        </g>
        <g>
          <g>
            <path d="M111.81,93.52a24.58,24.58,0,0,1-1.93,8.73c-.88,2-1.4,4.13-3,5.79-1.22,1.27-2.7,2.28-3.95,3.52a15.63,15.63,0,0,1-8.88,4.29c-3,.32-5.9-.41-8.85-1a26.18,26.18,0,0,1-5-1.48c-2.93-1.22-5.54-4-7.49-6.48A17.94,17.94,0,0,1,69,96.67c-.31-4.35-1.25-8.88.72-13C75,72.6,90.08,68.32,100.59,74.59c4.73,2.83,9.44,7.35,10.69,12.88A23.85,23.85,0,0,1,111.81,93.52Z" fill="#fff"/>
            <g>
              <path d="M90.15,111.7A18.23,18.23,0,0,1,73,99.69a17.31,17.31,0,0,1-.68-8c.36-3.54,1.91-8.62,4.47-11.37A17.33,17.33,0,0,1,89.15,75h.16c9.77,0,19.23,9.06,19.47,18.64a16.82,16.82,0,0,1-5.08,12.11A19.47,19.47,0,0,1,90.15,111.7Z" fill="#fff"/>
              <path d="M89.31,74v2c9.1,0,18.25,8.75,18.47,17.66A15.82,15.82,0,0,1,103,105a18.45,18.45,0,0,1-12.83,5.7,17.22,17.22,0,0,1-12.57-5.47A17.41,17.41,0,0,1,74,99.35a16.32,16.32,0,0,1-.62-7.6c.35-3.49,1.9-8.32,4.2-10.79a16.29,16.29,0,0,1,11.6-5h.15V74m0,0h-.17a18.25,18.25,0,0,0-13,5.65c-2.69,2.88-4.35,8.11-4.73,12A18.17,18.17,0,0,0,72.1,100,19.2,19.2,0,0,0,90.15,112.7c10,0,19.89-8.81,19.63-19.14C109.53,83.57,99.63,74,89.31,74Z" fill="#66687a"/>
            </g>
          </g>
          <g>
            <g>
              <circle cx="97.22" cy="90.32" r="5.01" fill="#ff8586"/>
              <path d="M100.33,90.32c0,2.92-3.11,3.11-3.11,3.11s2.07-1.31,2.07-3.17-2.07-3-2.07-3S100.33,87.41,100.33,90.32Z" fill="#de5051"/>
            </g>
            <g>
              <circle cx="85.51" cy="89.09" r="5.01" fill="#ff8586"/>
              <path d="M88.62,89.09c0,2.91-3.11,3.1-3.11,3.1s2.07-1.31,2.07-3.17-2.07-3-2.07-3S88.62,86.17,88.62,89.09Z" fill="#de5051"/>
            </g>
            <g>
              <circle cx="89.91" cy="100.67" r="5.01" fill="#ff8586"/>
              <path d="M93,100.67c0,2.92-3.11,3.11-3.11,3.11S92,102.47,92,100.61s-2.07-3-2.07-3S93,97.76,93,100.67Z" fill="#de5051"/>
            </g>
          </g>
        </g>
      </g>
    </g>
  </g>
</svg>
