<?xml version="1.0" encoding="UTF-8"?>
<svg width="69px" height="82px" viewBox="0 0 69 82" version="1.1" xmlns="http://www.w3.org/2000/svg" xmlns:xlink="http://www.w3.org/1999/xlink">
    <!-- Generator: Sketch 52.5 (67469) - http://www.bohemiancoding.com/sketch -->
    <title>Mumbai</title>
    <desc>Created with Sketch.</desc>
    <defs>
        <path d="M5.87383006,29.2718725 L5.87383006,2.27512104e-13 L59.8738301,2.27512104e-13 L59.8738301,29.2718725 C63.3320659,34.4341358 65.3490776,40.6432849 65.3490776,47.3235323 C65.3490776,65.2591162 50.809414,79.7987798 32.8738301,79.7987798 C14.9382461,79.7987798 0.398582534,65.2591162 0.398582534,47.3235323 C0.398582534,40.6432849 2.41559418,34.4341358 5.87383006,29.2718725 Z" id="path-1"></path>
    </defs>
    <g id="Page-1" stroke="none" stroke-width="1" fill="none" fill-rule="evenodd">
        <g id="City-picker" transform="translate(-280.000000, -200.000000)">
            <g id="Mumbai" transform="translate(281.000000, 200.000000)">
                <rect id="Rectangle" fill="#FFFFFF" x="0" y="0" width="68" height="82"></rect>
                <circle id="Oval-Copy-6" stroke="#3D6EB4" stroke-width="1.5" fill="#ECFAFE" cx="33.8738301" cy="47.6790013" r="33.2252475"></circle>
                <g id="ahmedabad-copy" transform="translate(1.000000, 0.355469)">
                    <g id="mumbai-Clipped">
                        <mask id="mask-2" fill="white">
                            <use xlink:href="#path-1"></use>
                        </mask>
                        <g id="path-1"></g>
                        <g id="mumbai" mask="url(#mask-2)">
                            <g transform="translate(-14.000000, 7.000000)" id="Group">
                                <g transform="translate(0.853854, 0.247695)">
                                    <path d="M59.4556399,33.7228573 L32.7003109,33.7228573 L32.7003109,35.0647232 L32.7003109,38.0035888 C32.7003109,38.7441664 32.0947347,39.3440756 31.3443771,39.3440756 L31.0227953,39.3440756 L31.0227953,65.6228575 L61.1303712,65.6228575 L61.1331555,39.3440756 L60.8101815,39.3068399 C60.0626082,39.3068399 59.4556399,38.7055516 59.4556399,37.9677322 L59.4556399,35.0261084 L59.4556399,33.7228573 Z" id="Stroke-17" stroke="#3D6EB4" stroke-width="1.5" fill="#FFFFFF" stroke-linejoin="round"></path>
                                    <rect id="Rectangle-2" stroke="#3D6EB4" stroke-width="1.5" fill="#FFFFFF" stroke-linejoin="round" x="31.0227953" y="33.7228573" width="30.1103602" height="31.9000002"></rect>
                                    <polygon id="Stroke-52" stroke="#3D6EB4" stroke-width="1.5" fill="#FFFFFF" stroke-linejoin="round" points="67.5202016 65.6228575 61.1331555 65.6228575 61.1356661 25.5200001 67.5202016 25.5200001"></polygon>
                                    <path d="M46.0779754,65.6228575 L55.5650969,65.6228575 L55.5650969,50.7108347 L54.4010636,49.6587765 C54.6158852,39.4060669 46.0779754,37.3685716 46.0779754,37.3685716 C46.0779754,37.3685716 37.5400656,39.4060669 37.7548872,49.6587765 L36.5908539,50.7108347 L36.5908539,65.6228575 L46.0779754,65.6228575 Z" id="Stroke-65" stroke="#3D6EB4" stroke-width="1.5" fill="#7EDCF7" stroke-linejoin="round"></path>
                                    <polygon id="Stroke-67" stroke="#3D6EB4" stroke-width="1.5" fill="#FFFFFF" stroke-linejoin="round" points="67.5202016 65.6228575 92.1559508 65.6228575 92.1559508 41.9257145 67.5202016 41.9257145"></polygon>
                                    <polygon id="Stroke-67" stroke="#3D6EB4" stroke-width="1.5" fill="#FFFFFF" stroke-linejoin="round" points="67.5202016 41.9257145 92.1559508 41.9257145 92.1559508 36.4571431 67.5202016 36.4571431"></polygon>
                                    <polygon id="Stroke-67" stroke="#3D6EB4" stroke-width="1.5" fill="#FFFFFF" stroke-linejoin="round" points="67.5202016 36.4571431 92.1559508 36.4571431 92.1559508 30.9885716 67.5202016 30.9885716"></polygon>
                                    <polygon id="Stroke-67" stroke="#3D6EB4" stroke-width="1.5" fill="#FFFFFF" stroke-linejoin="round" points="45.6217578 33.7228573 61.1331555 33.7228573 61.1331555 25.5200001 45.6217578 25.5200001"></polygon>
                                    <polygon id="Stroke-67" stroke="#3D6EB4" stroke-width="1.5" fill="#FFFFFF" stroke-linejoin="round" points="31.0227953 33.7228573 46.534193 33.7228573 46.534193 25.5200001 31.0227953 25.5200001"></polygon>
                                    <path d="M79.8380762,65.6228575 L72.9948125,65.6228575 L72.9948125,55.0390329 L73.8362988,54.2917327 C73.6795514,47.0146776 79.8380762,45.5714288 79.8380762,45.5714288 C79.8380762,45.5714288 85.997976,47.0146776 85.8426035,54.2917327 L86.6813399,55.0390329 L86.6813399,65.6228575 L79.8380762,65.6228575 Z" id="Stroke-75" stroke="#3D6EB4" stroke-width="1.5" fill="#7EDCF7" stroke-linejoin="round"></path>
                                    <path d="M69.3450719,37.8883655 C69.3450719,38.6063252 68.7638115,39.1914288 68.0419236,39.1914288 L60.6114335,39.1914288 C59.8908849,39.1914288 59.3082852,38.6063252 59.3082852,37.8883655 L59.3082852,35.0259206 C59.3082852,34.305277 59.8908849,33.7228573 60.6114335,33.7228573 L68.0419236,33.7228573 C68.7638115,33.7228573 69.3450719,34.305277 69.3450719,35.0259206 L69.3450719,37.8883655 Z" id="Stroke-63" stroke="#3D6EB4" stroke-width="1.5" fill="#FFFFFF" stroke-linejoin="round"></path>
                                    <polygon id="Stroke-46" stroke="#3D6EB4" stroke-width="1.5" fill="#FFFFFF" stroke-linejoin="round" points="66.6046629 22.7857144 62.0455906 22.7857144 62.0517977 17.317143 66.6077664 17.317143"></polygon>
                                    <polygon id="Stroke-48" stroke="#3D6EB4" stroke-width="1.5" fill="#FFFFFF" stroke-linejoin="round" points="65.6953313 12.7600001 62.9580258 12.7600001 62.9617526 8.20285719 65.6953313 8.20285719"></polygon>
                                    <path d="M66.6066537,6.68299375 C66.6660933,3.38922205 64.3243961,2.73428573 64.3243961,2.73428573 C64.3243961,2.73428573 61.9894279,3.38922205 62.0466245,6.68299375 L62.0466245,6.72557929 C62.0466245,7.54057853 62.460459,8.20285719 62.9729856,8.20285719 L65.6780496,8.20285719 C66.1905763,8.20285719 66.6066537,7.54057853 66.6066537,6.72557929 L66.6066537,6.68299375 Z" id="Stroke-54" stroke="#3D6EB4" stroke-width="1.5" fill="#FFFFFF" stroke-linejoin="round"></path>
                                    <path d="M63.870461,3.64571431 L63.8722858,0" id="Fill-55" fill="#FFFFFF"></path>
                                    <path d="M67.5202016,15.8742207 C67.5202016,16.6705714 66.9527547,17.317143 66.2506373,17.317143 L62.4027198,17.317143 C61.7032173,17.317143 61.1331555,16.6705714 61.1331555,15.8742207 L61.1331555,14.2014393 C61.1331555,13.4065716 61.7032173,12.7600001 62.4027198,12.7600001 L66.2506373,12.7600001 C66.9527547,12.7600001 67.5202016,13.4065716 67.5202016,14.2014393 L67.5202016,15.8742207 Z" id="Stroke-59" stroke="#3D6EB4" stroke-width="1.5" fill="#FFFFFF" stroke-linejoin="round"></path>
                                    <path d="M68.4326367,26.0371741 C68.4326367,26.7577824 67.8984885,27.3428573 67.2406041,27.3428573 L61.4103027,27.3428573 C60.7536434,27.3428573 60.2207203,26.7577824 60.2207203,26.0371741 L60.2207203,24.0913976 C60.2207203,23.3694474 60.7536434,22.7857144 61.4103027,22.7857144 L67.2406041,22.7857144 C67.8984885,22.7857144 68.4326367,23.3694474 68.4326367,24.0913976 L68.4326367,26.0371741 Z" id="Stroke-61" stroke="#3D6EB4" stroke-width="1.5" fill="#FFFFFF" stroke-linejoin="round"></path>
                                    <polygon id="Stroke-67" stroke="#3D6EB4" stroke-width="1.5" fill="#FFFFFF" stroke-linejoin="round" points="0 65.6228575 24.6357492 65.6228575 24.6357492 41.9257145 0 41.9257145"></polygon>
                                    <polygon id="Stroke-67" stroke="#3D6EB4" stroke-width="1.5" fill="#FFFFFF" stroke-linejoin="round" points="0 41.9257145 24.6357492 41.9257145 24.6357492 36.4571431 0 36.4571431"></polygon>
                                    <polygon id="Stroke-67" stroke="#3D6EB4" stroke-width="1.5" fill="#FFFFFF" stroke-linejoin="round" points="0 36.4571431 24.6357492 36.4571431 24.6357492 30.9885716 0 30.9885716"></polygon>
                                    <path d="M12.3178746,65.6228575 L5.47461094,65.6228575 L5.47461094,55.0390329 L6.31609725,54.2917327 C6.1593498,47.0146776 12.3178746,45.5714288 12.3178746,45.5714288 C12.3178746,45.5714288 18.4777744,47.0146776 18.3224019,54.2917327 L19.1611383,55.0390329 L19.1611383,65.6228575 L12.3178746,65.6228575 Z" id="Stroke-75" stroke="#3D6EB4" stroke-width="1.5" fill="#7EDCF7" stroke-linejoin="round"></path>
                                    <polygon id="Stroke-52" stroke="#3D6EB4" stroke-width="1.5" fill="#FFFFFF" stroke-linejoin="round" points="31.0227953 65.6228575 24.6357492 65.6228575 24.6382599 25.5200001 31.0227953 25.5200001"></polygon>
                                    <path d="M32.8476656,37.8883655 C32.8476656,38.6063252 32.2664052,39.1914288 31.5445173,39.1914288 L24.1140272,39.1914288 C23.3934786,39.1914288 22.8108789,38.6063252 22.8108789,37.8883655 L22.8108789,35.0259206 C22.8108789,34.305277 23.3934786,33.7228573 24.1140272,33.7228573 L31.5445173,33.7228573 C32.2664052,33.7228573 32.8476656,34.305277 32.8476656,35.0259206 L32.8476656,37.8883655 Z" id="Stroke-63" stroke="#3D6EB4" stroke-width="1.5" fill="#FFFFFF" stroke-linejoin="round"></path>
                                    <polygon id="Stroke-46" stroke="#3D6EB4" stroke-width="1.5" fill="#FFFFFF" stroke-linejoin="round" points="30.1072566 22.7857144 25.5481844 22.7857144 25.5543914 17.317143 30.1103602 17.317143"></polygon>
                                    <polygon id="Stroke-48" stroke="#3D6EB4" stroke-width="1.5" fill="#FFFFFF" stroke-linejoin="round" points="29.197925 12.7600001 26.4606195 12.7600001 26.4643463 8.20285719 29.197925 8.20285719"></polygon>
                                    <path d="M30.1092474,6.68299375 C30.1686871,3.38922205 27.8269899,2.73428573 27.8269899,2.73428573 C27.8269899,2.73428573 25.4920217,3.38922205 25.5492183,6.68299375 L25.5492183,6.72557929 C25.5492183,7.54057853 25.9630527,8.20285719 26.4755793,8.20285719 L29.1806434,8.20285719 C29.69317,8.20285719 30.1092474,7.54057853 30.1092474,6.72557929 L30.1092474,6.68299375 Z" id="Stroke-54" stroke="#3D6EB4" stroke-width="1.5" fill="#FFFFFF" stroke-linejoin="round"></path>
                                    <path d="M27.3730547,3.64571431 L27.3748796,0" id="Fill-55" fill="#FFFFFF"></path>
                                    <path d="M31.0227953,15.8742207 C31.0227953,16.6705714 30.4553484,17.317143 29.753231,17.317143 L25.9053136,17.317143 C25.2058111,17.317143 24.6357492,16.6705714 24.6357492,15.8742207 L24.6357492,14.2014393 C24.6357492,13.4065716 25.2058111,12.7600001 25.9053136,12.7600001 L29.753231,12.7600001 C30.4553484,12.7600001 31.0227953,13.4065716 31.0227953,14.2014393 L31.0227953,15.8742207 Z" id="Stroke-59" stroke="#3D6EB4" stroke-width="1.5" fill="#FFFFFF" stroke-linejoin="round"></path>
                                    <path d="M31.9352305,26.0371741 C31.9352305,26.7577824 31.4010823,27.3428573 30.7431979,27.3428573 L24.9128965,27.3428573 C24.2562372,27.3428573 23.7233141,26.7577824 23.7233141,26.0371741 L23.7233141,24.0913976 C23.7233141,23.3694474 24.2562372,22.7857144 24.9128965,22.7857144 L30.7431979,22.7857144 C31.4010823,22.7857144 31.9352305,23.3694474 31.9352305,24.0913976 L31.9352305,26.0371741 Z" id="Stroke-61" stroke="#3D6EB4" stroke-width="1.5" fill="#FFFFFF" stroke-linejoin="round"></path>
                                </g>
                            </g>
                        </g>
                    </g>
                </g>
            </g>
        </g>
    </g>
</svg>