<svg id="Layer_1" data-name="Layer 1" xmlns="http://www.w3.org/2000/svg" xmlns:xlink="http://www.w3.org/1999/xlink" viewBox="0 0 134 134">
  <defs>
    <clipPath id="clip-path">
      <circle cx="67" cy="248.99" r="67" fill="#edf1ff"/>
    </clipPath>
  </defs>
  <title>Sexual Wellness</title>
  <g>
    <circle cx="67" cy="248.99" r="67" fill="#edf1ff"/>
    <g clip-path="url(#clip-path)">
      <path d="M185.74,241.81c-4.76,2.15-9.84,3.26-14.92,4.87-6.5,2.06-12.48,3.91-18.41,7.25-5.55,3.13-12,4.13-18,6.76-4,1.79-6.79,4.21-11.44,4.1-6.58-.15-5.74-2.3-6.47-7.86-1.55-11.79-4.33-18.1-13.39-25.59-9.73-8-3.56-27.54-13.25-33-2.4-1.37-4.91-1.29-7.6-1.66-3.36-.47-6.74-.73-10.12-1.22-3.6-.53-7.23-.78-10.83-1.32-2.74-.41-4-2.2-6-3.81-6.21-5-8.8-11.88-7.22-20,1.48-7.65,6.34-20,11-26.48C66.69,133.16,82.48,133.58,94,132c9.28-1.27,10.23-10,20.42-7.57,18.44,4.47,31.3,16,42.24,31.5a279.54,279.54,0,0,1,15.32,24.21c4.34,7.68,7.34,17,12.91,23.86,7.92,9.71,20.52,24.87,5.86,35A32.69,32.69,0,0,1,185.74,241.81Z" fill="#66687a"/>
    </g>
  </g>
  <g>
    <circle cx="67" cy="67" r="67" fill="#edf1ff"/>
    <path d="M50.8,85.32c-4.33-.81-11-.72-14.32-4-2.8-2.72-2.6-7.92-2.66-11.56A24.83,24.83,0,0,1,44.93,48.2c4.57-3,11.11-4,16.49-3.1,2.79.46,4.26,1.48,6.43,3.18,2.71,2.11,5.39,2.65,9.08,2.73,4.35.09,8.45-.78,12.67,1.51,5.77,3.15,5.67,11.1,5.08,16.91-1.1,11-10.05,15.11-20.14,15.56-4.8.21-8.54-2.14-12.74-2.34A23.42,23.42,0,0,0,50.8,85.32Z" fill="#fff"/>
    <path d="M71.4,77.7c2.75-1.43,5.58-7.77,6.35-12,1.06-5.87-.88-10.46-4.33-15.25-6.36-8.85-20.82-7.64-29-2.14-7.87,5.31-11.54,19.74-8,28.25a13,13,0,0,0,9.78,7.85c4,.88,8.85-2.1,9.72,3.37,1.12,7,.92,24.23.75,31.33" fill="none" stroke="#ff8586" stroke-linecap="round" stroke-miterlimit="10" stroke-width="5.99"/>
    <path d="M63.07,56.26C58.43,56.57,57,63.31,56.49,67c-1.3,9.83,5.9,17.12,15.18,18.57C87.78,88.07,98.28,75.13,94.07,60c-1.06-3.78-2.13-6.9-5.45-9a35.51,35.51,0,0,0-5.32-2.24A2.46,2.46,0,0,1,82.19,45c3.08-4.37,9.57-13.38,12.48-15.87" fill="none" stroke="#4dcbf0" stroke-linecap="round" stroke-miterlimit="10" stroke-width="6.04"/>
    <path d="M81.26,29c3.94-.52,11.41-4.27,14.62-1.1,3.54,3.5,1.13,9.37,1,14.44" fill="none" stroke="#4dcbf0" stroke-linecap="round" stroke-miterlimit="10" stroke-width="5.99"/>
    <path d="M43.91,101.18c3,1.13,9.09.68,12.23.66h16" fill="none" stroke="#ff8586" stroke-linecap="round" stroke-miterlimit="10" stroke-width="5.99"/>
  </g>
</svg>
