<svg id="Layer_1" data-name="Layer 1" xmlns="http://www.w3.org/2000/svg" xmlns:xlink="http://www.w3.org/1999/xlink" viewBox="0 0 134 134">
  <defs>
    <clipPath id="clip-path">
      <circle cx="67" cy="67" r="67" fill="#edf1ff"/>
    </clipPath>
  </defs>
  <title>Skin</title>
  <g>
    <circle cx="67" cy="67" r="67" fill="#edf1ff"/>
    <g clip-path="url(#clip-path)">
      <g>
        <path d="M144.87,91.82c-.91,6.7-4.66,13-11.64,14.17-8.78,1.46-17.52-.56-26.25-.89-4-.15-6.44.08-8.32-4-1.8-3.87-1.27-6.68-1.17-10.46.09-3.42-1.49-5-5-5.72-7.46-1.49-15.82,1.45-22.71-2.73-9.86-6-8.44-14.93-10.13-24.84-2.57-15-13.66-5-15.68-13-2.08-8.23,5-10,7.83-12.24,5.47-4.43,4.36-7.37,4.17-14.07,0-1.78.06-3.56,0-5.34,0-1.53-.13-3.71.85-4.92,2.2-2.72,6.67,0,9.25.68a68.58,68.58,0,0,0,11.24,1.72c6.36.61,15.9.8,19.31,7.28,5.24,10,0,23.62,9.51,31.91,6.49,5.67,15.56,3.31,23.1,6,5.29,1.88,8.46,6.51,10.27,11.61,1.76,4.94,3.16,10.25,4.65,15.22A23,23,0,0,1,144.87,91.82Z" fill="#fff" stroke="#66687a" stroke-linecap="round" stroke-miterlimit="10" stroke-width="2"/>
        <g>
          <path d="M75.05,63a2,2,0,0,1,.45,1.27c0,2.29-3.42,4.26-5.36,3.13a3.09,3.09,0,0,1,.48-5.5A4.27,4.27,0,0,1,75.05,63Z" fill="#ff8586"/>
          <path d="M86.46,61.54l-.09.19c-.77,1.55-2.92,3-4.48,1.51a2.73,2.73,0,0,1-.21-3.44A3.31,3.31,0,0,1,85,58.6,2,2,0,0,1,86.46,61.54Z" fill="#ff8586"/>
          <path d="M97.17,64.3l-.09.18c-.77,1.55-2.92,3-4.48,1.51a2.73,2.73,0,0,1-.21-3.44,3.32,3.32,0,0,1,3.34-1.2A2,2,0,0,1,97.17,64.3Z" fill="#ff8586"/>
          <path d="M92.83,49.39l-.09.19c-.77,1.54-2.92,3-4.48,1.5a2.71,2.71,0,0,1-.21-3.44,3.33,3.33,0,0,1,3.34-1.2A2,2,0,0,1,92.83,49.39Z" fill="#ff8586"/>
          <path d="M81.74,73c.73,1.89-.07,4.21-2.29,4.5a3.94,3.94,0,0,1-2.39-.39c-1-.57-.92-1.18-.81-2.16.21-1.8.66-4.23,2.94-4.41C80.4,70.49,81.27,71.84,81.74,73Z" fill="#ff8586"/>
        </g>
        <path d="M185.74,59.81C181,62,175.9,63.08,170.82,64.69c-6.5,2.06-12.48,3.91-18.41,7.25-5.55,3.13-12,4.13-18,6.76-4,1.79-6.79,4.21-11.44,4.1-6.58-.16-5.74-2.3-6.47-7.86-1.55-11.79-4.33-18.1-13.39-25.59-9.73-8-3.56-27.54-13.25-33-2.4-1.36-4.91-1.28-7.6-1.66-3.36-.46-6.74-.72-10.12-1.22-3.6-.52-7.23-.77-10.83-1.31-2.74-.41-4-2.2-6-3.81-6.21-5-8.8-11.88-7.22-20,1.48-7.65,6.34-20,11-26.48C66.69-48.83,82.48-48.42,94-50c9.28-1.27,10.23-10,20.42-7.57,18.44,4.47,31.3,16,42.24,31.5A279.54,279.54,0,0,1,171.94-1.84c4.34,7.68,7.34,17,12.91,23.86,7.92,9.71,20.52,24.87,5.86,35A31.79,31.79,0,0,1,185.74,59.81Z" fill="#66687a"/>
        <path d="M186.71,168.25l.94,0c14.38.74,39.21,1.66,45-14.63,6.07-17.11-1-29.09-7.35-44.94-4.54-11.38-7.82-10.62-18.82-9.54-7.81.77-15.57,1.61-23.42,2-7.26.38-24.78,3.49-28-6-1.31-3.9-1.49-8.69-3.49-12.4-1.74-3.23-6.58-4.14-8.91-1-2.61,3.54,1.5,7.62-2.2,11.47-8.19,8.51-23.56,7.13-34.07,4-4.9-1.47-3.24-3.92-6.27-6.75C96.61,87.24,91.2,91,90,94.68c-1.29,3.85-.65,8.84-2.92,12.3s-7.91,4.78-11.67,5.51c-12.12,2.33-24.65,3-36.42,7-5.89,2-17.91,3.94-22.08,8.91C5.74,141.67,27,155,35.69,162.1c17.08,13.86,32.69,3.84,52.49,4.72C120.92,168.26,153.81,166.61,186.71,168.25Z" fill="#4dcbf0"/>
      </g>
    </g>
  </g>
</svg>
