<svg id="Layer_1" data-name="Layer 1" xmlns="http://www.w3.org/2000/svg" xmlns:xlink="http://www.w3.org/1999/xlink" viewBox="0 0 134 134">
  <defs>
    <clipPath id="clip-path">
      <circle cx="67" cy="67" r="67" fill="#edf1ff"/>
    </clipPath>
  </defs>
  <title>Stomach_1</title>
  <g>
    <circle cx="67" cy="67" r="67" fill="#edf1ff"/>
    <g clip-path="url(#clip-path)">
      <g>
        <path d="M22,106.92c0-3.63.2-8,.23-8.67.21-5.08,1-10.26,3.68-14.67,1.89-3.09,6.19-6.69,9.9-7.12,2.65-.31,7.76,2.63,9.82-.09,1.12-1.47.27-3.81,1.47-5.25,1.42-1.72,4.31-1.18,6.3-1.52a17.41,17.41,0,0,0,12.13-8.92c.84-1.74,2-4.9,1.07-6.76-1.17-2.42-5.08-2.77-7-4.4-7.1-5.94-8.14-15.28-8.16-24.19,0-7.5.89-15.13,3.88-22C56.41.62,58.66.87,61.6.4a31.61,31.61,0,0,1,5.18-.72C63,7.39,59.34,14.24,60.14,23.27c.53,6,1,13.76,6.68,17.31,2.69,1.7,6.75,1.86,8.77-.63,2.65-3.29,4.56-6.39,8.29-8.68,6.83-4.2,15.31-4.08,21.62,1,7.46,6.07,10.75,15.38,10,24.83-.72,8.76-2.1,18-6.66,25.71-1.68,2.85-3.19,5.82-4.93,8.63s-4.42,4-6.49,6.43-3.43,4.37-6.16,6.14c-6,3.87-11.23,8-18.79,7.57-3.11-.16-7.12-.12-10-1.18-2.06-.77-3.42-2.47-5.07-3.65s-3.69-2.08-5.29-3.5S44.18,87,46.33,86.24c-4.16,1.5-6.74-3.87-11.2-1.49C31,87,30.35,92,30.34,96.22c0,3.84,1.83,9.46.54,13-1.07,2.92-5.61,2.87-8.29,2.64C22.14,111.84,22,109.59,22,106.92Z" fill="#fff"/>
        <path d="M63.29,69.28c2.33,2.48,3.92,3.43,7.78,4,4,.63,6.5.69,9.86-1.66,2.93-2,4.27-3,7.63-1.14,2.71,1.46,5.26,4,8.39,4.6,3.34.68,5.62-1,8.4-2.48,2.33-1.21,4.5-1.89,6.84-.89,1.12,2.52-.27,5.31-1.43,7.33-1.94,3.35-3.85,5.64-5.83,9-3.07,5.23-6.75,12.08-11.68,15.75a37.28,37.28,0,0,1-25,7.36c-3.18-.24-7-.81-9.87-2.32a14.43,14.43,0,0,1-3.84-3.07c-1.1-1.1-3.08-2.38-3.93-3.77C47.42,96.76,46,82.26,36.27,86.83c-4,1.89-4.08,7.33-4.29,11.09-.29,5.38-.95,10.25-.7,15.61.16,3.34,1.25,8.54-.06,11.62-2.95-1.61-5.37-4.24-7.47-6.68-1.32-1.53-2.09-1.65-2.4-3.69-.41-2.7.26-5.56.29-8.29a73.87,73.87,0,0,1,.28-9.64c1-7,2.26-13.12,8.13-17.34a15.65,15.65,0,0,1,6.31-3c1.84-.31,4,.39,5.63-.68s2-3.43,3.86-4.56c3-1.86,6.5-1.11,9.57-2S60.36,66.17,63.29,69.28Z" fill="#ff8586"/>
        <path d="M67.05-.31c-2.51,4-4.31,9.85-5.42,14.43-1.18,4.86-.7,12,.28,16.88.63,3.11,3.13,8.21,6,9.68,4,2,6.75.29,9-2.88a24.12,24.12,0,0,1,8.24-7.28,18.31,18.31,0,0,1,20.32,1.79c7.46,6.07,10.75,15.38,10,24.83-.72,8.76-2.1,18-6.66,25.71-3.14,5.32-5.79,10-10.23,14.35-6.86,6.79-15.76,15-26.14,14.42-7.14-.36-14.37-2.64-19.52-7.9A16.27,16.27,0,0,1,50.34,100c-2.89-5.32-5.57-18.59-15-13-5.25,3.12-2.92,11-3.26,15.88-.56,7.93-.76,16-1.72,23.93" fill="none" stroke="#66687a" stroke-linecap="round" stroke-miterlimit="10" stroke-width="2"/>
        <path d="M22.5,121.94c-1.65-1-.66-6.56-.68-8.45-.06-5.17.18-10.09.39-15.24s1-10.26,3.68-14.67c1.89-3.08,6.19-6.69,9.9-7.12C39.71,76,41.41,76,44,72.86c2.4-3,6-2.68,9.4-3.26A17.42,17.42,0,0,0,65.5,60.71c1-2,1.65-4.64.26-6.5-1.85-2.47-4.92-3.73-7-6-8.29-9.26-8.62-24.94-6.54-36.49.45-2.47,1.21-9.19,3.35-10.86" fill="none" stroke="#66687a" stroke-linecap="round" stroke-miterlimit="10" stroke-width="2"/>
      </g>
    </g>
  </g>
</svg>
