<svg xmlns="http://www.w3.org/2000/svg" width="40" height="80" viewBox="0 0 40 80"><g fill="none" fill-rule="evenodd"><path fill="#6811A4" d="M.589 4.318c-.007-.547.28-1.332.74-1.618 0 0-.453-.818 7.526-1.524 7.98-.706 6.582-.67 13.165-.67 6.582 0 8.163 1.185 8.163 1.185.499.233.853.87.802 1.408 0 0-1.37 10.572.655 35.382 0 24.304-1.852 36.384-1.852 36.384-.073.537-.459 1.275-.885 1.637 0 0-2.17 2.264-5.207 2.264-3.038 0-5.22 1.234-11.803 1.234-6.582 0-9.62-5.063-9.62-6.076S1.767 41.013 1.26 30.886C.754 20.76.59 4.318.59 4.318z"/><path fill="#8223DB" d="M16.45 34.43c-3.038 0-4.557 2.026-5.57 9.62-1.012 7.596 0 10.127 5.57 10.127s4.05-10.126 4.05-12.152c0-2.025-1.012-7.595-4.05-7.595z"/><path fill="#A03CFF" d="M13.918 43.544s8.608-21.266 10.127-24.303c1.519-3.038 2.532-5.064 6.582-4.051s7.595 3.544 7.595 3.544 3.545 1.52.507 5.063c-3.038 3.545-15.19 20.76-16.203 23.292-1.013 2.531-6.076 7.088-8.608 2.025-1.519-3.038 0-5.57 0-5.57z"/><path stroke="#FFF" stroke-linecap="round" stroke-width="1.5" d="M14.972 7.894s-.507 9.002 1.012 12.152"/><path stroke="#FFF" stroke-width="1.5" d="M15.466 62.584s-4.71 1.337-4.71 5.388c0 4.05 3.039 4.557 5.064 4.557s7.089-1.52 7.089-6.582c0-5.064-7.443-3.363-7.443-3.363z"/></g></svg>