<svg xmlns="http://www.w3.org/2000/svg" width="20" height="20" viewBox="0 0 20 20">
    <g fill="none" fill-rule="evenodd">
        <circle cx="10" cy="10" r="10" fill="#28328C"/>
        <path fill="#FFF" fill-rule="nonzero" d="M12.756 6c.372 0 .673.302.673.674v1.615l3.118-1.246c.345-.138.737.03.875.375.032.08.049.165.049.25v4.746c0 .372-.302.674-.674.674-.086 0-.17-.017-.25-.049l-3.118-1.247v1.617c0 .372-.301.673-.673.673H4.674c-.372 0-.674-.301-.674-.673V6.674C4 6.302 4.302 6 4.674 6h8.082zm-.337 1.01H5.01v6.062h7.41V7.01zm4.041 1.156l-3.03 1.212v1.326l3.03 1.213V8.166z"/>
    </g>
</svg>
