<svg height="496pt" viewBox="0 0 496 496" width="496pt" xmlns="http://www.w3.org/2000/svg" xmlns:xlink="http://www.w3.org/1999/xlink"><linearGradient id="a" gradientUnits="userSpaceOnUse" x1="248" x2="248" y1="496" y2="0"><stop offset="0" stop-color="#9f2fff"/><stop offset="1" stop-color="#0bb1d3"/></linearGradient><path d="m40 496h416c22.054688 0 40-17.945312 40-40v-40h-16v-264c0-22.054688-17.945312-40-40-40h-40v-112h-304v112h-40c-22.054688 0-40 17.945312-40 40v264h-16v40c0 22.054688 17.945312 40 40 40zm400-368c13.230469 0 24 10.769531 24 24v264h-16v-256c0-8.824219-7.175781-16-16-16h-32v-16zm-264 304h144v8c0 4.40625-3.59375 8-8 8h-128c-4.40625 0-8-3.59375-8-8zm-112-16v-256h32v208h304v-208h32v256zm48-336h272v272h-272zm272-64v48h-272v-48zm-352 136c0-13.230469 10.769531-24 24-24h40v16h-32c-8.824219 0-16 7.175781-16 16v256h-16zm-16 280h144v8c0 13.230469 10.769531 24 24 24h128c13.230469 0 24-10.769531 24-24v-8h144v24c0 13.230469-10.769531 24-24 24h-416c-13.230469 0-24-10.769531-24-24zm48 32h-16v-16h16zm32 0h-16v-16h16zm32 0h-16v-16h16zm16-416h-16v-16h16zm32 0h-16v-16h16zm32 0h-16v-16h16zm0 160h160v-112h-160zm16-96h128v80h-128zm-32 0h-64v-16h64zm0 32h-64v-16h64zm0 32h-64v-16h64zm0 32h-64v-16h64zm-64 128h160v-112h-160zm16-96h128v80h-128zm160-16h64v16h-64zm0 32h64v16h-64zm0 32h64v16h-64zm0 32h64v16h-64zm0 0" fill="url(#a)"/></svg>