<?xml version="1.0" encoding="utf-8"?>
<!-- Generator: Adobe Illustrator 22.1.0, SVG Export Plug-In . SVG Version: 6.00 Build 0)  -->
<svg xmlns="http://www.w3.org/2000/svg" xmlns:xlink="http://www.w3.org/1999/xlink" version="1.1" id="Layer_1" x="0px" y="0px" viewBox="0 0 256 256" style="enable-background:new 0 0 256 256;" xml:space="preserve" width="512" height="512">
<style type="text/css">
	.st0{fill:#F9CFCF;}
	.st1{fill:#3762CC;}
	.st2{fill:#F9A7A7;}
	.st3{fill:#E0EBFC;}
	.st4{fill:#4671C6;}
	.st5{fill:#6BDDDD;}
	.st6{fill:#FFEA92;}
	.st7{fill:#A4C9FF;}
	.st8{fill:#EAA97D;}
	.st9{fill:#B9BEFC;}
</style>
<g>
	<g>
		<g>
			<path class="st4" d="M37.198,134.038H33.25c-8.613,0-15.594-6.982-15.594-15.594V75.23c0-8.613,6.982-15.594,15.594-15.594h3.948     c8.613,0,15.594,6.982,15.594,15.594v43.213C52.792,127.056,45.81,134.038,37.198,134.038z"/>
		</g>
	</g>
	<g>
		<g>
			<path class="st1" d="M37.198,136.037H33.25c-9.702,0-17.594-7.893-17.594-17.594V75.23c0-9.702,7.893-17.595,17.594-17.595h3.948     c9.702,0,17.595,7.893,17.595,17.595v43.213C54.792,128.145,46.899,136.037,37.198,136.037z M33.25,61.636     c-7.496,0-13.594,6.099-13.594,13.595v43.213c0,7.496,6.098,13.594,13.594,13.594h3.948c7.496,0,13.595-6.098,13.595-13.594     V75.23c0-7.496-6.099-13.595-13.595-13.595H33.25z"/>
		</g>
	</g>
	<g>
		<g>
			<path class="st4" d="M137.504,134.488h-3.948c-8.613,0-15.594-6.982-15.594-15.594V75.68c0-8.613,6.982-15.594,15.594-15.594     h3.948c8.613,0,15.594,6.982,15.594,15.594v43.213C153.099,127.506,146.117,134.488,137.504,134.488z"/>
		</g>
	</g>
	<g>
		<g>
			<path class="st1" d="M137.505,136.488h-3.948c-9.702,0-17.595-7.893-17.595-17.595V75.681c0-9.702,7.893-17.595,17.595-17.595     h3.948c9.701,0,17.594,7.893,17.594,17.595v43.213C155.099,128.596,147.206,136.488,137.505,136.488z M133.557,62.086     c-7.496,0-13.595,6.099-13.595,13.595v43.213c0,7.496,6.099,13.595,13.595,13.595h3.948c7.496,0,13.594-6.099,13.594-13.595     V75.681c0-7.496-6.098-13.595-13.594-13.595H133.557z"/>
		</g>
	</g>
	<g>
		<g>
			<path class="st0" d="M59.686,171.328v16.227c0,1.284,0.433,2.53,1.23,3.537l21.383,27.02c1.512,1.91,4.405,1.925,5.936,0.03     l21.843-27.038c0.819-1.014,1.266-2.278,1.266-3.582v-15.831c-7.646,3.914-16.308,6.125-25.489,6.125     C76.398,177.817,67.497,175.465,59.686,171.328z"/>
		</g>
	</g>
	<g>
		<g>
			<path class="st7" d="M81.439,205.486c-0.825-0.123-1.624-0.278-2.394-0.457c-5.736-1.335-10.804-4.68-14.459-9.298l-3.67-4.638     c-0.545-0.688-0.905-1.493-1.088-2.341c-11.217,0.988-21.085,6.657-27.652,15.036h-0.005c-0.025,0.031-0.048,0.064-0.072,0.096     c-0.214,0.275-0.422,0.556-0.629,0.837c-0.128,0.174-0.257,0.347-0.383,0.524c-0.197,0.276-0.388,0.555-0.578,0.837     c-0.127,0.189-0.254,0.379-0.378,0.57c-0.181,0.278-0.358,0.558-0.532,0.841c-0.124,0.202-0.245,0.406-0.366,0.61     c-0.166,0.281-0.33,0.562-0.488,0.847c-0.12,0.215-0.234,0.432-0.35,0.649c-0.151,0.283-0.302,0.565-0.446,0.851     c-0.116,0.23-0.224,0.464-0.335,0.697c-0.134,0.28-0.271,0.559-0.398,0.843c-0.124,0.277-0.239,0.559-0.357,0.84     c-0.189,0.448-0.369,0.899-0.542,1.355c-0.118,0.311-0.238,0.621-0.348,0.936c-0.087,0.249-0.165,0.501-0.247,0.752     c-0.099,0.304-0.2,0.607-0.292,0.915c-0.076,0.254-0.145,0.51-0.217,0.766c-0.086,0.31-0.171,0.62-0.25,0.933     c-0.065,0.257-0.125,0.515-0.184,0.774c-0.074,0.32-0.144,0.64-0.21,0.962c-0.052,0.256-0.102,0.512-0.149,0.769     c-0.061,0.333-0.117,0.668-0.17,1.005c-0.039,0.25-0.079,0.501-0.113,0.753c-0.049,0.355-0.09,0.713-0.129,1.071     c-0.026,0.237-0.054,0.473-0.076,0.712c-0.036,0.399-0.062,0.801-0.087,1.203c-0.012,0.202-0.029,0.402-0.039,0.605     c-0.028,0.606-0.044,1.214-0.044,1.827v7.921h125.4v-7.921c0-0.624-0.017-1.243-0.046-1.859c-0.01-0.21-0.027-0.417-0.04-0.626     c-0.025-0.404-0.052-0.808-0.09-1.209c-0.023-0.25-0.052-0.498-0.08-0.747c-0.04-0.354-0.082-0.708-0.131-1.059     c-0.037-0.268-0.078-0.535-0.121-0.802c-0.052-0.325-0.109-0.648-0.169-0.97c-0.052-0.281-0.105-0.561-0.163-0.839     c-0.062-0.295-0.13-0.588-0.198-0.881c-0.069-0.297-0.136-0.595-0.212-0.89c-0.062-0.239-0.131-0.475-0.197-0.713     c-0.358-1.291-0.779-2.556-1.261-3.79c-0.041-0.104-0.078-0.209-0.12-0.312c-0.164-0.408-0.337-0.811-0.514-1.213     c-0.05-0.113-0.098-0.226-0.149-0.339c-0.184-0.408-0.376-0.812-0.574-1.213c-0.044-0.09-0.089-0.179-0.133-0.268     c-0.213-0.424-0.433-0.844-0.66-1.26c-0.02-0.037-0.041-0.073-0.062-0.11c-6.494-11.753-18.784-19.857-33.021-20.438l-5.36,6.874     C100.073,202.931,90.755,206.874,81.439,205.486z"/>
		</g>
	</g>
	<g>
		<g>
			<path class="st1" d="M149.164,238.088H23.765c-1.104,0-2-0.896-2-2v-7.92c0-0.644,0.017-1.282,0.045-1.918     c0.006-0.141,0.016-0.279,0.026-0.418l0.015-0.217c0.026-0.423,0.053-0.846,0.091-1.266c0.016-0.179,0.037-0.359,0.057-0.541     l0.023-0.204c0.041-0.376,0.084-0.751,0.135-1.124c0.033-0.24,0.07-0.476,0.106-0.712c0.068-0.436,0.127-0.789,0.191-1.138     c0.05-0.271,0.103-0.542,0.157-0.81c0.068-0.336,0.142-0.673,0.22-1.01c0.063-0.272,0.126-0.545,0.194-0.813     c0.083-0.329,0.172-0.653,0.262-0.979l0.045-0.161c0.06-0.216,0.12-0.432,0.184-0.646c0.092-0.309,0.192-0.613,0.292-0.918     l0.085-0.264c0.062-0.19,0.123-0.381,0.189-0.57c0.095-0.274,0.198-0.546,0.302-0.816l0.064-0.169     c0.179-0.476,0.369-0.95,0.567-1.422l0.091-0.218c0.093-0.223,0.187-0.445,0.285-0.666c0.102-0.227,0.209-0.451,0.317-0.675     l0.181-0.379c0.089-0.188,0.179-0.378,0.272-0.563c0.152-0.304,0.312-0.603,0.471-0.898c0.148-0.279,0.254-0.479,0.365-0.678     c0.167-0.3,0.339-0.596,0.514-0.891c0.127-0.216,0.254-0.43,0.385-0.643c0.181-0.295,0.368-0.589,0.557-0.881     c0.13-0.201,0.264-0.401,0.399-0.601c0.198-0.294,0.399-0.589,0.607-0.88l0.398-0.546c0.22-0.298,0.438-0.593,0.665-0.883     l0.072-0.097c0.027-0.034,0.055-0.067,0.083-0.1c6.669-8.457,16.42-14.022,27.007-15.476v-15.653     c0-0.701,0.368-1.352,0.968-1.714c0.602-0.361,1.348-0.382,1.968-0.054c7.729,4.094,16.455,6.257,25.233,6.257     c8.654,0,16.923-1.987,24.578-5.905c0.619-0.316,1.359-0.289,1.955,0.074c0.594,0.363,0.957,1.01,0.957,1.706v15.073     c13.614,1.242,25.992,9.278,32.652,21.334l0.08,0.146c0.223,0.403,0.453,0.845,0.678,1.292l0.144,0.288     c0.204,0.415,0.406,0.84,0.6,1.268l0.154,0.353c0.188,0.427,0.371,0.852,0.543,1.281l0.124,0.324     c0.508,1.297,0.953,2.638,1.327,3.987l0.051,0.181c0.054,0.188,0.106,0.377,0.155,0.567c0.072,0.277,0.137,0.559,0.201,0.84     l0.023,0.099c0.07,0.303,0.143,0.611,0.207,0.922c0.062,0.291,0.117,0.587,0.172,0.884c0.063,0.335,0.123,0.676,0.178,1.02     c0.044,0.277,0.087,0.559,0.126,0.843c0.051,0.361,0.096,0.734,0.138,1.107l0.021,0.191c0.021,0.197,0.044,0.395,0.063,0.594     c0.039,0.424,0.068,0.85,0.094,1.275l0.014,0.186c0.011,0.155,0.021,0.312,0.029,0.469c0,0.001,0,0.001,0,0.001     c0.029,0.646,0.047,1.296,0.047,1.951v7.92C151.164,237.192,150.269,238.088,149.164,238.088z M25.765,234.088h121.399v-5.92     c0-0.593-0.016-1.182-0.043-1.767l-0.039-0.589c-0.023-0.394-0.049-0.776-0.084-1.155l-0.077-0.713     c-0.037-0.33-0.076-0.664-0.124-0.996c-0.036-0.261-0.073-0.513-0.114-0.765c-0.05-0.311-0.103-0.616-0.16-0.92     c-0.05-0.27-0.1-0.534-0.154-0.796c-0.06-0.283-0.124-0.561-0.188-0.839l-0.025-0.106c-0.057-0.246-0.112-0.493-0.176-0.737     c-0.041-0.16-0.086-0.317-0.131-0.475l-0.056-0.199c-0.339-1.224-0.741-2.434-1.198-3.602l-0.11-0.288     c-0.158-0.396-0.323-0.778-0.49-1.159l-0.141-0.32c-0.176-0.389-0.358-0.772-0.546-1.153l-0.132-0.265     c-0.196-0.391-0.403-0.788-0.62-1.182l1.69-1.076l-1.751,0.967c-6.318-11.438-18.332-18.874-31.351-19.406     c-0.584-0.023-1.128-0.302-1.49-0.761c-0.361-0.459-0.504-1.053-0.391-1.626c0.055-0.275,0.081-0.51,0.081-0.717v-12.659     c-7.396,3.288-15.282,4.953-23.489,4.953c-8.333,0-16.623-1.815-24.169-5.273v13.012c0,0.22,0.031,0.467,0.099,0.775     c0.231,1.068-0.436,2.124-1.5,2.372c-0.136,0.032-0.273,0.049-0.408,0.053c-10.235,0.938-19.751,6.133-26.126,14.266     c-0.018,0.022-0.035,0.044-0.053,0.065l-0.016,0.021c-0.209,0.268-0.405,0.533-0.601,0.799l-0.363,0.497     c-0.189,0.265-0.371,0.53-0.55,0.796c-0.122,0.181-0.241,0.359-0.358,0.54c-0.172,0.266-0.34,0.53-0.505,0.799     c-0.12,0.194-0.234,0.389-0.349,0.582c-0.156,0.265-0.312,0.531-0.462,0.802c-0.098,0.175-0.191,0.353-0.285,0.529     c-0.001,0.003-0.049,0.092-0.05,0.094c-0.143,0.267-0.285,0.534-0.421,0.805c-0.079,0.156-0.155,0.318-0.231,0.479l-0.192,0.4     c-0.092,0.192-0.185,0.384-0.272,0.578c-0.084,0.188-0.164,0.38-0.244,0.57l-0.096,0.229c-0.178,0.423-0.349,0.851-0.512,1.283     l-0.067,0.178c-0.09,0.235-0.18,0.471-0.263,0.711c-0.056,0.159-0.107,0.318-0.158,0.479l-0.077,0.236     c-0.105,0.321-0.194,0.593-0.277,0.868c-0.056,0.188-0.108,0.376-0.16,0.564l-0.045,0.164c-0.081,0.292-0.162,0.587-0.238,0.886     c-0.061,0.242-0.118,0.487-0.174,0.732c-0.07,0.304-0.137,0.607-0.199,0.913c-0.05,0.245-0.097,0.488-0.142,0.732     c-0.058,0.315-0.111,0.634-0.161,0.953c-0.045,0.29-0.078,0.501-0.107,0.715c-0.046,0.336-0.084,0.676-0.122,1.017l-0.073,0.675     c-0.035,0.381-0.059,0.763-0.082,1.144l-0.037,0.575c-0.026,0.575-0.042,1.153-0.042,1.736V234.088z"/>
		</g>
	</g>
	<g>
		<g>
			<path class="st0" d="M141.919,100.445c-0.12,0-0.235,0.015-0.354,0.018v-5.296c0-30.956-25.094-56.05-56.05-56.05l0,0     c-30.956,0-56.05,25.094-56.05,56.05v5.296c-0.119-0.002-0.235-0.018-0.354-0.018c-9.444,0-17.1,7.656-17.1,17.1     c0,9.444,7.656,17.1,17.1,17.1c0.62,0,1.231-0.037,1.835-0.101c5.784,24.796,28.012,43.274,54.57,43.274l0,0     c26.558,0,48.786-18.477,54.57-43.274c0.603,0.064,1.214,0.101,1.835,0.101c9.444,0,17.1-7.656,17.1-17.1     C159.019,108.101,151.363,100.445,141.919,100.445z"/>
		</g>
	</g>
	<g>
		<g>
			<path class="st1" d="M55.925,119.792L55.925,119.792c-3.148,0-5.7-2.552-5.7-5.7v-9.5c0-3.148,2.552-5.7,5.7-5.7h0     c3.148,0,5.7,2.552,5.7,5.7v9.5C61.625,117.24,59.073,119.792,55.925,119.792z"/>
		</g>
	</g>
	<g>
		<g>
			<path class="st1" d="M115.104,119.792L115.104,119.792c-3.148,0-5.7-2.552-5.7-5.7v-9.5c0-3.148,2.552-5.7,5.7-5.7h0     c3.148,0,5.7,2.552,5.7,5.7v9.5C120.804,117.24,118.252,119.792,115.104,119.792z"/>
		</g>
	</g>
	<g>
		<g>
			<path class="st1" d="M86.131,150.618c-8.08,0-14.654-5.943-14.654-13.248c0-1.104,0.896-2,2-2s2,0.896,2,2     c0,5.1,4.779,9.248,10.654,9.248c5.875,0,10.654-4.148,10.654-9.248c0-1.104,0.896-2,2-2s2,0.896,2,2     C100.786,144.675,94.212,150.618,86.131,150.618z"/>
		</g>
	</g>
	<g>
		<g>
			<path class="st6" d="M131.285,236l-3.606-16.301l0,0l0-0.001l-0.96-4.339c-0.05-0.227-0.128-0.441-0.197-0.659l-1.251-5.405     l4.972-18.556c0.272-1.014-0.33-2.055-1.344-2.327l-9.176-2.459c-1.014-0.272-2.055,0.33-2.327,1.343l-5.159,19.253H85.685     H59.133l-5.159-19.253c-0.272-1.014-1.313-1.615-2.327-1.343l-9.176,2.459c-1.014,0.272-1.615,1.313-1.344,2.327l4.972,18.556     l-1.251,5.405c-0.07,0.218-0.147,0.432-0.197,0.659l-0.96,4.339l0,0.001l0,0L40.085,236H131.285z"/>
		</g>
	</g>
	<g>
		<g>
			<path class="st1" d="M131.285,238H40.084c-0.606,0-1.18-0.275-1.56-0.748c-0.379-0.473-0.524-1.092-0.393-1.684l4.566-20.642     c0.054-0.244,0.127-0.478,0.204-0.71l0.018-0.055l1.119-4.832l-4.842-18.073c-0.27-1.006-0.132-2.057,0.389-2.959     c0.521-0.902,1.362-1.548,2.368-1.817l9.176-2.459c1.006-0.269,2.057-0.131,2.959,0.39s1.548,1.362,1.817,2.368l4.761,17.771     h50.034l4.762-17.771c0.269-1.006,0.915-1.848,1.817-2.368c0.9-0.521,1.952-0.659,2.959-0.39l9.176,2.459     c2.077,0.556,3.314,2.699,2.758,4.776l-4.843,18.073l1.139,4.895c0.075,0.23,0.148,0.461,0.201,0.7l4.567,20.644     c0.131,0.592-0.014,1.211-0.394,1.684S131.892,238,131.285,238z M42.575,234h86.219l-4.028-18.21     c-0.024-0.108-0.062-0.213-0.097-0.318l-0.054-0.166c-0.016-0.051-0.031-0.103-0.042-0.155l-1.251-5.404     c-0.074-0.319-0.068-0.652,0.017-0.969l4.946-18.459l-8.983-2.407l-5.133,19.156c-0.234,0.874-1.026,1.482-1.932,1.482H59.133     c-0.905,0-1.698-0.608-1.932-1.482l-5.133-19.156l-8.983,2.407l4.946,18.459c0.085,0.316,0.091,0.649,0.017,0.969l-1.251,5.404     c-0.012,0.054-0.027,0.106-0.044,0.159l-0.051,0.158c-0.035,0.107-0.074,0.213-0.098,0.324L42.575,234z"/>
		</g>
	</g>
	<g>
		<g>
			<path class="st4" d="M74.587,223.104L74.587,223.104c-1.921,0-3.477-1.557-3.477-3.477v-1.04c0-1.921,1.557-3.477,3.477-3.477h0     c1.921,0,3.477,1.557,3.477,3.477v1.04C78.064,221.547,76.507,223.104,74.587,223.104z"/>
		</g>
	</g>
	<g>
		<g>
			<path class="st4" d="M96.783,223.104L96.783,223.104c1.921,0,3.478-1.557,3.478-3.477v-1.04c0-1.921-1.557-3.477-3.477-3.477h0     c-1.921,0-3.477,1.557-3.477,3.477v1.04C93.305,221.547,94.862,223.104,96.783,223.104z"/>
		</g>
	</g>
	<g>
		<g>
			<path class="st4" d="M81.242,217.38L81.242,217.38c-1.921,0-3.478-1.557-3.478-3.477v-1.04c0-1.921,1.557-3.477,3.477-3.477h0     c1.921,0,3.477,1.557,3.477,3.477v1.04C84.72,215.823,83.163,217.38,81.242,217.38z"/>
		</g>
	</g>
	<g>
		<g>
			<path class="st4" d="M89.939,217.38L89.939,217.38c1.921,0,3.478-1.557,3.478-3.477v-1.04c0-1.921-1.557-3.477-3.477-3.477h0     c-1.921,0-3.477,1.557-3.477,3.477v1.04C86.462,215.823,88.019,217.38,89.939,217.38z"/>
		</g>
	</g>
	<g>
		<g>
			<path class="st4" d="M92.334,223.044c-0.3-0.065-0.508-0.288-0.508-0.541l0,0c0-2.773-2.75-5.02-6.142-5.02l0,0     c-3.392,0-6.142,2.248-6.142,5.02l0,0c0,0.254-0.208,0.476-0.508,0.541c-2.589,0.566-4.496,2.495-4.496,4.79v0.123     c0,2.739,2.716,4.959,6.067,4.959h5.079l0,0h5.079c3.35,0,6.067-2.22,6.067-4.959v-0.123     C96.831,225.539,94.923,223.61,92.334,223.044z"/>
		</g>
	</g>
	<g>
		<g>
			<path class="st1" d="M85.515,179.817c-26.553,0-49.388-17.669-56.109-43.174c-0.099,0.001-0.197,0.002-0.295,0.002     c-10.532,0-19.1-8.568-19.1-19.101c0-9.977,7.69-18.191,17.454-19.029v-3.349c0-32.009,26.041-58.05,58.05-58.05     c32.009,0,58.05,26.041,58.05,58.05v3.349c9.765,0.837,17.454,9.052,17.454,19.029c0,10.631-8.745,19.229-19.396,19.099     C134.901,162.148,112.067,179.817,85.515,179.817z M30.946,132.544c0.919,0,1.733,0.633,1.946,1.546     c5.731,24.568,27.37,41.728,52.622,41.728c25.251,0,46.891-17.159,52.622-41.728c0.229-0.983,1.166-1.643,2.159-1.534     c0.569,0.061,1.1,0.09,1.623,0.09c8.326,0,15.1-6.774,15.1-15.101c0-8.322-6.768-15.094-15.088-15.1     c-0.151,0.011-0.242,0.016-0.333,0.018c-0.579,0.02-1.054-0.198-1.436-0.574c-0.383-0.376-0.598-0.89-0.598-1.426v-5.296     c0-29.803-24.247-54.05-54.05-54.05s-54.05,24.247-54.05,54.05v5.296c0,0.536-0.215,1.05-0.598,1.426     c-0.382,0.376-0.894,0.593-1.435,0.574c-0.092-0.002-0.183-0.007-0.273-0.014c-0.002,0-0.005,0-0.007,0     c-8.371,0-15.141,6.771-15.141,15.096c0,8.326,6.774,15.101,15.1,15.101c0.523,0,1.054-0.029,1.622-0.09     C30.804,132.548,30.875,132.544,30.946,132.544z"/>
		</g>
	</g>
	<g>
		<g>
			<path class="st4" d="M133.212,21.517h-9.63c-7.623,0-14.224,4.561-17.516,11.234c-0.515,1.044-1.906,1.068-2.458,0.045     c-3.053-5.66-8.778-9.572-15.428-9.918C47.574,21.709,23.365,11.8,15.666,8.096c-1.255-0.604-2.691,0.349-2.691,1.778v10.043     v2.446v0.928v2.619v23.84c0,14.67,11.535,26.562,25.764,26.562h37.371c10.981,0,20.562-6.117,25.748-15.22     c0.64-1.124,2.233-0.825,2.553,0.443c1.963,7.78,8.682,13.512,16.674,13.512h28.882c4.091,0,7.408-3.5,7.408-7.817V47.013     C157.374,32.932,146.557,21.517,133.212,21.517z"/>
		</g>
	</g>
	<g>
		<g>
			<path class="st1" d="M76.109,78.312H38.738c-15.309,0-27.764-12.813-27.764-28.562V9.874c0-1.382,0.691-2.642,1.849-3.369     c1.127-0.708,2.514-0.786,3.711-0.21c8.324,4.004,31.977,13.44,71.704,14.584c6.867,0.356,12.964,4.061,16.563,9.978     c3.896-7.023,10.995-11.34,18.781-11.34h9.63c14.426,0,26.162,12.335,26.162,27.496V67.23c0,5.413-4.221,9.817-9.408,9.817     h-28.881c-8.291,0-15.613-5.575-18.238-13.717C97,72.607,86.884,78.312,76.109,78.312z M14.943,9.968l0.031,15.942v23.84     c0,13.543,10.661,24.562,23.764,24.562h37.371c9.817,0,19.017-5.444,24.01-14.209c0.685-1.202,1.997-1.858,3.348-1.677     c1.397,0.19,2.529,1.219,2.883,2.62c1.783,7.066,7.842,12.002,14.734,12.002h28.881c2.982,0,5.408-2.609,5.408-5.817V47.013     c0-12.956-9.941-23.496-22.162-23.496h-9.63c-6.619,0-12.644,3.877-15.723,10.119c-0.57,1.156-1.708,1.89-2.971,1.913     c-1.292-0.003-2.428-0.668-3.041-1.803c-2.833-5.254-7.981-8.57-13.771-8.871C47.852,23.718,23.625,14.121,14.943,9.968z"/>
		</g>
	</g>
	<g>
		<g>
			<path class="st3" d="M180.81,59.791h7.02h25.272h16.848c7.754,0,14.04,6.286,14.04,14.04v39.312c0,7.754-6.286,14.04-14.04,14.04     h-14.668c-0.717,0.074-1.443,0.112-2.18,0.112h-7.029c0.001,4.142,1.536,9.931,9.74,11.27c0.814,0.133,1.003,1.222,0.28,1.621v0     c-9.511,5.241-21.464,1.766-26.696-7.761l-2.84-5.171c-0.28-0.017-0.557-0.043-0.834-0.07h-4.912     c-7.754,0-14.04-6.286-14.04-14.04V106.2V80.886v-7.055C166.77,66.077,173.056,59.791,180.81,59.791z"/>
		</g>
	</g>
	<g>
		<g>
			<path class="st1" d="M206.648,144.634c-2.023,0-4.06-0.287-6.058-0.867c-5.56-1.613-10.157-5.3-12.947-10.379l-2.31-4.205h-4.524     c-8.845,0-16.04-7.195-16.04-16.04V73.831c0-8.845,7.195-16.04,16.04-16.04h49.14c8.845,0,16.04,7.195,16.04,16.04v39.312     c0,8.845-7.195,16.04-16.04,16.04h-14.567c-0.754,0.074-1.521,0.112-2.28,0.112h-4.885c0.626,4.089,3.281,6.54,7.918,7.296     c1.206,0.196,2.157,1.139,2.365,2.345s-0.372,2.412-1.443,3.002C213.814,143.725,210.25,144.634,206.648,144.634z M180.81,61.791     c-6.639,0-12.04,5.401-12.04,12.04v39.312c0,6.639,5.401,12.04,12.04,12.04h4.912c0.067,0,0.136,0.004,0.203,0.011     c0.249,0.025,0.498,0.048,0.75,0.063c0.686,0.04,1.303,0.431,1.634,1.033l2.841,5.172c2.275,4.143,6.024,7.147,10.557,8.463     c3.501,1.017,7.146,0.93,10.528-0.215c-7.016-2.535-8.161-8.68-8.162-12.415c0-0.53,0.211-1.039,0.586-1.414     s0.884-0.586,1.414-0.586h7.029c0.658,0,1.322-0.034,1.974-0.102c0.068-0.007,0.138-0.011,0.206-0.011h14.668     c6.639,0,12.04-5.401,12.04-12.04V73.831c0-6.639-5.401-12.04-12.04-12.04H180.81z"/>
		</g>
	</g>
	<g>
		<g>
			<g>
				<path class="st7" d="M206.742,72.874c8.711,0,14.626,5.136,14.626,13.586c0,8.526-5.626,12.609-13.424,13.136      c-1.017,0.069-1.828,0.873-1.88,1.891l-0.071,1.405c-0.054,1.064-0.932,1.899-1.997,1.899h-2.597      c-1.08,0-1.965-0.857-1.999-1.936l-0.197-6.206c-0.036-1.129,0.87-2.064,1.999-2.064h0.08c7.346,0,13.001-1.3,13.001-8.125      c0-4.55-2.796-7.346-7.476-7.346c-4.037,0-6.781,1.99-7.405,5.534c-0.166,0.941-1.002,1.616-1.957,1.616h-2.997      c-1.223,0-2.159-1.089-1.985-2.299C193.417,77.344,198.791,72.874,206.742,72.874z M202.582,119.156      c-3.613,0-6.151-3.824-3.888-7.745c0.138-0.239,0.334-0.453,0.56-0.612c3.891-2.73,8.008-0.138,8.008,3.611      C207.263,117.076,205.182,119.156,202.582,119.156z"/>
			</g>
		</g>
	</g>
	<g>
		<g>
			<circle class="st2" cx="178.042" cy="202.209" r="46"/>
		</g>
	</g>
	<g>
		<g>
			<circle class="st6" cx="178.042" cy="202.209" r="34"/>
		</g>
	</g>
	<g>
		<g>
			<g>
				<path class="st4" d="M174.985,226.892c-6.73-1.016-11.606-5.184-12.158-11.994c-0.058-0.709,0.518-1.314,1.23-1.314h5.325      c0.608,0,1.112,0.448,1.214,1.047c0.403,2.369,1.589,4.222,3.65,5.2c0.823,0.39,1.776-0.196,1.776-1.107v-12.862      c0-0.551-0.367-1.034-0.898-1.184c-6.05-1.711-12.35-3.946-12.35-13.397c0-7.53,4.955-12.811,12.219-13.941      c0.594-0.092,1.029-0.609,1.029-1.21v-3.46c0-0.679,0.551-1.23,1.23-1.23h1.641c0.679,0,1.23,0.551,1.23,1.23v3.385      c0,0.601,0.434,1.121,1.028,1.21c6.267,0.946,10.599,4.85,11.567,11.561c0.106,0.737-0.477,1.398-1.222,1.398h-5.274      c-0.589,0-1.078-0.422-1.206-0.997c-0.394-1.769-1.405-3.373-2.966-4.396c-0.827-0.542-1.926,0.029-1.926,1.018v12.368      c0,0.556,0.373,1.041,0.91,1.187c6.042,1.644,12.276,3.818,12.276,13.263c0,6.545-4.294,12.895-12.158,14.15      c-0.593,0.095-1.028,0.609-1.028,1.209v3.462c0,0.679-0.551,1.23-1.23,1.23h-1.641c-0.679,0-1.23-0.551-1.23-1.23v-3.387      C176.022,227.499,175.582,226.982,174.985,226.892z M176.022,196.127v-10.816c0-0.832-0.818-1.449-1.603-1.174      c-2.6,0.913-4.327,3.126-4.327,6.721c0,3.328,1.679,5.159,4.146,6.37C175.06,197.632,176.022,197.042,176.022,196.127z       M180.123,207.957v10.802c0,0.893,0.92,1.48,1.739,1.124c2.696-1.173,4.192-3.737,4.192-6.791c0-3.275-1.683-5.048-4.155-6.24      C181.078,206.456,180.123,207.045,180.123,207.957z"/>
			</g>
		</g>
	</g>
	<g>
		<g>
			<path class="st1" d="M178.042,250.209c-26.467,0-48-21.533-48-48s21.533-48,48-48s48,21.533,48,48     S204.509,250.209,178.042,250.209z M178.042,158.209c-24.262,0-44,19.738-44,44s19.738,44,44,44s44-19.738,44-44     S202.304,158.209,178.042,158.209z"/>
		</g>
	</g>
	<g>
		<g>
			
				<rect x="137.38" y="195.709" transform="matrix(0.7071 -0.7071 0.7071 0.7071 -90.6765 184.5056)" class="st2" width="80" height="12"/>
		</g>
	</g>
	<g>
		<g>
			<path class="st3" d="M187.95,7.791h-7.02h-25.272H138.81c-7.754,0-14.04,6.286-14.04,14.04v39.312     c0,7.754,6.286,14.04,14.04,14.04h14.668c0.717,0.074,1.443,0.112,2.18,0.112h7.029c-0.001,4.142-1.536,9.931-9.74,11.27     c-0.814,0.133-1.003,1.222-0.28,1.621v0c9.511,5.241,21.464,1.766,26.696-7.761l2.84-5.171c0.28-0.017,0.557-0.043,0.834-0.07     h4.912c7.754,0,14.04-6.286,14.04-14.04V54.2V28.886v-7.055C201.99,14.077,195.704,7.791,187.95,7.791z"/>
		</g>
	</g>
	<g>
		<g>
			<path class="st1" d="M162.11,92.634c-3.602,0-7.165-0.909-10.408-2.696c-1.071-0.591-1.65-1.797-1.442-3.003     c0.208-1.205,1.159-2.147,2.365-2.344c4.636-0.756,7.291-3.207,7.917-7.296h-4.885c-0.76,0-1.526-0.038-2.279-0.112H138.81     c-8.845,0-16.04-7.195-16.04-16.04V21.831c0-8.845,7.195-16.04,16.04-16.04h49.14c8.845,0,16.04,7.195,16.04,16.04v39.312     c0,8.845-7.195,16.04-16.04,16.04h-4.524l-2.309,4.205c-2.789,5.079-7.388,8.766-12.947,10.379     C166.171,92.347,164.135,92.634,162.11,92.634z M156.525,87.71c3.383,1.144,7.028,1.229,10.528,0.215     c4.533-1.315,8.282-4.32,10.557-8.463l2.84-5.172c0.331-0.603,0.948-0.993,1.635-1.033c0.251-0.016,0.5-0.038,0.748-0.063     c0.068-0.007,0.136-0.011,0.204-0.011h4.912c6.639,0,12.04-5.401,12.04-12.04V21.831c0-6.639-5.401-12.04-12.04-12.04h-49.14     c-6.639,0-12.04,5.401-12.04,12.04v39.312c0,6.639,5.401,12.04,12.04,12.04h14.669c0.069,0,0.138,0.004,0.206,0.011     c0.65,0.067,1.314,0.102,1.973,0.102h7.029c0.53,0,1.039,0.211,1.414,0.586s0.586,0.884,0.586,1.414     C164.686,79.03,163.54,85.175,156.525,87.71z"/>
		</g>
	</g>
	<g>
		<g>
			<g>
				<path class="st7" d="M191.685,35h-56c-2.209,0-4-1.791-4-4s1.791-4,4-4h56c2.209,0,4,1.791,4,4S193.894,35,191.685,35z"/>
			</g>
		</g>
	</g>
	<g>
		<g>
			<g>
				<path class="st7" d="M191.685,55h-56c-2.209,0-4-1.791-4-4s1.791-4,4-4h56c2.209,0,4,1.791,4,4S193.894,55,191.685,55z"/>
			</g>
		</g>
	</g>
</g>
</svg>
