<svg id="Layer_1" data-name="Layer 1" xmlns="http://www.w3.org/2000/svg" viewBox="0 0 537.68 526.17"><defs><style>.cls-1{fill:#fff;}</style></defs><title>Untitled-1</title><path class="cls-1" d="M278.61,461.56h-227V285H85.25v126.1a25.22,25.22,0,0,0,50.44,0V285h50.45v45.24L183,331.83a55.17,55.17,0,0,0,24.67,104.51H215a55.17,55.17,0,0,0,24.68-104.51l-3.13-1.57V285h42V268.2h-42V251.39h16.81V234.58H239.83l4.72-14.16-16-5.32-6.49,19.48H200.6l-6.49-19.48-16,5.32,4.72,14.16H169.32v16.81h16.82V268.2H135.69V251.39h16.82V234.58H139l4.72-14.16-15.95-5.32-6.49,19.48H99.72L93.23,215.1l-16,5.32L82,234.58H68.44v16.81H85.25V268.2H51.63V251.39H34.81V268.2H18V285H34.81V463a25.22,25.22,0,0,0,8.41,49H278.61a25.22,25.22,0,0,0,0-50.44Zm-25.22-80.39A38.41,38.41,0,0,1,215,419.53h-7.35a38.36,38.36,0,0,1-17.16-72.66L198.3,343a8.42,8.42,0,0,0,4.65-7.52v-8.41h16.81v8.41a8.42,8.42,0,0,0,4.65,7.52l7.78,3.88A38.17,38.17,0,0,1,253.39,381.17Zm-33.63-70.93H203V285h16.81ZM203,251.39h16.81V268.2H203ZM110.47,419.53a8.41,8.41,0,0,1-8.4-8.41V327.05h16.81v84.07A8.42,8.42,0,0,1,110.47,419.53Zm8.41-109.29H102.07V285h16.81Zm-16.81-58.85h16.81V268.2H102.07Zm176.54,243.8H43.22a8.41,8.41,0,0,1,0-16.82H278.61a8.41,8.41,0,0,1,0,16.82Z"/><path class="cls-1" d="M522.41,402.71V184.14a33.67,33.67,0,0,0-33.63-33.63h-42v0a42,42,0,1,0,0,50.38v0h16.81v185H429.93V369.08h16.82V352.27H312.24v16.81h16.81V385.9H303.83a8.41,8.41,0,0,0-8.41,8.41v33.62a8.41,8.41,0,0,0,8.41,8.41H438.34v25.22H320.64v16.81H497.19a8.41,8.41,0,0,1,0,16.82H320.64V512H497.19a25.22,25.22,0,0,0,0-50.44V435.27A33.69,33.69,0,0,0,522.41,402.71ZM413.12,201a25.22,25.22,0,1,1,25.22-25.22A25.22,25.22,0,0,1,413.12,201ZM345.86,369.08h67.26V385.9H345.86Zm-33.62,33.63H472a8.4,8.4,0,0,0,8.4-8.4V192.54a8.4,8.4,0,0,0-8.4-8.4H454.31a42.15,42.15,0,0,0,0-16.82h34.47a16.83,16.83,0,0,1,16.81,16.82V402.71a16.84,16.84,0,0,1-16.81,16.82H312.24Zm142.91,58.85V436.34h25.22v25.22Z"/><rect class="cls-1" x="404.71" y="167.32" width="16.81" height="16.81"/><path class="cls-1" d="M199.21,120.38,245,141.61l-3.54,7.62a8.42,8.42,0,0,0,4.09,11.17h0l83.53,38.73v27H312.24V243h16.81V268.2a8.4,8.4,0,0,0,8.41,8.41h8.4v16.81a8.42,8.42,0,0,0,2.47,5.95l16.81,16.81a8.4,8.4,0,0,0,5.94,2.46H387.9a8.37,8.37,0,0,0,5.94-2.46l16.82-16.81a8.45,8.45,0,0,0,2.46-5.95V276.61h8.41a8.4,8.4,0,0,0,8.4-8.41V234.58H413.12V259.8H345.86v-185h67.26v42h16.81V66.44a8.41,8.41,0,0,0-8.4-8.41H337.46a8.41,8.41,0,0,0-8.41,8.41v40L280.9,84.13a8.42,8.42,0,0,0-11.17,4.09l-3.53,7.62L220.43,74.61a8.41,8.41,0,0,0-11.16,4.09h0l-14.15,30.51a8.42,8.42,0,0,0,4.09,11.17Zm197.1,169.56-11.89,11.89h-9.85l-11.89-11.89V276.61h33.63Zm-114.86-187L329.05,125V180.6l-68.83-31.92ZM221,93.41l38.14,17.68-7.07,15.26-38.14-17.69Z"/><rect class="cls-1" x="371.08" y="91.66" width="16.81" height="16.81"/><path class="cls-1" d="M60,133.69h92.48a8.41,8.41,0,0,1,0,16.82H127.29a25.24,25.24,0,0,0-25.22,25.22V201h16.81V175.73a8.43,8.43,0,0,1,8.41-8.41h25.22a25.22,25.22,0,1,0,0-50.44H60a8.41,8.41,0,0,1,0-16.81h42a25.26,25.26,0,0,0,25.22-25.22V49.63H110.47V74.85a8.4,8.4,0,0,1-8.4,8.4H60a25.22,25.22,0,0,0,0,50.44Z"/><rect class="cls-1" x="110.47" y="16" width="16.81" height="16.81"/></svg>