<svg id="Layer_1" data-name="Layer 1" xmlns="http://www.w3.org/2000/svg" viewBox="0 0 604.99 272.75"><defs><style>.cls-1{fill:#fff;}</style></defs><title>Untitled-1</title><g id="surface1"><path class="cls-1" d="M175.6,140.53h19.17v38.34H175.6Z"/><path class="cls-1" d="M261.86,111.78H357.7V131H261.86Z"/><path class="cls-1" d="M415.2,111.78H511V131H415.2Z"/><path class="cls-1" d="M578.13,150.11V102.19a2.41,2.41,0,0,0-.07-.35,9.33,9.33,0,0,0-.53-3L548.78,21.93a9.61,9.61,0,0,0-9-6.22H159.89A38.5,38.5,0,0,0,130.65,29.3L73,104.92,47.18,124.24a38.53,38.53,0,0,0-15.34,30.67v24H22.26a9.58,9.58,0,0,0-9.59,9.58v38.34a9.58,9.58,0,0,0,9.59,9.58H55.19a47.65,47.65,0,0,0,87.48,0H429a47.57,47.57,0,0,0,88.18-1.92l53.67-26.83h7.32a9.59,9.59,0,0,0,9.59-9.59V159.7A9.59,9.59,0,0,0,578.13,150.11Zm-45-115.23,21.59,57.73H536.86L515.27,34.88ZM145.47,41.42a19.16,19.16,0,0,1,14.42-6.54h25.3v67.31H99.12ZM55,198.42a47.61,47.61,0,0,0-2.88,8.87.78.78,0,0,1-.05.33,46.74,46.74,0,0,0-1,9.58H31.84V198H55.1C55.05,198.16,55,198.3,55,198.42Zm71.66,26a28.75,28.75,0,0,1-56.46-7.17,29.16,29.16,0,0,1,28.75-28.76,28.3,28.3,0,0,1,28.75,27.85A28.64,28.64,0,0,1,126.64,224.38Zm96.88-7.17H146.85a48,48,0,0,0-47.92-47.92,46.61,46.61,0,0,0-8.08.74c-.86.16-1.69.43-2.54.64A46.34,46.34,0,0,0,83,172.15c-1,.35-1.92.81-2.88,1.23q-2.3,1-4.49,2.18c-1,.56-1.92,1.19-2.88,1.81-.77.52-1.61,1-2.36,1.5H51v-24a19.25,19.25,0,0,1,7.67-15.34L83,121.36H194.77a9.58,9.58,0,0,0,9.58-9.58V34.88h19.17Zm153.35,0H242.69V34.88H376.87Zm123.55,7.17a28.31,28.31,0,1,1,1-7.17A29,29,0,0,1,500.42,224.38ZM531,201.83a9.8,9.8,0,0,0,.62,1,9.62,9.62,0,0,0,1.52,2.13l.05.09-12.91,6.46c-.09-.71-.33-1.36-.45-2.06-.23-1.37-.53-2.69-.87-4a45.18,45.18,0,0,0-1.5-4.8,39.21,39.21,0,0,0-1.54-3.68,48,48,0,0,0-2.38-4.4c-.69-1.12-1.36-2.21-2.13-3.27a49.43,49.43,0,0,0-3.21-3.84c-.86-.95-1.69-1.91-2.62-2.79a47.72,47.72,0,0,0-4-3.27,34.32,34.32,0,0,0-3-2.23,45,45,0,0,0-4.73-2.57c-1.07-.53-2.07-1.14-3.18-1.59a48.46,48.46,0,0,0-5.75-1.8c-1-.26-1.92-.64-2.88-.83a47.09,47.09,0,0,0-9.32-1,48,48,0,0,0-47.92,47.92H396V34.88h98.77l26.42,70.68a9.59,9.59,0,0,0,9,6.22H559v38.33H539.8a9.59,9.59,0,0,0-9.59,9.59V198A9.35,9.35,0,0,0,531,201.83Zm37.54-13.38H549.38V169.29h19.17Z"/></g></svg>