<svg id="Layer_1" data-name="Layer 1" xmlns="http://www.w3.org/2000/svg" viewBox="0 0 537.68 526.17"><defs><style>.cls-1{fill:#fff;}</style></defs><title>Untitled-1</title><path class="cls-1" d="M510,256H462a24,24,0,0,0-24-24V216h32a32,32,0,0,0,32-32V104a32,32,0,0,0-32-32H342a32,32,0,0,0-32,32v80a32,32,0,0,0,24,30.86V216a8,8,0,0,1-8,8,24,24,0,0,0-24,24v8H230V216a56,56,0,0,0-28.34-48.62,61.66,61.66,0,0,0,43-26.94A8,8,0,0,0,238,128a24,24,0,0,1-24-24V96a63.39,63.39,0,0,0-15.37-41.55l7.13-28.51A8,8,0,0,0,198,16H102a8,8,0,0,0-7.76,9.94l7.12,28.51A63.43,63.43,0,0,0,86,96v8a24,24,0,0,1-24,24,8,8,0,0,0-6.66,12.43,61.71,61.71,0,0,0,43,26.94A56,56,0,0,0,70,216v40H30a8,8,0,0,0-8,8V504a8,8,0,0,0,8,8H510a8,8,0,0,0,8-8V264A8,8,0,0,0,510,256Zm-64,0H366a8,8,0,0,1,8-8h64A8,8,0,0,1,446,256Zm-24-24H390V216h32Zm-96-48V104a16,16,0,0,1,16-16H470a16,16,0,0,1,16,16v80a16,16,0,0,1-16,16H342A16,16,0,0,1,326,184Zm-8,64a8,8,0,0,1,8-8,24,24,0,0,0,24-24h24v16a24,24,0,0,0-24,24H318ZM182,128a32,32,0,1,1-64,0V112a40,40,0,0,0,32-16,40,40,0,0,0,32,16Zm-56,48h48l-8.88,11.82-9.48-9.48a8,8,0,0,0-11.3,0l-9.48,9.48ZM187.74,32l-4,16H116.23l-4-16ZM102,104V96a47.57,47.57,0,0,1,12.29-32h71.41A47.58,47.58,0,0,1,198,96v8a40.06,40.06,0,0,0,24.92,37.05A45.8,45.8,0,0,1,193.15,152H191.5A47.81,47.81,0,0,0,198,128V104a8,8,0,0,0-8-8h-8a24,24,0,0,1-24-24,8,8,0,0,0-16,0,24,24,0,0,1-24,24h-8a8,8,0,0,0-8,8v24a47.71,47.71,0,0,0,6.49,24h-1.65a45.78,45.78,0,0,1-29.76-10.95A40.06,40.06,0,0,0,102,104ZM86,216A40,40,0,0,1,109,180l18.64,24.85a8,8,0,0,0,5.83,3.18,7.76,7.76,0,0,0,6.22-2.32L150,195.31l10.34,10.35A8,8,0,0,0,166,208l.56,0a8,8,0,0,0,5.84-3.18L191,180A40,40,0,0,1,214,216v40H198V208H182v48H118V208H102v48H86ZM502,496H38V272H502Z"/><path class="cls-1" d="M270,480a96,96,0,1,0-96-96A96.11,96.11,0,0,0,270,480Zm0-176a80,80,0,1,1-80,80A80.09,80.09,0,0,1,270,304Z"/><path class="cls-1" d="M246,408v32a8,8,0,0,0,8,8h32a8,8,0,0,0,8-8V408h32a8,8,0,0,0,8-8V368a8,8,0,0,0-8-8H294V328a8,8,0,0,0-8-8H254a8,8,0,0,0-8,8v32H214a8,8,0,0,0-8,8v32a8,8,0,0,0,8,8Zm-24-32h32a8,8,0,0,0,8-8V336h16v32a8,8,0,0,0,8,8h32v16H286a8,8,0,0,0-8,8v32H262V400a8,8,0,0,0-8-8H222Z"/></svg>