<svg id="Layer_1" data-name="Layer 1" xmlns="http://www.w3.org/2000/svg" viewBox="0 0 537.68 526.17"><defs><style>.cls-1{fill:#fff;}</style></defs><title>Untitled-1</title><path class="cls-1" d="M133,499.89H48.8c-17.3,0-31.37-16.31-31.37-36.33V232.78c0-20,14.07-36.31,31.37-36.31H133c17.29,0,31.36,16.29,31.36,36.31V463.56C164.36,483.58,150.29,499.89,133,499.89Zm-84.2-277c-1.69,0-4.92,3.84-4.92,9.86V463.56c0,6,3.23,9.88,4.92,9.88H133c1.68,0,4.92-3.86,4.92-9.88V232.78c0-6-3.23-9.86-4.92-9.86Z"/><path class="cls-1" d="M473.11,499.89H213.26a37.62,37.62,0,0,1-37.57-37.59V231.86a37.43,37.43,0,0,1,35.6-37.45,14.39,14.39,0,0,1,2-.14h3.64a12.27,12.27,0,0,0,7.17-4.12c1-1.89,2-3.94,3.08-6.07,12.24-24.8,31.39-72.66,22.2-114.79a13.21,13.21,0,0,1-.06-5.35c-.16-1.61-.24-3.2-.24-4.81a48,48,0,0,1,86.16-29.3l.15.16c2.51,2.87,57.71,67.67,26.63,164.3H473.14a48.09,48.09,0,0,1,33.07,83,48.07,48.07,0,0,1,0,69.81,48,48,0,0,1-1,70.66,48,48,0,0,1-28.93,81.74A13.57,13.57,0,0,1,473.11,499.89ZM214,220.72a11.17,11.17,0,0,1-1.29.08,11.05,11.05,0,0,0-10.54,11.06V462.31a11.14,11.14,0,0,0,11.12,11.14H470.88a11.31,11.31,0,0,1,1.55-.17,21.53,21.53,0,0,0,0-43,13.22,13.22,0,0,1-12.54-13.21,13.38,13.38,0,0,1,13.23-13.4,21.67,21.67,0,1,0,0-43.34,13.22,13.22,0,1,1,0-26.44,21.68,21.68,0,0,0,0-43.36,13.23,13.23,0,1,1,0-26.45,21.67,21.67,0,1,0,0-43.34H343a13.2,13.2,0,0,1-12.18-18.35C367.28,115.78,321.6,55,316,48.06a13.38,13.38,0,0,1-1.34-1.57,21.42,21.42,0,0,0-17.49-9,21.71,21.71,0,0,0-21.67,21.68,21.35,21.35,0,0,0,.48,4.46,13.11,13.11,0,0,1,.14,4.67c8.3,46.14-9,94.56-25.24,127.53-1.36,2.76-2.7,5.39-4,7.79a14.27,14.27,0,0,1-1.07,1.7,38.55,38.55,0,0,1-26.28,15.34,13.37,13.37,0,0,1-1.67.1Z"/></svg>