<svg id="Layer_1" data-name="Layer 1" xmlns="http://www.w3.org/2000/svg" viewBox="0 0 487.24 526.17"><defs><style>.cls-1{fill:#fff;}</style></defs><title>Untitled-1</title><path class="cls-1" d="M473.34,490.78l-22.65-132.6a37.75,37.75,0,0,0-26.45-29.95l-61.1-18.43a68.11,68.11,0,0,0-47.28-59.18c1.94-2.14,3.73-4.28,5.37-6.37,14.53-18.48,22.31-38.84,24.29-52.73h4.71a22.25,22.25,0,0,0,22.23-22.23v-11.4a22.39,22.39,0,0,0-11.52-19.44v-27.4a7.5,7.5,0,1,0-15,0v30.76a46.44,46.44,0,0,0-10,2.89,7.76,7.76,0,0,0-1.06.47c-.8.37-1.61.75-2.41,1.19V85.94a30.31,30.31,0,0,0-30.28-30.27H281.54a31.1,31.1,0,0,0-19.64,7l-2,1.66a20.94,20.94,0,0,1-26.51,0l-2-1.66a31.1,31.1,0,0,0-19.64-7H191a30.31,30.31,0,0,0-30.27,30.27v60.42c-.8-.44-1.61-.82-2.41-1.19a7.76,7.76,0,0,0-1.06-.47,46.44,46.44,0,0,0-10-2.89V64a44.08,44.08,0,0,1,44-44h110.6a44.08,44.08,0,0,1,44,44V75.81a7.5,7.5,0,0,0,15,0V64a59.1,59.1,0,0,0-59-59H191.31a59.09,59.09,0,0,0-59,59v74.43a22.37,22.37,0,0,0-11.53,19.44v11.39A22.26,22.26,0,0,0,143,191.52h4.71c2,13.89,9.76,34.25,24.28,52.73,1.65,2.09,3.44,4.22,5.37,6.37a68.4,68.4,0,0,0-47.28,59.18L69,328.23a37.74,37.74,0,0,0-26.45,29.95L33.34,412a7.5,7.5,0,0,0,14.78,2.52l9.2-53.85a22.82,22.82,0,0,1,16-18.11l56.51-17v14.83A37.5,37.5,0,0,0,101.31,364a38.05,38.05,0,0,0-2.22,10.18l-5.46,70.09a19,19,0,0,0,19,20.54H122a7.5,7.5,0,1,0,0-15h-9.34a4.06,4.06,0,0,1-4-4.38l5.46-70.1a22.25,22.25,0,0,1,22.57-20.61H138A22.44,22.44,0,0,1,159,368.13a23.18,23.18,0,0,1,1.76,7.19l5.46,70.1a4.07,4.07,0,0,1-4,4.38h-9.35a7.5,7.5,0,1,0,0,15h9.35a19,19,0,0,0,19-20.54l-5.46-70.09a38.16,38.16,0,0,0-2.9-11.89,37.12,37.12,0,0,0-27.94-21.95V321l25.77-7.77c2.35,4.94,7,15.61,16.2,38.62,9.28,23.21,20.81,53,31.87,81.89.08.24.17.48.27.71,7.38,19.31,14.54,38.23,20.66,54.54a7.49,7.49,0,0,0,14,0c6.12-16.31,13.28-35.23,20.66-54.54a6.15,6.15,0,0,0,.28-.71c11.05-28.91,22.57-58.65,31.85-81.85,9.21-23,13.86-33.72,16.21-38.66L348.4,321V365.3a38.79,38.79,0,1,0,15,0V325.54l56.5,17a22.83,22.83,0,0,1,16,18.12l22.65,132.6a7.45,7.45,0,0,1-7.34,8.7H42a7.45,7.45,0,0,1-7.34-8.7l7.47-43.76A7.5,7.5,0,1,0,27.36,447l-7.47,43.76A22.43,22.43,0,0,0,42,517H451.22a22.44,22.44,0,0,0,22.12-26.22ZM346,157.09a32.16,32.16,0,0,1,7.24-1,7.61,7.61,0,0,0,3.67-.87,7.21,7.21,0,0,1,.53,2.66v11.39a7.25,7.25,0,0,1-7.24,7.24H346V157.09ZM147.19,176.53H143a7.24,7.24,0,0,1-7.23-7.24V157.9a7.21,7.21,0,0,1,.53-2.66,7.55,7.55,0,0,0,3.66.87,33.28,33.28,0,0,1,7.24,1v19.44Zm15,8.4V165.24a10.51,10.51,0,0,0,13.52-10.09V85.94A15.3,15.3,0,0,1,191,70.66h20.7a16.07,16.07,0,0,1,10.14,3.62l2,1.66a36,36,0,0,0,45.5,0l2-1.66a16.11,16.11,0,0,1,10.15-3.62h20.69a15.29,15.29,0,0,1,15.28,15.28v69.21A10.52,10.52,0,0,0,331,165.24v19.69c0,10.95-7.57,32.21-21.6,50a98.13,98.13,0,0,1-18,17.8c-.23.16-.45.33-.67.51a73.1,73.1,0,0,1-88.38,0c-.21-.18-.44-.35-.67-.51a99.08,99.08,0,0,1-18-17.8C169.76,217.14,162.19,195.88,162.19,184.93ZM295.73,306.07l-49.12,36.71-49.12-36.71a35.57,35.57,0,0,0,7.6-21.23V272.75a88,88,0,0,0,83,0v12.09A35.57,35.57,0,0,0,295.73,306.07ZM185,297.7a20.52,20.52,0,0,0-12.64-.63l-.54.14L145.9,305a53.25,53.25,0,0,1,44.2-42v21.82A19.82,19.82,0,0,1,185,297.7Zm20.35,60.19,0-.1c-.38-1-.76-1.91-1.13-2.85l-.2-.51c-.36-.91-.73-1.82-1.08-2.72,0-.06,0-.12-.08-.19l-3.21-8c-.07-.18-.15-.37-.22-.56l-.88-2.17c-.11-.27-.21-.53-.32-.79-.28-.69-.55-1.38-.83-2.06l-.24-.6c-.5-1.22-1-2.42-1.46-3.58l-.38-1c-.19-.45-.37-.89-.55-1.34s-.39-1-.59-1.42c-.07-.18-.14-.36-.22-.54s-.11-.27-.16-.41l-2.47-5.95,0,0L190,320.18q-.3-.72-.6-1.41l42.25,31.57L214,357.84l-.1,0L206.56,361C206.15,360,205.74,358.92,205.33,357.89Zm17.89,45.91Q221,398,218.75,392.23,215.24,383.17,212,375l2.8-1.19,11.43,13.29Zm23.54,60.93a7.63,7.63,0,0,0-.77-1.25c-3.39-9-7.69-20.29-12.45-32.76l7-38.32h12.14l7,38.32C254.69,443.78,250.22,455.59,246.76,464.73Zm8.73-87.33H237.73l-8.4-9.77,17.28-7.34,17.29,7.34Zm19,14.83Q272.24,398,270,403.8L267,387.08l11.43-13.29,2.8,1.19Q278,383.18,274.47,392.23Zm28.72-72.05c-.37.88-.75,1.8-1.15,2.73l-.15.37-1.2,2.87c0,.06-.05.13-.08.2-.35.85-.72,1.73-1.08,2.63l-.21.49-.25.62-.5,1.22c-.21.5-.41,1-.62,1.51l-.21.5-1.6,4-.26.63c-.27.67-.55,1.35-.82,2l-.33.81c-.28.71-.57,1.43-.87,2.15l-.24.62c-1,2.53-2.07,5.17-3.17,7.92,0,.09-.07.18-.11.28l-1.07,2.7c-.07.17-.14.34-.2.51-.38.94-.76,1.89-1.14,2.86l0,.05c-.41,1-.82,2.09-1.25,3.16l-7.37-3.13-.08,0-17.66-7.51,42.24-31.57Q303.49,319.46,303.19,320.18Zm18.24-23h0a20.48,20.48,0,0,0-13.15.5,19.82,19.82,0,0,1-5.12-12.86V263a52.85,52.85,0,0,1,44.23,42Zm58.18,106.17a23.8,23.8,0,1,1-23.8-23.8A23.82,23.82,0,0,1,379.61,403.38Z"/></svg>