<svg id="Layer_1" data-name="Layer 1" xmlns="http://www.w3.org/2000/svg" viewBox="0 0 537.68 526.17"><defs><style>.cls-1{fill:#fff;}</style></defs><title>Untitled-1</title><path class="cls-1" d="M468.81,355.55V210a87.75,87.75,0,0,0-88-88,90,90,0,0,0-40.8,9.6c-2.4-24-23.2-41.6-47.2-41.6h-16V74h8a7.56,7.56,0,0,0,8-8V34a7.56,7.56,0,0,0-8-8h-208a7.56,7.56,0,0,0-8,8V66a7.56,7.56,0,0,0,8,8h8V90h-16a48.14,48.14,0,0,0-48,48V426a48.14,48.14,0,0,0,48,48h233.6c19.2,37.6,61.6,56,102.4,44.8,46.4,13.6,95.2-13.6,108.8-60.8A88.45,88.45,0,0,0,468.81,355.55Zm-88-217.6a71.7,71.7,0,0,1,72,72V314h-144V210A71.7,71.7,0,0,1,380.81,138Zm-296-96h192V58h-192Zm176,32V90h-160V74Zm38.4,104H52.81v16h241.6a108.42,108.42,0,0,0-1.6,16h-232a7.56,7.56,0,0,0-8,8V346a7.56,7.56,0,0,0,8,8h232v16h-240v16h240v48a82.58,82.58,0,0,0,3.2,24H68.81a32.09,32.09,0,0,1-32-32V138a32.09,32.09,0,0,1,32-32h224a32.09,32.09,0,0,1,32,32v4C313.61,151.55,304,163.55,299.21,178Zm-6.4,48V338h-192V226Zm-208,0V338h-16V226Zm224,208V330h144v19.2c-46.4-13.6-95.2,13.6-108.8,60.8a87,87,0,0,0,34.4,96A72.26,72.26,0,0,1,308.81,434Zm64,44.8a70.72,70.72,0,0,1,0-89.6L473.61,490C442.41,514.75,397.61,510,372.81,478.75Zm112,0L384,378c31.2-24.8,76-20,100.8,11.2A70,70,0,0,1,484.81,478.75Z"/><path class="cls-1" d="M324.81,210v96h16V210a39.61,39.61,0,0,1,40-40V154A55.66,55.66,0,0,0,324.81,210Z"/></svg>