<svg id="Layer_1" data-name="Layer 1" xmlns="http://www.w3.org/2000/svg" viewBox="0 0 537.68 526.17"><defs><style>.cls-1{fill:#fff;}</style></defs><title>Untitled-1</title><path class="cls-1" d="M506.66,66.11a24.78,24.78,0,0,0-22-13.5H451.8V36.21A16.41,16.41,0,0,0,435.39,19.8H115.47a41.1,41.1,0,0,0-40.2,32.81H41.64A24.61,24.61,0,0,0,17,77.22V389a24.61,24.61,0,0,0,24.61,24.61H188.21l-6.15,49.22h-9.17a8.2,8.2,0,0,0-8.2,8.2v24.61H131.88V512h262.5V495.59H361.57V471a8.2,8.2,0,0,0-8.2-8.2H344.2l-6.15-49.22H484.62A24.61,24.61,0,0,0,509.23,389V77.75A24.83,24.83,0,0,0,506.66,66.11Zm-22,2.91a8.2,8.2,0,0,1,8.2,8.2V331.53H320.55v-82h90.24a41,41,0,0,0,41-41V69.06C460.32,69.06,473.86,69,484.62,69ZM435.4,208.48a24.61,24.61,0,1,1-49.22,0V60.82a40.86,40.86,0,0,0-8.42-24.61H435.4ZM362.54,43.36a24.79,24.79,0,0,1,7.23,17.46V208.48a40.6,40.6,0,0,0,8.42,24.61H320.55V60.82a24.62,24.62,0,0,1,42-17.46ZM90.86,60.82a24.61,24.61,0,0,1,24.61-24.61H312.56a40.57,40.57,0,0,0-8.41,24.61V331.53H90.86ZM41.64,69H74.45V331.53h-41V77.22A8.2,8.2,0,0,1,41.64,69ZM345.16,495.59H181.1v-16.4H345.16Zm-17.49-32.81H198.59l6.15-49.22H321.51Zm157-65.63h-443a8.2,8.2,0,0,1-8.2-8.2v-41H492.82v41A8.2,8.2,0,0,1,484.62,397.15Z"/><path class="cls-1" d="M427.2,364.34H460v16.41H427.2Z"/><path class="cls-1" d="M107.27,77.22H287.74V93.63H107.27Z"/><path class="cls-1" d="M107.27,126.44H287.74v16.41H107.27Z"/><path class="cls-1" d="M107.27,175.66H238.52v16.41H107.27Z"/><path class="cls-1" d="M254.93,175.66h32.81v16.41H254.93Z"/><path class="cls-1" d="M107.27,224.88H287.74v16.41H107.27Z"/><path class="cls-1" d="M107.27,274.1H238.52v16.41H107.27Z"/><path class="cls-1" d="M254.93,274.1h32.81v16.41H254.93Z"/></svg>