<svg xmlns="http://www.w3.org/2000/svg" enable-background="new 0 0 23.763 28" viewBox="0 0 23.763 28"><path d="M0,24.235l3.592-23.11C3.592,1.125,3.808,0,4.76,0h9.521c0,0,3.606,0.13,5.236,1.471c1.63,1.342,2.207,3.159,1.947,5.15c-0.26,1.991-1.125,5.453-3.549,7.054s-4.387,1.864-6.751,1.947c-2.445,0.087-3.535-0.612-3.852,1.601c-0.361,2.524-1.212,7.703-1.212,7.703s-4.919,0-5.496,0C0.101,24.927,0,24.235,0,24.235z" opacity=".8"/><path d="M8.9,7.131L6.102,25.014l-0.346,2.294c0,0-0.13,0.692,0.563,0.692s4.804,0,4.804,0s0.678,0.014,0.866-0.866s0.952-6.015,0.952-6.015s0.188-0.736,0.952-0.822c0,0,4.4,0.202,6.621-1.601c2.222-1.803,3.145-4.746,3.246-7.27s-1.572-5.15-6.318-5.15s-5.547,0-7.011,0S8.9,7.131,8.9,7.131z" opacity=".5"/></svg>