<svg id="Layer_1" data-name="Layer 1" xmlns="http://www.w3.org/2000/svg" viewBox="0 0 537.68 526.17"><defs><style>.cls-1{fill:#fff;}</style></defs><title>Untitled-1</title><path class="cls-1" d="M517.31,58.59a25.5,25.5,0,0,0-22.65-13.87H460.93V27.86A16.86,16.86,0,0,0,444.07,11H115.35a42.21,42.21,0,0,0-41.3,33.71H39.49A25.29,25.29,0,0,0,14.2,70v320.3A25.29,25.29,0,0,0,39.49,415.6h150.6l-6.32,50.58h-9.42a8.43,8.43,0,0,0-8.43,8.42v25.29H132.21v16.86H401.94V499.89H368.22V474.6a8.42,8.42,0,0,0-8.43-8.42h-9.41l-6.33-50.58H494.66a25.28,25.28,0,0,0,25.28-25.29V70.55A25.41,25.41,0,0,0,517.31,58.59Zm-22.65,3A8.44,8.44,0,0,1,503.09,70v261.3h-177V247H418.8a42.14,42.14,0,0,0,42.14-42.14V61.62C469.69,61.62,483.61,61.58,494.66,61.58Zm-50.58,143.3a25.29,25.29,0,0,1-50.57,0V53.15a42,42,0,0,0-8.65-25.29h59.22ZM369.22,35.22a25.44,25.44,0,0,1,7.43,17.93V204.88a41.69,41.69,0,0,0,8.65,25.28H326.08v-177a25.28,25.28,0,0,1,43.14-17.93ZM90.06,53.15a25.29,25.29,0,0,1,25.29-25.29H317.87a41.72,41.72,0,0,0-8.65,25.29V331.31H90.06ZM39.49,61.58H73.2V331.31H31.06V70A8.43,8.43,0,0,1,39.49,61.58ZM351.36,499.89H182.78V483H351.36Zm-18-33.71H200.76l6.32-50.58h120Zm161.27-67.44H39.49a8.42,8.42,0,0,1-8.43-8.43V348.17h472v42.14A8.43,8.43,0,0,1,494.66,398.74Z"/><path class="cls-1" d="M435.65,365h33.72v16.86H435.65Z"/><path class="cls-1" d="M106.92,70H292.36V86.87H106.92Z"/><path class="cls-1" d="M106.92,120.58H292.36v16.86H106.92Z"/><path class="cls-1" d="M106.92,171.16H241.79V188H106.92Z"/><path class="cls-1" d="M258.64,171.16h33.72V188H258.64Z"/><path class="cls-1" d="M106.92,221.73H292.36v16.86H106.92Z"/><path class="cls-1" d="M106.92,272.31H241.79v16.86H106.92Z"/><path class="cls-1" d="M258.64,272.31h33.72v16.86H258.64Z"/></svg>