<svg id="Layer_1" data-name="Layer 1" xmlns="http://www.w3.org/2000/svg" viewBox="0 0 537.68 420.44"><defs><style>.cls-1{fill:#fff;}</style></defs><title>Untitled-1</title><g id="Tracking"><path class="cls-1" d="M519.59,230.6,414.26,125.27a25.22,25.22,0,0,0-18-7.45H250.57v17H293V262.05h17V134.78h86.3a8.53,8.53,0,0,1,6,2.49l14.48,14.48H377.84a17,17,0,0,0-17,17v76.37a17,17,0,0,0,17,17H505.11v67.88a8.49,8.49,0,0,1-8.49,8.49H479a59.32,59.32,0,0,0-117.43,0H241.41a59.32,59.32,0,0,0-117.43,0H106.33a8.49,8.49,0,0,1-8.48-8.49V253.57h-17v76.36a25.45,25.45,0,0,0,25.45,25.46H124a59.17,59.17,0,0,0,17.23,33.93H13v17H420.26A59.44,59.44,0,0,0,479,355.39h17.64a25.46,25.46,0,0,0,25.46-25.46V236.6A8.49,8.49,0,0,0,519.59,230.6ZM140.27,346.9a42.43,42.43,0,1,1,42.42,42.42A42.42,42.42,0,0,1,140.27,346.9Zm83.9,42.42a59.18,59.18,0,0,0,17.24-33.93H361.55a59.17,59.17,0,0,0,17.23,33.93Zm196.09,0a42.42,42.42,0,1,1,42.43-42.42A42.42,42.42,0,0,1,420.26,389.32ZM377.84,245.09V168.72h55.88l71.39,71.39v5Z"/><rect class="cls-1" x="174.21" y="338.42" width="16.97" height="16.97"/><rect class="cls-1" x="411.78" y="338.42" width="16.97" height="16.97"/><rect class="cls-1" x="13" y="312.96" width="42.42" height="16.97"/><rect class="cls-1" x="29.97" y="279.02" width="25.45" height="16.97"/><rect class="cls-1" x="38.45" y="245.09" width="16.97" height="16.97"/><path class="cls-1" d="M123.3,236.6A110.3,110.3,0,1,0,13,126.3,110.3,110.3,0,0,0,123.3,236.6ZM123.3,33A93.33,93.33,0,1,1,30,126.3,93.32,93.32,0,0,1,123.3,33Z"/><path class="cls-1" d="M123.3,202.66a8.48,8.48,0,0,0,6-2.48c5.46-5.47,53.39-54.45,53.39-90.85a59.39,59.39,0,0,0-118.78,0c0,36.4,47.93,85.38,53.39,90.85A8.48,8.48,0,0,0,123.3,202.66Zm0-135.75a42.46,42.46,0,0,1,42.42,42.42c0,21.77-26.7,55.41-42.42,72.55-15.72-17.14-42.42-50.78-42.42-72.55A42.47,42.47,0,0,1,123.3,66.91Z"/><path class="cls-1" d="M148.75,109.33a25.45,25.45,0,1,0-25.45,25.45A25.44,25.44,0,0,0,148.75,109.33Zm-33.93,0a8.48,8.48,0,1,1,8.48,8.49A8.48,8.48,0,0,1,114.82,109.33Z"/><rect class="cls-1" x="335.42" y="279.02" width="33.94" height="16.97"/></g></svg>