<?xml version="1.0" encoding="UTF-8" standalone="no"?>
<!-- Generator: Adobe Illustrator 20.0.0, SVG Export Plug-In . SVG Version: 6.00 Build 0)  -->
<svg id="Layer_1" style="enable-background:new 0 0 91.7 57.2" xmlns="http://www.w3.org/2000/svg" xml:space="preserve" viewBox="0 0 91.7 57.2" version="1.1" y="0px" x="0px" xmlns:xlink="http://www.w3.org/1999/xlink">
<style type="text/css">
	.st0{fill:none;stroke:#37BECD;stroke-linecap:round;stroke-linejoin:round;stroke-miterlimit:10;stroke-dasharray:3;}
	.st1{fill:none;stroke:#36BFCD;stroke-linecap:round;stroke-linejoin:round;stroke-miterlimit:10;}
	.st2{fill:#C2E6EC;stroke:#36BFCD;stroke-linecap:round;stroke-linejoin:round;stroke-miterlimit:10;}
</style>
		<ellipse rx="14.9" ry="14.9" transform="matrix(.088893 -.996 .996 .088893 27.872 114.05)" cy="41.8" cx="76.3" class="st0"/>
		<line y1="35.4" x2="76.3" x1="76.3" y2="48.2" class="st1"/>
		<line y1="41.8" x2="69.9" x1="82.7" y2="41.8" class="st1"/>
	<rect y=".6" x=".5" height="7.4" class="st2" width="75.8"/>
	<path class="st1" d="m60.9 39.9h-54.4v-26.7h62.8v15.2"/>
	<path class="st1" d="m76.3 27v-26.5h-75.8v47.1h61.5"/>
	<path class="st1" d="m69.3 28.4v-15.2h-62.8v26.8h54.4"/>
		<line y1="20" x2="10.2" x1="10.2" y2="20" class="st1"/>
		<line y1="20" x2="20.8" x1="12.1" y2="20" class="st1"/>
		<line y1="29.6" x2="31" x1="31" y2="29.6" class="st1"/>
		<line y1="29.6" x2="41.6" x1="32.9" y2="29.6" class="st1"/>
		<line y1="22.1" x2="52.8" x1="52.8" y2="22.1" class="st1"/>
		<line y1="22.1" x2="63.4" x1="54.7" y2="22.1" class="st1"/>
	<line y1="13.2" x2="27.2" x1="27.2" y2="39.9" class="st1"/>
	<line y1="13.2" x2="49.2" x1="49.2" y2="39.9" class="st1"/>
</svg>
