<?xml version="1.0" encoding="UTF-8"?>
<svg width="68px" height="79px" viewBox="0 0 68 79" version="1.1" xmlns="http://www.w3.org/2000/svg" xmlns:xlink="http://www.w3.org/1999/xlink">
    <!-- Generator: Sketch 52.5 (67469) - http://www.bohemiancoding.com/sketch -->
    <title>Bangalore</title>
    <desc>Created with Sketch.</desc>
    <defs>
        <path d="M21.3861386,16.1999434 L21.3861386,0 L43.5643564,0 L43.5643564,16.1999434 C56.0395519,20.7317972 64.950495,32.6916041 64.950495,46.7326733 C64.950495,64.6682572 50.4108315,79.2079208 32.4752475,79.2079208 C14.5396636,79.2079208 0,64.6682572 0,46.7326733 C0,32.6916041 8.91094312,20.7317972 21.3861386,16.1999434 Z" id="path-1"></path>
    </defs>
    <g id="Page-1" stroke="none" stroke-width="1" fill="none" fill-rule="evenodd">
        <g id="City-picker" transform="translate(-26.000000, -203.000000)">
            <g id="Bangalore" transform="translate(26.000000, 200.000000)">
                <circle id="Oval-Copy-6" stroke="#3D6EB4" stroke-width="1.5" fill="#ECFAFE" cx="33.9940455" cy="47.7873997" r="33.2252475"></circle>
                <g id="Group-6-Copy" transform="translate(1.518798, 1.054726)">
                    <g id="Group-6-Clipped">
                        <mask id="mask-2" fill="white">
                            <use xlink:href="#path-1"></use>
                        </mask>
                        <g id="path-1"></g>
                        <g id="Group-6" mask="url(#mask-2)">
                            <g transform="translate(-10.000000, 1.000000)" id="Group">
                                <g transform="translate(0.495050, 0.584158)">
                                    <g id="Banaglore">
                                        <path d="M42.1073016,5.54455446 C53.8827135,10.5412774 52.3430827,16.4962535 52.3430827,16.4962535 C52.3430827,19.196785 50.4813138,21.3861386 48.1742364,21.3861386 L36.0466832,21.3861386 C33.7522386,21.3861386 31.8825741,19.196785 31.8825741,16.4962535 C31.8825741,16.4962535 30.3318896,10.5412774 42.1073016,5.54455446 Z" id="Stroke-3" stroke="#3D6EB4" stroke-width="1.5" fill="#FFFFFF"></path>
                                        <path d="M24.972599,26.3509189 L24.972599,30.081612" id="Stroke-54" stroke="#3D6EB4" stroke-width="1.5" stroke-linecap="round"></path>
                                        <path d="M59.2648329,26.3509189 L59.2648329,30.081612" id="Stroke-54-Copy" stroke="#3D6EB4" stroke-width="1.5" stroke-linecap="round"></path>
                                        <path d="M42.1172391,1.54545792 L42.1172391,5.27615099" id="Stroke-54-Copy-2" stroke="#3D6EB4" stroke-width="1.5" stroke-linecap="round"></path>
                                        <g id="Group-8" transform="translate(41.188119, 0.000000)" fill="#FFFFFF">
                                            <path d="M0.786376238,5.15740198 L0.786376238,0.516609901" id="Fill-5"></path>
                                        </g>
                                        <path d="M33.2673267,26.9306931 L50.6930693,26.9306931 L50.6930693,23.3861386 C50.6930693,22.2815691 49.7976388,21.3861386 48.6930693,21.3861386 L35.2673267,21.3861386 C34.1627572,21.3861386 33.2673267,22.2815691 33.2673267,23.3861386 L33.2673267,26.9306931 Z" id="Stroke-11" stroke="#3D6EB4" stroke-width="1.5" fill="#FFFFFF"></path>
                                        <polygon id="Stroke-13" stroke="#3D6EB4" stroke-width="1.5" fill="#FFFFFF" points="20.5940594 66.5346535 28.5148515 66.5346535 28.5148515 38.019802 20.5940594 38.019802"></polygon>
                                        <polygon id="Stroke-20" stroke="#3D6EB4" stroke-width="1.5" fill="#FFFFFF" points="55.4455446 66.5346535 63.3663366 66.5346535 63.3663366 38.019802 55.4455446 38.019802"></polygon>
                                        <path d="M54.8731423,42.2555248 L28.4693903,42.2555248" id="Stroke-27" stroke="#3D6EB4" stroke-width="1.5"></path>
                                        <path d="M54.8731423,42.2555248 L28.4693903,42.2555248" id="Stroke-30" stroke="#3D6EB4" stroke-width="1.5"></path>
                                        <path d="M28.5148515,30.8779849 C28.5148515,27.5087362 31.2878457,26.9306931 34.7064437,26.9306931 L49.2495203,26.9306931 C52.6725504,26.9306931 55.4455446,27.5087362 55.4455446,30.8779849 L55.4455446,31.6831683 L28.5148515,31.6831683 L28.5148515,30.8779849 Z" id="Stroke-35" stroke="#3D6EB4" stroke-width="1.5" fill="#FFFFFF"></path>
                                        <path d="M30.4345607,35.6811692 C30.4345607,35.6811692 30.902277,34.0726973 28.5148515,32.2591277 L28.5148515,31.6831683 L55.4455446,31.6831683 L55.4455446,32.2731755 C53.0818008,34.0825308 53.534716,35.6811692 53.534716,35.6811692 C53.534716,36.8794457 54.370981,37.8670053 55.4455446,38.0102927 L55.4455446,41.980198 L28.5148515,41.980198 L28.5148515,38.0299596 C29.5953355,37.8641957 30.4345607,36.8766361 30.4345607,35.6811692 Z" id="Stroke-39" stroke="#3D6EB4" stroke-width="1.5" fill="#FFFFFF"></path>
                                        <polygon id="Stroke-41" stroke="#3D6EB4" stroke-width="1.5" points="28.5148515 66.5346535 55.4455446 66.5346535 55.4455446 41.980198 28.5148515 41.980198"></polygon>
                                        <rect id="Rectangle" stroke="#3D6EB4" stroke-width="1.5" fill="#FFFFFF" x="28.5148515" y="41.980198" width="9.5049505" height="24.5544554"></rect>
                                        <rect id="Rectangle-Copy-2" stroke="#3D6EB4" stroke-width="1.5" fill="#FFFFFF" x="45.9405941" y="41.980198" width="9.5049505" height="24.5544554"></rect>
                                        <polygon id="Stroke-43" stroke="#3D6EB4" stroke-width="1.5" fill="#7EDCF7" points="28.5148515 66.5346535 55.4455446 66.5346535 55.4455446 61.7821782 28.5148515 61.7821782"></polygon>
                                        <path d="M36.4855446,35.4114851 L36.4855446,39.1421782" id="Stroke-51" stroke="#3D6EB4" stroke-width="1.5" stroke-linecap="round"></path>
                                        <path d="M41.900198,35.4114851 L41.900198,39.1421782" id="Stroke-54" stroke="#3D6EB4" stroke-width="1.5" stroke-linecap="round"></path>
                                        <path d="M48.1099406,35.4114851 L48.1099406,39.1421782" id="Stroke-57" stroke="#3D6EB4" stroke-width="1.5" stroke-linecap="round"></path>
                                        <path d="M83.5770297,48.3168317 L62.5742574,48.3168317" id="Stroke-60" stroke="#3D6EB4" stroke-width="1.5"></path>
                                        <polygon id="Stroke-63" stroke="#3D6EB4" stroke-width="1.5" fill="#FFFFFF" points="63.3663366 48.3168317 83.960396 48.3168317 83.960396 41.980198 63.3663366 41.980198"></polygon>
                                        <polygon id="Stroke-65" stroke="#3D6EB4" stroke-width="1.5" fill="#FFFFFF" points="63.3663366 66.5346535 83.960396 66.5346535 83.960396 48.3168317 63.3663366 48.3168317"></polygon>
                                        <path d="M76.0954487,53.0693069 L78.3558819,53.0693069 C79.2608791,53.7843009 79.2073209,54.7408845 79.2073209,54.7408845 L79.2073209,57.029703 L75.2481296,57.029703 L75.2481296,54.7408845 C75.2481296,54.7408845 75.1945713,53.7843009 76.0954487,53.0693069 Z" id="Stroke-74" stroke="#3D6EB4" stroke-width="1.5" fill="#FFFFFF"></path>
                                        <polygon id="Stroke-76" stroke="#3D6EB4" stroke-width="1.5" fill="#FFFFFF" points="75.2475248 66.5346535 79.2079208 66.5346535 79.2079208 61.7821782 75.2475248 61.7821782"></polygon>
                                        <path d="M67.3832147,53.0693069 L69.645116,53.0693069 C70.550701,53.7843009 70.4943596,54.7408845 70.4943596,54.7408845 L70.4943596,57.029703 L66.5353453,57.029703 L66.5353453,54.7408845 C66.5353453,54.7408845 66.4790039,53.7843009 67.3832147,53.0693069 Z" id="Stroke-78" stroke="#3D6EB4" stroke-width="1.5" fill="#7EDCF7"></path>
                                        <polygon id="Stroke-91" stroke="#3D6EB4" stroke-width="1.5" fill="#FFFFFF" points="0 66.5346535 20.5940594 66.5346535 20.5940594 48.3168317 0 48.3168317"></polygon>
                                        <polygon id="Stroke-93" stroke="#3D6EB4" stroke-width="1.5" fill="#FFFFFF" points="0 48.3168317 20.5940594 48.3168317 20.5940594 41.980198 0 41.980198"></polygon>
                                        <path d="M7.86705546,53.0693069 L5.602408,53.0693069 C4.69682385,53.7843009 4.7531652,54.7408845 4.7531652,54.7408845 L4.7531652,57.029703 L8.71217571,57.029703 L8.71217571,54.7408845 C8.71217571,54.7408845 8.76851707,53.7843009 7.86705546,53.0693069 Z" id="Stroke-102" stroke="#3D6EB4" stroke-width="1.5" fill="#FFFFFF"></path>
                                        <polygon id="Stroke-104" stroke="#3D6EB4" stroke-width="1.5" fill="#FFFFFF" points="4.75247525 66.5346535 8.71287129 66.5346535 8.71287129 61.7821782 4.75247525 61.7821782"></polygon>
                                        <path d="M16.5771813,53.0693069 L14.3152801,53.0693069 C13.4096951,53.7843009 13.4660365,54.7408845 13.4660365,54.7408845 L13.4660365,57.029703 L17.4250508,57.029703 L17.4250508,54.7408845 C17.4250508,54.7408845 17.4813922,53.7843009 16.5771813,53.0693069 Z" id="Stroke-106" stroke="#3D6EB4" stroke-width="1.5" fill="#7EDCF7"></path>
                                        <rect id="Rectangle-Copy" stroke="#3D6EB4" stroke-width="1.5" fill="#FFFFFF" x="37.2277228" y="41.980198" width="9.5049505" height="19.8019802"></rect>
                                    </g>
                                    <g id="Group-5" transform="translate(18.217822, 30.099010)" fill="#FFFFFF" stroke="#3D6EB4" stroke-width="1.5">
                                        <path d="M6.8840188,0 C14.1315588,2.49629399 13.1829913,5.47281346 13.1829913,5.47281346 C13.1829913,6.82564375 12.0336322,7.92079208 10.612512,7.92079208 L3.15206364,7.92079208 C1.7413292,7.92079208 0.591970098,6.82564375 0.591970098,5.47281346 C0.591970098,5.47281346 -0.361790241,2.49629399 6.8840188,0 Z" id="Stroke-15"></path>
                                        <path d="M41.1879298,0 C48.4340573,2.49629399 47.4837171,5.47281346 47.4837171,5.47281346 C47.4837171,6.82564375 46.3377696,7.92079208 44.9165869,7.92079208 L37.4558107,7.92079208 C37.3467552,7.92079208 37.2394309,7.91493567 37.1338375,7.90029465 C35.8736414,7.75242034 34.8921425,6.7231566 34.8921425,5.47281346 C34.8921425,5.47281346 34.3624447,3.80812943 37.1269133,1.92090189 C38.0564811,1.2869457 39.3616841,0.629563881 41.1879298,0 Z" id="Stroke-22"></path>
                                    </g>
                                </g>
                            </g>
                        </g>
                    </g>
                </g>
            </g>
        </g>
    </g>
</svg>