<svg id="Layer_1" data-name="Layer 1" xmlns="http://www.w3.org/2000/svg" xmlns:xlink="http://www.w3.org/1999/xlink" viewBox="0 0 134 134">
  <defs>
    <clipPath id="clip-path">
      <circle cx="67" cy="67" r="67" fill="#edf1ff"/>
    </clipPath>
  </defs>
  <title>Bones</title>
  <g>
    <circle cx="67" cy="67" r="67" fill="#edf1ff"/>
    <g clip-path="url(#clip-path)">
      <g>
        <path d="M-64.38,25c-.3-3.9.82-8,3.39-10.41,3.53-3.34,9-3,13.5-2.49a106.24,106.24,0,0,0,14.68,1c11.9-.2,23.46,4.24,34.73,7.52,6.57,1.24,12.76,3.68,19.14,5.59,5.82,1.75,12,3.91,17.81,6.2,3,1.17,5.91,2.73,9.09,3.36,7.22,1.43,16.81-.67,22.61,5.16,8,8,1,20.16-4.65,27.27-4.05,5.14-9.84,5.72-15.25,2.34-4.38-2.74-3.77-8.84-5.37-13.1-1.9-5-7.7-6.35-12.24-8.1Q24.66,46.15,16,43.68c-17.56-5-38.22-9.48-56.58-8.2-5.69.4-12.44,1.61-17.86-.71C-62.07,33.23-64,29.23-64.38,25Z" fill="#fff" stroke="#66687a" stroke-linecap="round" stroke-miterlimit="10" stroke-width="2.46"/>
        <path d="M80.54,42.22c2.52-1.13,7.11,2.77,8.57,5.31a9.91,9.91,0,0,1-.93,11.89,13.49,13.49,0,0,1-5.78,4.2,4.43,4.43,0,0,1-2.31.19c-2.3-.49-3.39-3.27-3.18-5.61s1.32-4.53,1.7-6.85c.3-1.87.13-3.78.25-5.66S79.63,42.62,80.54,42.22Z" fill="#ff8586"/>
        <path d="M100.12,97A72.72,72.72,0,0,0,98.81,83.2c-1.13-5.56-2.9-10.88-3.87-16.45-.18-1.08-.28-3-1.19-3.78a2.68,2.68,0,0,0-3.34.44,11.26,11.26,0,0,1-2.09,2.27,10,10,0,0,1-7.54,1.9c-.82-.16-1.52-.65-2.36-.73a8.7,8.7,0,0,0-8.71,5.28c-.78,2,.58,3,1.66,4.43s2.35,2.26,3.51,3.52c4.43,4.78,5.48,11.52,7.05,17.62a122.79,122.79,0,0,1,3.8,20.63c.59,7.3,0,14.64,0,22,0,3.8-3.65,28.34.19,29.58,2.12.69,8.57,2.65,10.61,1.09,2.61-2,.48-6.91.38-9.62C96.13,139.77,100.44,118.51,100.12,97Z" fill="#fff" stroke="#66687a" stroke-linecap="round" stroke-miterlimit="10" stroke-width="2.46"/>
        <path d="M68.53,140.37c-.51-9.78-1.09-19.54-2-29.29-.79-8.43-4-17.35-3.91-25.77,0-2.14,1.57-8.81,4.86-5.89a25.29,25.29,0,0,1,6.8,10.16c2.48,7.28,3,13.67,4.42,21.23,2.11,11.24,1.71,26.43,1,37.79-.46,7,2.14,23.13-8.54,22-2.74-.29-1.83,1.23-3-1.39-1.47-3.43,0-8.67,0-12.27C68.29,151.43,68.81,145.9,68.53,140.37Z" fill="#ff8586"/>
      </g>
    </g>
  </g>
</svg>
