<svg xmlns="http://www.w3.org/2000/svg" xmlns:xlink="http://www.w3.org/1999/xlink" width="74" height="80" viewBox="0 0 74 80">
    <defs>
        <ellipse id="prefix__a" cx="37" cy="36.549" rx="37" ry="36.549"/>
        <path id="prefix__c" d="M0.37 0.566L2.232 0.566 2.232 4.578 0.37 4.578z"/>
    </defs>
    <g fill="none" fill-rule="evenodd">
        <g transform="translate(0 6.317)">
            <mask id="prefix__b" fill="#fff">
                <use xlink:href="#prefix__a"/>
            </mask>
            <use fill="#E6EFFB" xlink:href="#prefix__a"/>
            <g mask="url(#prefix__b)">
                <g>
                    <path fill="#1F1E28" d="M15.538.155c.118.067.232.156.343.274.533.559.912 1.426 1.326 2.075 1.648 2.578 3.297 5.158 4.944 7.738 3.628 5.676 7.255 11.353 10.881 17.031l1.412 2.208c.31.486.628.997.677 1.569.063.756-.354 1.46-.77 2.096-1.872 2.852-4.172 6.006-6.847 8.374-1.131.999-2.91.78-3.76-.46-5.016-7.324-9.78-14.951-14.85-22.28C6.63 15.506 2.785 11.095.583 7.453-.271 6.04-.37 4.732 1.542 4.47c3.48-.48 7.247-2.028 10.47-3.357l.593-.246c1.049-.432 2.072-1.195 2.933-.712" transform="translate(13.104 17.513)"/>
                    <path fill="#FFEEDE" d="M16.495 2.958L31.59 26.144c.249.38.504.782.543 1.234.05.595-.283 1.148-.618 1.649-1.906 2.85-4.365 6.084-7.293 7.946-4.474-6.282-8.649-12.907-13.12-19.25-1.816-2.577-4.817-6.285-5.992-9.112C3.94 5.797 1.58 6.93 8.292 5.277c2.76-.681 5.47-1.546 8.203-2.32" transform="translate(13.104 17.513)"/>
                    <g transform="translate(13.104 17.513) matrix(-1 0 0 1 32.138 30.317)">
                        <mask id="prefix__d" fill="#fff">
                            <use xlink:href="#prefix__c"/>
                        </mask>
                        <path fill="#31303E" d="M1.646 2.237c-.202-.488-.42-.96-.65-1.41C.94.715.876.6.79.572.65.525.526.73.435.915c-.031.063-.063.132-.065.212-.002.079.028.151.056.217l1.39 3.234c.219-.276.462-.655.409-1.1-.015-.123-.053-.239-.092-.347-.212-.587-.484-1.114-.803-1.551" mask="url(#prefix__d)"/>
                    </g>
                    <path fill="#9EC16A" d="M30.857 29.361c-1.444 1.199-2.551 2.074-3.658 3.496-.181.234-.482.505-.789.392-.182-.068-.258-.243-.33-.396-.25-.54-.664-1.03-1.193-1.41-.096-.07-.202-.145-.22-.248-.015-.077.023-.153.067-.223.202-.31.54-.543.859-.777 1.239-.91 2.309-1.98 3.16-3.154.142-.196.324-.418.599-.42.265-.005.456.2.602.383l1.353 1.707c.046.058.095.125.081.194-.012.054-.059.097-.105.138l-1.107.98c-1.2 1.065-2.328 1.895-3.363 3.072" transform="translate(13.104 17.513)"/>
                    <path fill="#E2AC76" d="M20.375 13.548c.226.415.456.841.528 1.308.164 1.048-.537 2.101-1.484 2.559-.946.458-2.072.4-3.074.081-1.887-.596-3.465-2.114-4.15-3.986-.207-.569-.335-1.204-.14-1.78.18-.53.61-.934 1.03-1.302.712-.628 1.48-1.245 2.399-1.47.884-.213 1.855-.019 2.591.517 1.206.878 1.606 2.798 2.3 4.073" transform="translate(13.104 17.513)"/>
                    <path fill="#351C03" d="M20.45 11.604c-.845-1.223-2.112-2.264-3.654-2.616-1.542-.351-3.353.11-4.232 1.315-.62.85-.717 1.947-.502 2.949.452 2.097 2.271 3.902 4.533 4.495-1.177-1.059-2.084-2.363-2.632-3.783-.073-.19-.14-.395-.065-.584.033-.084.093-.157.154-.228.662-.761 1.6-1.32 2.634-1.567.908-.218 1.984-.156 2.64.456.245.228.414.516.658.746.244.23.61.4.943.296-.104-.943-.673-1.834-1.52-2.387" transform="translate(13.104 17.513)"/>
                    <path fill="#E2AC76" d="M21.298 17.747c.012.326.127.65.33.924.026.037.056.078.043.12-.011.041-.059.066-.102.086-.208.093-.415.185-.622.28-.083.038-.173.076-.267.068-.076-.007-.144-.044-.208-.082-.38-.22-.729-.48-1.04-.771" transform="translate(13.104 17.513)"/>
                    <path fill="#65C3B6" d="M24.542 19.037c.72.79 1.661 2.028 2.1 2.628.103.143.21.29.251.46.098.396-.382.876-.596 1.184-.942 1.354-2.37 2.245-3.423 3.535-.49.6-1.1 1.259-1.912 1.255-.875-.004-1.436-.725-1.872-1.33-.854-1.187-1.716-2.386-2.276-3.715-.298-.709-.508-1.498-.265-2.222.284-.848 1.158-1.563 1.772-2.221.626-.67 1.381-1.4 2.367-1.568 1.57-.265 2.934.986 3.854 1.994" transform="translate(13.104 17.513)"/>
                    <path fill="#F7C68F" d="M68.22 52.218c3.808.837-1.387 16.756-8.35 14.926-8.903-2.34-17.672-5.159-26.255-8.435-4.236-1.617-8.427-3.347-12.566-5.184-3.466-1.54-7.196-2.999-9.316-6.275C6.07 38.5 3.03 26.148 7.105 16.268l5.114 7.458c.333.485.697.998 1.206 1.185 1.433.532 2.43-1.7 2.557-3.45.128-1.749.36-4.003 1.821-4.415 1.961-.555 2.817 2.976 2.08 5.166-.735 2.192-2.089 4.609-1.11 6.668.542 1.14 1.45 1.89 2.217 2.858.782.987 1.399 2.093 1.837 3.264.548 1.46.818 3.022.78 4.577-.007.315-.578 3.88-.477 3.917 13.156 4.626 31.435 5.718 45.09 8.722z" transform="translate(13.104 17.513)"/>
                </g>
            </g>
        </g>
        <g>
            <path fill="#28328C" d="M2.239 17.964C1.002 17.964 0 17.037 0 15.89V2.738C0 1.593 1.002.667 2.239.667h29.815c1.236 0 2.239.926 2.239 2.07v13.154c0 1.146-1.003 2.073-2.24 2.073H2.24z" transform="translate(27.976)"/>
            <path fill="#28328C" d="M0 15.708c.026 2.46.411 4.6.797 6.768.33-1.583 1.02-3.258 2.535-4.044 1.586-.822 3.651-.444 5.241-1.26" transform="translate(27.976)"/>
            <path fill="#FFF" d="M21.707 9.3c-.404-.043-.732.333-.652.747l.218 1.125c.026.129.054.266.145.357.15.153.394.11.598.062.598-.151 1.196-.298 1.793-.45.174-.043.36-.086.528-.024.295.104.414.48.396.806-.019.322-.041 1.342-.04 1.667.004.506.227.29.675.485.448.197 1.68.216 1.653-.29-.054-1.012.146-1.732-.047-2.653.506-.146 1.046-.091 1.574-.109.526-.016 1.207.03 1.56-.138.477-.229.312-1.52-.134-1.813-.232-.153-.526-.152-.801-.144-.86.028-1.454-.011-2.314.013-.089-1.266.753-3.47-.752-3.74-.56-.1-1.12.147-1.366.664-.139.291-.086 3.287-.183 3.33-.97.429-1.8.215-2.85.105z" transform="translate(27.976)"/>
            <g>
                <path fill="#FDC957" d="M1.03 6.722c.433.543.988.99 1.613 1.279 1.386.639 3.108.446 4.324-.483 1.216-.933 1.875-2.562 1.654-4.096-.061-.421-.186-.837-.388-1.208C6.178-1.55-.703-.336.058 4.5c.128.81.467 1.584.972 2.22z" transform="translate(27.976) translate(7.014 5.18)"/>
                <path fill="#1F1E28" d="M1.511 2.217c-.226-.055-.437.187-.428.414.012.33.398.59.72.487.321-.104.47-.538.277-.81-.192-.271-.662-.288-.875-.033M5.843 2.217c-.226-.056-.437.186-.428.413.012.33.399.59.72.488.321-.105.469-.539.278-.81-.193-.271-.663-.288-.877-.033M3.198 6.224c.144.042.302.056.458.057.716.005 1.444-.299 1.72-.785.043-.078.067-.18-.02-.235-.075-.048-.198-.027-.271.024-.074.051-.11.122-.155.19-.224.328-.695.559-1.194.583-.113.006-.23 0-.333-.032-.091-.03-.166-.08-.239-.128-.175-.12-.358-.232-.518-.364-.073-.06-.202-.227-.337-.207-.48.069.39.65.497.714.12.073.247.14.392.183z" transform="translate(27.976) translate(7.014 5.18)"/>
            </g>
        </g>
    </g>
</svg>
