<?xml version="1.0" encoding="UTF-8"?>
<svg width="69px" height="82px" viewBox="0 0 69 82" version="1.1" xmlns="http://www.w3.org/2000/svg" xmlns:xlink="http://www.w3.org/1999/xlink">
    <!-- Generator: Sketch 52.5 (67469) - http://www.bohemiancoding.com/sketch -->
    <title>Hyderabad</title>
    <desc>Created with Sketch.</desc>
    <defs>
        <path d="M8.87383006,23.4453317 L8.87383006,0 L56.8738301,0 L56.8738301,23.4453317 C62.1385712,29.2173635 65.3490776,36.8955209 65.3490776,45.3235323 C65.3490776,63.2591162 50.809414,77.7987798 32.8738301,77.7987798 C14.9382461,77.7987798 0.398582534,63.2591162 0.398582534,45.3235323 C0.398582534,36.8955209 3.60908891,29.2173635 8.87383006,23.4453317 Z" id="path-1"></path>
    </defs>
    <g id="Page-1" stroke="none" stroke-width="1" fill="none" fill-rule="evenodd">
        <g id="City-picker" transform="translate(-153.000000, -317.000000)">
            <g id="Hyderabad" transform="translate(154.000000, 317.000000)">
                <rect id="Rectangle" fill="#FFFFFF" x="0" y="0" width="68" height="82"></rect>
                <circle id="Oval-Copy-6" stroke="#3D6EB4" stroke-width="1.5" fill="#ECFAFE" cx="33.8738301" cy="47.6790013" r="33.2252475"></circle>
                <g id="group" transform="translate(1.000000, 2.355469)">
                    <g id="hyderabad-copy-Clipped">
                        <mask id="mask-2" fill="white">
                            <use xlink:href="#path-1"></use>
                        </mask>
                        <g id="path-1"></g>
                        <g id="hyderabad-copy" mask="url(#mask-2)">
                            <g transform="translate(10.000000, 2.000000)" id="Hyderabad">
                                <g transform="translate(0.000000, 0.181755)">
                                    <g id="Group" stroke="#3D6EB4">
                                        <rect id="Rectangle" fill="#FFFFFF" x="9.5" y="28.9627762" width="28" height="12"></rect>
                                        <path d="M36.3779496,43.5484606 L9.66168614,43.5484606 L9.66168614,68.6170616 L36.3779496,68.6170616 C36.3779496,52.2761668 36.3779496,43.9199665 36.3779496,43.5484606 Z" id="Stroke-70" stroke-width="1.5" fill="#FFFFFF"></path>
                                        <path d="M19.6716794,44.2313309 L19.6716794,40.5567774 C19.6716794,40.5567774 19.9103536,38.3838495 15.3823624,36.7200015 C10.8560761,38.3838495 11.0896358,40.5567774 11.0896358,40.5567774 L11.0896358,44.2313309 L19.6716794,44.2313309 Z" id="Stroke-41" stroke-width="1.5" fill="#FFFFFF"></path>
                                        <path d="M26.9695863,44.2313309 L26.9695863,40.5567774 C26.9695863,40.5567774 27.1744516,38.3838495 23.2878626,36.7200015 C19.4027369,38.3838495 19.6032123,40.5567774 19.6032123,40.5567774 L19.6032123,44.2313309 L26.9695863,44.2313309 Z" id="Stroke-41-Copy-2" stroke-width="1.5" fill="#FFFFFF" stroke-linejoin="round"></path>
                                        <path d="M34.9947611,44.2313309 L34.9947611,40.5567774 C34.9947611,40.5567774 35.2127161,38.3838495 31.0793558,36.7200015 C26.9444387,38.3838495 27.1608368,40.5567774 27.1608368,40.5567774 L27.1608368,44.2313309 L34.9947611,44.2313309 Z" id="Stroke-45" stroke-width="1.5" fill="#FFFFFF"></path>
                                        <polygon id="Stroke-27" stroke-width="1.5" fill="#FFFFFF" points="4.74912803 29.7216012 10.7265101 29.7216012 10.7265101 26.2110716 4.74912803 26.2110716"></polygon>
                                        <polygon id="Stroke-29" stroke-width="1.5" fill="#FFFFFF" points="10.7265101 29.7216012 16.6950537 29.7216012 16.6950537 26.2110716 10.7265101 26.2110716"></polygon>
                                        <polygon id="Stroke-31" stroke-width="1.5" fill="#FFFFFF" points="16.6950537 29.7216012 23.0373415 29.7216012 23.0373415 26.2110716 16.6950537 26.2110716"></polygon>
                                        <polygon id="Stroke-33" stroke-width="1.5" fill="#FFFFFF" points="23.0373415 29.7216012 29.3846799 29.7216012 29.3846799 26.2110716 23.0373415 26.2110716"></polygon>
                                        <polygon id="Stroke-35" stroke-width="1.5" fill="#FFFFFF" points="29.3846799 29.7216012 35.3810017 29.7216012 35.3810017 26.2110716 29.3846799 26.2110716"></polygon>
                                        <polygon id="Stroke-37" stroke-width="1.5" fill="#FFFFFF" points="35.3810017 29.7216012 41.3520706 29.7216012 41.3520706 26.2110716 35.3810017 26.2110716"></polygon>
                                        <polygon id="Stroke-2" stroke-width="1.5" fill="#FFFFFF" points="3.75 25.2088899 6.1445626 25.2088899 8.35800018 25.2088899 8.35800018 16.7644451 3.75 16.7644451"></polygon>
                                        <polygon id="Stroke-4" stroke-width="1.5" fill="#FFFFFF" points="3.84000015 12.5422227 8.44800034 12.5422227 8.44800034 8.32000033 3.84000015 8.32000033"></polygon>
                                        <polygon id="Stroke-6" stroke-width="1.5" fill="#FFFFFF" points="2.30400009 39.6415414 9.80400009 39.6415414 9.80400009 28.5866678 2.30400009 28.5866678"></polygon>
                                        <polygon id="Stroke-8" stroke-width="1.5" fill="#FFFFFF" points="2.23027209 68.6170616 9.73027209 68.6170616 9.73027209 43.040351 2.23027209 43.040351"></polygon>
                                        <path d="M6.07580273,3.25333346 C9.51337086,4.85189708 9.06270844,6.75652714 9.06270844,6.75652714 C9.06270844,7.61916665 8.51712122,8.32000033 7.8461964,8.32000033 L4.30725226,8.32000033 C3.63724903,8.32000033 3.09166181,7.61916665 3.09166181,6.75652714 C3.09166181,6.75652714 2.63915619,4.85189708 6.07580273,3.25333346 Z" id="Stroke-11" stroke-width="1.5" fill="#FFFFFF"></path>
                                        <path d="M6.11914062,0.962776184 L6.11914062,3.36967723" id="Stroke-54-Copy-4" stroke-width="1.5" stroke-linecap="round"></path>
                                        <path d="M40.1735026,0.962776184 L40.1735026,3.36967723" id="Stroke-54-Copy-7" stroke-width="1.5" stroke-linecap="round"></path>
                                        <path d="M9.54805286,16.6338642 C9.54805286,17.1931348 9.13333284,17.6427642 8.62000162,17.6427642 L3.29960461,17.6427642 C2.78903819,17.6427642 2.37431817,17.1931348 2.37431817,16.6338642 L2.37431817,13.4945052 C2.37431817,12.9372464 2.78903819,12.4845993 3.29960461,12.4845993 L8.62000162,12.4845993 C9.13333284,12.4845993 9.54805286,12.9372464 9.54805286,13.4945052 L9.54805286,16.6338642 Z" id="Stroke-16" stroke-width="1.5" fill="#FFFFFF"></path>
                                        <path d="M10.880963,28.7098847 C10.880963,29.2691553 10.470851,29.7207965 9.95659816,29.7207965 L1.96632584,29.7207965 C1.45575942,29.7207965 1.0382746,29.2691553 1.0382746,28.7098847 L1.0382746,25.2908904 C1.0382746,24.729608 1.45575942,24.2809845 1.96632584,24.2809845 L9.95659816,24.2809845 C10.470851,24.2809845 10.880963,24.729608 10.880963,25.2908904 L10.880963,28.7098847 Z" id="Stroke-18" stroke-width="1.5" fill="#7EDCF7"></path>
                                        <path d="M11.4605573,43.2522619 C11.4605573,43.6846966 11.0458372,44.0359522 10.5334276,44.0359522 L1.38654726,44.0359522 C0.876902435,44.0359522 0.460339218,43.6846966 0.460339218,43.2522619 L0.460339218,39.7537561 C0.460339218,39.3213215 0.876902435,38.9692853 1.38654726,38.9692853 L10.5334276,38.9692853 C11.0458372,38.9692853 11.4605573,39.3213215 11.4605573,39.7537561 L11.4605573,43.2522619 Z" id="Stroke-20" stroke-width="1.5" fill="#7EDCF7"></path>
                                        <polygon id="Stroke-51" stroke-width="1.5" fill="#FFFFFF" points="38.0146286 24.2807833 42.3231087 24.2807833 42.3231087 17.6429654 38.0146286 17.6429654"></polygon>
                                        <polygon id="Stroke-53" stroke-width="1.5" fill="#FFFFFF" points="37.9948047 12.4837946 42.3032849 12.4837946 42.3032849 8.05992385 37.9948047 8.05992385"></polygon>
                                        <polygon id="Stroke-55" stroke-width="1.5" fill="#FFFFFF" points="36.4188686 39.8794429 43.9188686 39.8794429 43.9188686 29.9373724 36.4188686 29.9373724"></polygon>
                                        <polygon id="Stroke-57" stroke-width="1.5" fill="#FFFFFF" points="36.4188686 68.6170616 43.9188686 68.6170616 43.9188686 43.040351 36.4188686 43.040351"></polygon>
                                        <path d="M40.1489526,3.09142365 C43.5855992,4.74107078 43.1358584,6.70656497 43.1358584,6.70656497 C43.1358584,7.59677089 42.5921143,8.32000033 41.9184247,8.32000033 L38.3794806,8.32000033 C37.7103989,8.32000033 37.1638901,7.59677089 37.1638901,6.70656497 C37.1638901,6.70656497 36.7123061,4.74107078 40.1489526,3.09142365 Z" id="Stroke-59" stroke-width="1.5" fill="#FFFFFF"></path>
                                        <path d="M43.7363729,16.6338642 C43.7363729,17.1931348 43.3207313,17.6427642 42.8074001,17.6427642 L37.4916111,17.6427642 C36.9773583,17.6427642 36.5626383,17.1931348 36.5626383,16.6338642 L36.5626383,13.4945052 C36.5626383,12.9372464 36.9773583,12.4845993 37.4916111,12.4845993 L42.8074001,12.4845993 C43.3207313,12.4845993 43.7363729,12.9372464 43.7363729,13.4945052 L43.7363729,16.6338642 Z" id="Stroke-64" stroke-width="1.5" fill="#FFFFFF"></path>
                                        <path d="M45.0692831,28.7098847 C45.0692831,29.2691553 44.6564063,29.7207965 44.1449182,29.7207965 L36.1555675,29.7207965 C35.6440795,29.7207965 35.2302811,29.2691553 35.2302811,28.7098847 L35.2302811,25.2908904 C35.2302811,24.729608 35.6440795,24.2809845 36.1555675,24.2809845 L44.1449182,24.2809845 C44.6564063,24.2809845 45.0692831,24.729608 45.0692831,25.2908904 L45.0692831,28.7098847 Z" id="Stroke-66" stroke-width="1.5" fill="#7EDCF7"></path>
                                        <path d="M45.6488773,43.2522619 C45.6488773,43.6846966 45.2332357,44.0359522 44.7226693,44.0359522 L35.5748673,44.0359522 C35.0652225,44.0359522 34.6486593,43.6846966 34.6486593,43.2522619 L34.6486593,39.7537561 C34.6486593,39.3213215 35.0652225,38.9692853 35.5748673,38.9692853 L44.7226693,38.9692853 C45.2332357,38.9692853 45.6488773,39.3213215 45.6488773,39.7537561 L45.6488773,43.2522619 Z" id="Stroke-68" stroke-width="1.5" fill="#7EDCF7"></path>
                                        <path d="M17.380721,49.4354574 C17.380721,50.5404354 16.4848447,51.4359732 15.3827829,51.4359732 C14.2786592,51.4359732 13.380721,50.5404354 13.380721,49.4354574 C13.380721,48.331511 14.2786592,47.4359732 15.3827829,47.4359732 C16.4848447,47.4359732 17.380721,48.331511 17.380721,49.4354574 Z" id="Stroke-72" stroke-width="1.5" fill="#7EDCF7"></path>
                                        <path d="M33.0778194,49.4354574 C33.0778194,50.5404354 32.1825126,51.4359732 31.0788509,51.4359732 C29.9741577,51.4359732 29.0778194,50.5404354 29.0778194,49.4354574 C29.0778194,48.331511 29.9741577,47.4359732 31.0788509,47.4359732 C32.1825126,47.4359732 33.0778194,48.331511 33.0778194,49.4354574 Z" id="Stroke-74" stroke-width="1.5" fill="#7EDCF7"></path>
                                        <path d="M16.4864625,68.6170616 L16.4864625,59.0454995 C16.4864625,59.0454995 15.9937002,53.9663188 23.0181666,50.5775748 L23.0221728,50.5775748 C30.0482417,53.9663188 29.5530757,59.0454995 29.5530757,59.0454995 L29.5530757,68.6170616 L16.4864625,68.6170616 Z" id="Stroke-76" stroke-width="1.5" fill="#7EDCF7"></path>
                                    </g>
                                </g>
                            </g>
                        </g>
                    </g>
                </g>
            </g>
        </g>
    </g>
</svg>