<?xml version="1.0" encoding="UTF-8"?>
<svg width="69px" height="82px" viewBox="0 0 69 82" version="1.1" xmlns="http://www.w3.org/2000/svg" xmlns:xlink="http://www.w3.org/1999/xlink">
    <!-- Generator: Sketch 52.5 (67469) - http://www.bohemiancoding.com/sketch -->
    <title>Kolkata</title>
    <desc>Created with Sketch.</desc>
    <defs>
        <path d="M8.56333936,23.9096207 L8.56333936,0.681493903 L56.4859523,0.681493903 L56.4859523,23.9096207 C61.7422055,29.6281786 64.9475358,37.2352032 64.9475358,45.5851348 C64.9475358,63.3545579 50.4313135,77.7595215 32.5246458,77.7595215 C14.6179782,77.7595215 0.101755879,63.3545579 0.101755879,45.5851348 C0.101755879,37.2352032 3.30708618,29.6281786 8.56333936,23.9096207 Z" id="path-1"></path>
    </defs>
    <g id="Page-1" stroke="none" stroke-width="1" fill="none" fill-rule="evenodd">
        <g id="City-picker" transform="translate(-280.000000, -317.000000)">
            <g id="Kolkata" transform="translate(281.000000, 317.000000)">
                <rect id="Rectangle" fill="#FFFFFF" x="0" y="0" width="68" height="82"></rect>
                <circle id="Oval-Copy-6" stroke="#3D6EB4" stroke-width="1.5" fill="#ECFAFE" cx="33.8738301" cy="47.8252475" r="33.2252475"></circle>
                <g id="ahmedabad-copy" transform="translate(1.373830, 3.000000)">
                    <g id="kolkata-Clipped">
                        <mask id="mask-2" fill="white">
                            <use xlink:href="#path-1"></use>
                        </mask>
                        <g id="path-1"></g>
                        <g id="kolkata" mask="url(#mask-2)">
                            <g transform="translate(-2.000000, 6.000000)" id="Group">
                                <g transform="translate(0.714843, 0.302909)">
                                    <path d="M8.48513127,4.69889762 L57.3593795,4.69889762" id="Fill-40" fill="#FFFFFF"></path>
                                    <path d="M33.6914627,3.35635545 L33.6914627,0" id="Stroke-11" stroke="#3D6EB4" stroke-width="1.5" stroke-linecap="round" stroke-linejoin="round"></path>
                                    <path d="M39.9226929,18.7955905 L26.7286786,18.7955905 C26.9008089,19.5401859 26.8943918,23.3399152 26.7094272,30.1947785 C28.7761233,29.9463677 30.9855064,29.8068755 33.2832194,29.8068755 C35.6262299,29.8068755 37.8707185,29.9482786 39.9634606,30.207199 L39.9226929,18.7955905 Z" id="Stroke-15" stroke="#3D6EB4" stroke-width="1.5" fill="#FFFFFF" stroke-linecap="round" stroke-linejoin="round"></path>
                                    <path d="M33.7480551,29.5032706 C34.4516859,29.5032706 35.1398523,29.5179664 35.8215752,29.5359279 L35.8215752,24.1368575 C35.8215752,23.413498 34.8949991,22.823217 33.7480551,22.823217 C32.6049772,22.823217 31.6796898,23.413498 31.6796898,24.1368575 L31.6796898,29.5359279 C32.3652788,29.5179664 33.0495791,29.5032706 33.7480551,29.5032706 Z" id="Stroke-19" stroke="#3D6EB4" stroke-width="1.2" fill="#7EDCF7" stroke-linecap="round" stroke-linejoin="round"></path>
                                    <path d="M27.5378043,30.2000025 L27.5378043,22.823217 L17.5972792,22.823217 L17.5972792,32.2210123 C20.3110251,31.3142512 23.698157,30.6089926 27.5378043,30.2000025 Z" id="Stroke-31" stroke="#3D6EB4" stroke-width="1.5" fill="#FFFFFF" stroke-linecap="round" stroke-linejoin="round"></path>
                                    <path d="M23.9926082,30.4499176 L23.9926082,26.6146541 C23.9926082,26.1651966 23.4074157,25.7993591 22.6926082,25.7993591 C21.9726674,25.7993591 21.3926082,26.1651966 21.3926082,26.6146541 L21.3926082,30.8784701 C22.2177809,30.7208786 23.0853031,30.5769557 23.9926082,30.4499176 Z" id="Stroke-35" stroke="#3D6EB4" stroke-width="1.2" fill="#7EDCF7" stroke-linecap="round" stroke-linejoin="round"></path>
                                    <path d="M44.9337232,12.0828796 L44.9337232,10.0690663" id="Fill-37" fill="#FFFFFF"></path>
                                    <path d="M44.9337232,13.4254218 L44.9337232,11.4116085" id="Stroke-39" stroke="#3D6EB4" stroke-width="1.5" stroke-linecap="round" stroke-linejoin="round"></path>
                                    <path d="M39.9634606,30.2000025 L39.9634606,22.823217 L49.9039857,22.823217 L49.9039857,32.2210123 C47.1925661,31.3142512 43.8036282,30.6089926 39.9634606,30.2000025 Z" id="Stroke-47" stroke="#3D6EB4" stroke-width="1.5" fill="#FFFFFF" stroke-linecap="round" stroke-linejoin="round"></path>
                                    <path d="M43.7086877,30.4499176 L43.7086877,26.6146541 C43.7086877,26.1651966 44.286751,25.7993591 45.004834,25.7993591 C45.7267707,25.7993591 46.3086877,26.1651966 46.3086877,26.6146541 L46.3086877,30.8784701 C45.481415,30.7208786 44.6168893,30.5769557 43.7086877,30.4499176 Z" id="Stroke-51" stroke="#3D6EB4" stroke-width="1.2" fill="#7EDCF7" stroke-linecap="round" stroke-linejoin="round"></path>
                                    <path d="M55.6078829,29.5359279 L55.6078829,26.8508436" id="Stroke-55" stroke="#3D6EB4" stroke-width="1.5" stroke-linecap="round" stroke-linejoin="round"></path>
                                    <path d="M59.7065477,47.4038259 C59.994835,47.49063 60.3060237,47.5714477 60.5781454,47.6602473 L60.5781454,38.2624521 L50.6376203,38.2624521 L50.6376203,45.2147652 C54.1738554,45.7984482 57.2412867,46.5407733 59.7065477,47.4038259 Z" id="Stroke-63" stroke="#3D6EB4" stroke-width="1.5" fill="#FFFFFF" stroke-linecap="round" stroke-linejoin="round"></path>
                                    <path d="M57.3341784,46.3177052 L57.3341784,42.0664525 C57.3341784,41.6088013 56.6152489,41.2385942 55.732353,41.2385942 C54.8494571,41.2385942 54.1352574,41.6088013 54.1352574,42.0664525 L54.1352574,45.7701582 C55.2593731,45.9417774 56.3204247,46.1240206 57.3341784,46.3177052 Z" id="Stroke-67" stroke="#3D6EB4" stroke-width="1.2" fill="#7EDCF7" stroke-linecap="round" stroke-linejoin="round"></path>
                                    <path d="M33.7468759,29.5359279 C27.2532863,29.5359279 21.4532093,30.5936719 17.6099936,32.2555598 C17.5930411,34.2542858 17.5930411,35.3615552 17.6099936,35.5773677 C21.4543651,33.967629 27.3734952,32.9413714 33.7468759,32.9413714 C40.1352828,32.9413714 46.0474777,33.9636933 49.8918492,35.5773677 C49.9080312,35.3622111 49.9080312,34.2549418 49.8918492,32.2555598 C46.0440102,30.5936719 40.2404656,29.5359279 33.7468759,29.5359279 Z" id="Stroke-71" stroke="#3D6EB4" stroke-width="1.5" fill="#FFFFFF" stroke-linecap="round" stroke-linejoin="round"></path>
                                    <path d="M16.7694787,45.2035347 L16.7694787,38.2512216 L6.8289536,38.2512216 L6.8289536,47.6490169 C7.10511672,47.5602172 7.42034681,47.4774041 7.7099813,47.3905999 C10.1738952,46.5295428 13.2399793,45.7872177 16.7694787,45.2035347 Z" id="Stroke-83" stroke="#3D6EB4" stroke-width="1.5" fill="#FFFFFF" stroke-linecap="round" stroke-linejoin="round"></path>
                                    <path d="M13.2901736,45.7589277 L13.2901736,42.055222 C13.2901736,41.5975708 12.5741559,41.2273637 11.6893851,41.2273637 C10.8093456,41.2273637 10.0901736,41.5975708 10.0901736,42.055222 L10.0901736,46.3064747 C11.0995379,46.1127902 12.1641017,45.9305469 13.2901736,45.7589277 Z" id="Stroke-87" stroke="#3D6EB4" stroke-width="1.2" fill="#7EDCF7" stroke-linecap="round" stroke-linejoin="round"></path>
                                    <path d="M64.6754336,50.9654715 C58.2244516,48.5719214 47.0591815,46.9889762 34.3597845,46.9889762 C21.5031502,46.9889762 10.217473,48.6142138 3.80757102,51.0540842 L3.80757102,65.1132956 L64.6754336,65.1132956 L64.6754336,50.9654715 Z" id="Stroke-95" stroke="#3D6EB4" stroke-width="1.5" fill="#FFFFFF" stroke-linecap="round" stroke-linejoin="round"></path>
                                    <path d="M44.9337232,44.975163 L44.9337232,39.8102065 C44.9337232,38.9525888 44.0048587,38.2624521 42.860848,38.2624521 C41.715549,38.2624521 40.7918377,38.9525888 40.7918377,39.8102065 L40.7918377,44.6613769 C42.2089681,44.748005 43.5874494,44.8529212 44.9337232,44.975163 Z" id="Stroke-99" stroke="#3D6EB4" stroke-width="1.2" fill="#7EDCF7" stroke-linecap="round" stroke-linejoin="round"></path>
                                    <path d="M33.761583,44.9568394 C34.4546886,44.9568394 35.1400643,44.9649832 35.8215752,44.975163 L35.8215752,38.5557992 C35.8215752,37.6518355 34.893999,36.9199099 33.7474117,36.9199099 C32.6059777,36.9199099 31.6796898,37.6518355 31.6796898,38.5557992 L31.6796898,44.975163 C32.371507,44.9649832 33.0633243,44.9568394 33.761583,44.9568394 Z" id="Stroke-103" stroke="#3D6EB4" stroke-width="1.2" fill="#7EDCF7" stroke-linecap="round" stroke-linejoin="round"></path>
                                    <path d="M27.5378043,44.6571115 L27.5378043,39.806587 C27.5378043,38.9514034 26.6083616,38.2624521 25.4700843,38.2624521 C24.3279398,38.2624521 23.3959189,38.9514034 23.3959189,39.806587 L23.3959189,44.975163 C24.7391634,44.846405 26.1185028,44.7387864 27.5378043,44.6571115 Z" id="Stroke-107" stroke="#3D6EB4" stroke-width="1.2" fill="#7EDCF7" stroke-linecap="round" stroke-linejoin="round"></path>
                                    <path d="M0.862351863,52.359145 C6.36255707,49.4049776 19.0074166,47.3384969 33.7471247,47.3384969 C48.4924452,47.3384969 61.1429172,49.4049776 66.6389131,52.359145 L66.6389131,48.6503961 C61.1429172,45.6991016 48.4924452,43.6326208 33.7471247,43.6326208 C19.0074166,43.6326208 6.36255707,45.6991016 0.862351863,48.6503961 L0.862351863,52.359145 Z" id="Stroke-91" stroke="#3D6EB4" stroke-width="1.5" fill="#FFFFFF" stroke-linecap="round" stroke-linejoin="round"></path>
                                    <path d="M33.7500598,55.7155004 C32.1489344,55.7155004 30.8513127,56.7587774 30.8513127,58.0465005 L30.8513127,65.1132956 L36.6499523,65.1132956 L36.6499523,58.0465005 C36.6499523,56.7587774 35.3488947,55.7155004 33.7500598,55.7155004 Z" id="Stroke-111" stroke="#3D6EB4" stroke-width="1.2" fill="#7EDCF7" stroke-linecap="round" stroke-linejoin="round"></path>
                                    <path d="M23.8123985,55.7155004 C22.2109567,55.7155004 20.9107876,56.7587774 20.9107876,58.0465005 L20.9107876,65.1132956 L26.7094272,65.1132956 L26.7094272,58.0465005 C26.7094272,56.7587774 25.4104036,55.7155004 23.8123985,55.7155004 Z" id="Stroke-115" stroke="#3D6EB4" stroke-width="1.2" fill="#7EDCF7" stroke-linecap="round" stroke-linejoin="round"></path>
                                    <path d="M14.6968139,55.7155004 C13.0988087,55.7155004 11.7986396,56.7587774 11.7986396,58.0465005 L11.7986396,65.1132956 L17.5972792,65.1132956 L17.5972792,58.0465005 C17.5972792,56.7587774 16.2994012,55.7155004 14.6968139,55.7155004 Z" id="Stroke-119" stroke="#3D6EB4" stroke-width="1.2" fill="#7EDCF7" stroke-linecap="round" stroke-linejoin="round"></path>
                                    <path d="M42.863926,55.7155004 C41.2636297,55.7155004 39.9634606,56.7587774 39.9634606,58.0465005 L39.9634606,65.1132956 L45.7621003,65.1132956 L45.7621003,58.0465005 C45.7621003,56.7587774 44.4642222,55.7155004 42.863926,55.7155004 Z" id="Stroke-123" stroke="#3D6EB4" stroke-width="1.2" fill="#7EDCF7" stroke-linecap="round" stroke-linejoin="round"></path>
                                    <path d="M52.8004423,55.7155004 C51.2027527,55.7155004 49.9039857,56.7587774 49.9039857,58.0465005 L49.9039857,65.1132956 L55.7026253,65.1132956 L55.7026253,58.0465005 C55.7026253,56.7587774 54.4004224,55.7155004 52.8004423,55.7155004 Z" id="Stroke-127" stroke="#3D6EB4" stroke-width="1.2" fill="#7EDCF7" stroke-linecap="round" stroke-linejoin="round"></path>
                                    <path d="M33.7564321,3.35635545 C41.5352439,7.56951679 41.2039858,11.6577001 41.2039858,13.2250435 C41.2039858,14.2699391 40.8839028,16.1267881 40.2437368,18.7955905 L27.3926216,18.7955905 C26.5251696,16.1994226 26.1719909,13.9751363 26.3330855,12.1227316 C26.5747273,9.34412448 29.0642152,5.69011259 33.7564321,3.35635545 Z" id="Stroke-43" stroke="#3D6EB4" stroke-width="1.5" fill="#FFFFFF" stroke-linecap="round" stroke-linejoin="round"></path>
                                    <path d="M22.5675418,13.4254218 L22.5675418,11.4116085" id="Stroke-39" stroke="#3D6EB4" stroke-width="1.5" stroke-linecap="round" stroke-linejoin="round"></path>
                                    <path d="M22.5720526,13.4254218 C28.6222396,15.9899548 28.3645943,18.4784142 28.3645943,19.4324493 C28.3645943,20.0684727 28.1156409,21.1987286 27.617734,22.823217 L17.6224222,22.823217 C16.9477373,21.2429409 16.6730428,19.8890275 16.7983385,18.7614768 C16.9862822,17.0701508 18.9225506,14.8459696 22.5720526,13.4254218 Z" id="Stroke-43" stroke="#3D6EB4" stroke-width="1.5" fill="#FFFFFF" stroke-linecap="round" stroke-linejoin="round"></path>
                                    <path d="M44.938234,13.4254218 C50.988421,15.9899548 50.7307757,18.4784142 50.7307757,19.4324493 C50.7307757,20.0684727 50.4818223,21.1987286 49.9839154,22.823217 L39.9886036,22.823217 C39.3139187,21.2429409 39.0392242,19.8890275 39.1645199,18.7614768 C39.3524636,17.0701508 41.288732,14.8459696 44.938234,13.4254218 Z" id="Stroke-43" stroke="#3D6EB4" stroke-width="1.5" fill="#FFFFFF" stroke-linecap="round" stroke-linejoin="round"></path>
                                    <path d="M55.6123937,28.8646568 C61.6625807,31.4291898 61.4049354,33.9176492 61.4049354,34.8716843 C61.4049354,35.5077078 61.155982,36.6379637 60.6580751,38.2624521 L50.6627633,38.2624521 C49.9880784,36.682176 49.7133839,35.3282626 49.8386796,34.2007119 C50.0266233,32.5093858 51.9628917,30.2852047 55.6123937,28.8646568 Z" id="Stroke-43" stroke="#3D6EB4" stroke-width="1.5" fill="#FFFFFF" stroke-linecap="round" stroke-linejoin="round"></path>
                                    <path d="M11.7992161,29.5246975 L11.7992161,26.8396131" id="Stroke-55" stroke="#3D6EB4" stroke-width="1.5" stroke-linecap="round" stroke-linejoin="round"></path>
                                    <path d="M11.7408676,28.8646568 C17.7910546,31.4291898 17.5334093,33.9176492 17.5334093,34.8716843 C17.5334093,35.5077078 17.2844559,36.6379637 16.786549,38.2624521 L6.79123723,38.2624521 C6.11655235,36.682176 5.84185779,35.3282626 5.96715354,34.2007119 C6.15509717,32.5093858 8.09136558,30.2852047 11.7408676,28.8646568 Z" id="Stroke-43" stroke="#3D6EB4" stroke-width="1.5" fill="#FFFFFF" stroke-linecap="round" stroke-linejoin="round"></path>
                                </g>
                            </g>
                        </g>
                    </g>
                </g>
            </g>
        </g>
    </g>
</svg>