<?xml version="1.0"?>
<svg xmlns="http://www.w3.org/2000/svg" id="Outline" viewBox="0 0 64 64" width="512px" height="512px" class=""><g><path d="M59,10H54V3a1,1,0,0,0-1-1H19a1,1,0,0,0-1,1v7H5a3,3,0,0,0-3,3V51a3,3,0,0,0,3,3H28.219l.5,2H26a1,1,0,0,0-1,1v4a1,1,0,0,0,1,1H40a1,1,0,0,0,1-1V57a1,1,0,0,0-1-1H36.781l-.5-2H59a3,3,0,0,0,3-3V13A3,3,0,0,0,59,10ZM54,41V16h2V48H8V16H18v8H11a1,1,0,0,0-1,1V41a5.006,5.006,0,0,0,5,5H49A5.006,5.006,0,0,0,54,41ZM12,41V26h6v2H14v2h4v2H14v2h4v2H14v2h4v2H14v2h3.816A2.993,2.993,0,0,1,12,41ZM20,4H52V41a3,3,0,0,1-3,3H19c.028-.038.049-.083.077-.122.059-.083.11-.17.164-.257a4.947,4.947,0,0,0,.283-.522c.046-.1.089-.195.128-.3a5.008,5.008,0,0,0,.186-.595c.023-.094.052-.185.07-.281A4.964,4.964,0,0,0,20,41ZM39,60H27V58H39Zm-4.281-4H30.781l-.5-2h3.938ZM60,51a1,1,0,0,1-1,1H5a1,1,0,0,1-1-1V13a1,1,0,0,1,1-1H18v2H7a1,1,0,0,0-1,1V49a1,1,0,0,0,1,1H57a1,1,0,0,0,1-1V15a1,1,0,0,0-1-1H54V12h5a1,1,0,0,1,1,1Z" data-original="#000000" class="active-path" data-old_color="#ffffff" fill="#ffffff"/><path d="M23,12H48a1,1,0,0,0,1-1V7a1,1,0,0,0-1-1H23a1,1,0,0,0-1,1v4A1,1,0,0,0,23,12Zm1-4H47v2H24Z" data-original="#000000" class="active-path" data-old_color="#ffffff" fill="#ffffff"/><path d="M35,21V15a1,1,0,0,0-1-1H29a1,1,0,0,0-1,1v6a1,1,0,0,0,1,1h5A1,1,0,0,0,35,21Zm-2-1H30V16h3Z" data-original="#000000" class="active-path" data-old_color="#ffffff" fill="#ffffff"/><rect x="22" y="15" width="4" height="2" data-original="#000000" class="active-path" data-old_color="#ffffff" fill="#ffffff"/><path d="M31,34H41a1,1,0,0,0,1-1V25a1,1,0,0,0-1-1H31a1,1,0,0,0-1,1v8A1,1,0,0,0,31,34Zm1-8h8v6H32Z" data-original="#000000" class="active-path" data-old_color="#ffffff" fill="#ffffff"/><rect x="44" y="26" width="6" height="2" data-original="#000000" class="active-path" data-old_color="#ffffff" fill="#ffffff"/><rect x="44" y="30" width="6" height="2" data-original="#000000" class="active-path" data-old_color="#ffffff" fill="#ffffff"/><rect x="22" y="36" width="13" height="2" data-original="#000000" class="active-path" data-old_color="#ffffff" fill="#ffffff"/><rect x="22" y="40" width="13" height="2" data-original="#000000" class="active-path" data-old_color="#ffffff" fill="#ffffff"/><rect x="22" y="26" width="6" height="2" data-original="#000000" class="active-path" data-old_color="#ffffff" fill="#ffffff"/><rect x="22" y="30" width="6" height="2" data-original="#000000" class="active-path" data-old_color="#ffffff" fill="#ffffff"/><rect x="37" y="15" width="13" height="2" data-original="#000000" class="active-path" data-old_color="#ffffff" fill="#ffffff"/><rect x="22" y="19" width="4" height="2" data-original="#000000" class="active-path" data-old_color="#ffffff" fill="#ffffff"/><rect x="37" y="19" width="13" height="2" data-original="#000000" class="active-path" data-old_color="#ffffff" fill="#ffffff"/><rect x="37" y="36" width="13" height="2" data-original="#000000" class="active-path" data-old_color="#ffffff" fill="#ffffff"/><rect x="37" y="40" width="13" height="2" data-original="#000000" class="active-path" data-old_color="#ffffff" fill="#ffffff"/></g> </svg>
